<svg width="708" height="471" viewBox="0 0 708 471" fill="none" xmlns="http://www.w3.org/2000/svg">
<g filter="url(#filter0_d_190_2905)">
<rect width="700" height="463" transform="translate(4 4)" fill="#FB5607"/>
<path d="M451.992 234.686C397.512 203.228 309.468 203.228 255.336 234.686C201.204 266.144 201.498 317.144 255.978 348.596C310.458 380.048 398.508 380.054 452.634 348.596C506.76 317.138 506.478 266.144 451.992 234.686Z" fill="#F5F5F5"/>
<path d="M471.666 290C475.686 287.684 482.178 287.684 486.174 290C490.17 292.316 490.146 296.078 486.126 298.4C482.106 300.722 475.614 300.722 471.618 298.4C467.622 296.078 467.646 292.334 471.666 290Z" fill="#E0E0E0"/>
<path d="M357.372 293.39L349.938 283.286C349.188 282.266 348.227 281.419 347.12 280.804C346.013 280.189 344.787 279.82 343.524 279.722L332.568 278.882L315.168 268.304L321.678 264.542C321.764 264.488 321.834 264.413 321.883 264.324C321.932 264.236 321.957 264.136 321.957 264.035C321.957 263.934 321.932 263.834 321.883 263.745C321.834 263.657 321.764 263.582 321.678 263.528L318.972 261.986C318.439 261.681 317.835 261.52 317.22 261.52C316.605 261.52 316.002 261.681 315.468 261.986L251.658 298.88C251.573 298.934 251.502 299.009 251.453 299.097C251.404 299.186 251.379 299.286 251.379 299.387C251.379 299.488 251.404 299.588 251.453 299.676C251.502 299.765 251.573 299.84 251.658 299.894L254.298 301.418C254.833 301.727 255.441 301.891 256.059 301.891C256.677 301.891 257.285 301.727 257.82 301.418L285.516 285.422L302.682 295.268L304.926 301.586C305.617 303.525 306.891 305.204 308.573 306.391C310.255 307.577 312.263 308.215 314.322 308.216H330.342L341.214 314.492L367.482 299.222L357.372 293.39Z" fill="#E0E0E0"/>
<path d="M455.112 284.066C437.748 274.046 409.686 274.046 392.436 284.066C377.19 292.922 375.498 306.638 387.288 316.634C377.772 316.034 367.92 317.834 360.654 322.076C347.904 329.486 347.97 341.498 360.804 348.908C373.638 356.318 394.404 356.312 407.124 348.908C417.264 343.01 419.286 334.202 413.232 327.116C427.848 329.234 443.934 326.984 455.322 320.372C472.572 310.352 472.482 294.098 455.112 284.066Z" fill="#E0E0E0"/>
<path d="M253.548 311.738C248.976 309.098 241.584 309.098 237.042 311.738C232.5 314.378 232.524 318.662 237.096 321.302C241.668 323.942 249.06 323.942 253.602 321.302C258.144 318.662 258.126 314.378 253.548 311.738Z" fill="#E0E0E0"/>
<path d="M298.062 105.164L301.272 103.328L301.47 173.492L301.464 173.498L275.592 188.27L275.58 184.598L275.388 118.106L298.062 105.164Z" fill="#F0F0F0"/>
<path opacity="0.1" d="M298.254 171.65L298.062 105.164L301.272 103.328L301.47 173.492L301.464 173.498L298.242 171.656L298.254 171.65Z" fill="black"/>
<path opacity="0.2" d="M275.58 184.598L298.242 171.656L301.464 173.498L275.592 188.27L275.58 184.598Z" fill="black"/>
<path d="M262.656 125.378L265.866 123.542L266.064 193.706L266.058 193.712L240.186 208.484L240.174 204.812L239.982 138.32L262.656 125.378Z" fill="#F0F0F0"/>
<path opacity="0.1" d="M262.848 191.864L262.656 125.378L265.866 123.542L266.064 193.706L266.058 193.712L262.836 191.87L262.848 191.864Z" fill="black"/>
<path opacity="0.2" d="M240.174 204.812L262.836 191.87L266.058 193.712L240.186 208.484L240.174 204.812Z" fill="black"/>
<path d="M372.87 144.542C372.672 144.332 372.48 144.116 372.27 143.894L372.144 143.75C371.826 143.384 371.544 143.012 371.22 142.628L371.124 142.502C370.884 142.196 370.656 141.902 370.428 141.56L370.326 141.422C370.11 141.11 369.9 140.822 369.696 140.474C369.642 140.396 369.594 140.318 369.546 140.24C369.378 139.976 369.216 139.712 369.06 139.442C369.022 139.388 368.988 139.332 368.958 139.274C368.778 138.968 368.604 138.674 368.436 138.344L368.316 138.104C368.184 137.858 368.058 137.606 367.932 137.354L367.812 137.102C367.656 136.784 367.512 136.466 367.368 136.142L367.314 136.004C367.188 135.71 367.068 135.404 366.954 135.128L366.852 134.864C366.72 134.516 366.594 134.168 366.48 133.82C366.48 133.82 366.48 133.766 366.45 133.736C366.33 133.376 366.222 133.016 366.12 132.656L366.066 132.452C365.946 132.032 365.844 131.612 365.754 131.198C365.754 131.102 365.718 131.012 365.694 130.922L365.604 130.43C365.604 130.328 365.562 130.226 365.55 130.118C365.55 129.95 365.496 129.782 365.472 129.614C365.448 129.446 365.442 129.416 365.43 129.314C365.382 128.954 365.352 128.594 365.322 128.24C365.322 128.162 365.322 128.084 365.322 128.012C365.322 127.646 365.286 127.28 365.286 126.92C365.286 126.674 365.286 126.428 365.286 126.194V125.924C365.286 125.78 365.286 125.63 365.322 125.492C365.358 125.354 365.322 125.312 365.352 125.222C365.382 125.132 365.352 124.946 365.4 124.814C365.448 124.682 365.436 124.628 365.448 124.538C365.46 124.448 365.49 124.292 365.514 124.172C365.538 124.052 365.556 123.986 365.574 123.89C365.592 123.794 365.628 123.668 365.652 123.554C365.676 123.44 365.706 123.374 365.73 123.284C365.754 123.194 365.79 123.074 365.826 122.972L365.916 122.708C365.952 122.612 365.982 122.51 366.024 122.414C366.066 122.318 366.096 122.252 366.126 122.168C366.156 122.084 366.204 121.982 366.246 121.892C366.288 121.802 366.324 121.736 366.366 121.658C366.408 121.58 366.45 121.484 366.498 121.4L366.63 121.184L366.774 120.938L366.918 120.734C366.972 120.662 367.02 120.584 367.08 120.512C367.14 120.44 367.182 120.386 367.236 120.32C367.29 120.254 367.344 120.182 367.404 120.116C367.464 120.05 367.518 119.996 367.572 119.936L367.752 119.75L367.932 119.588L368.124 119.42L368.316 119.276L368.52 119.126L368.718 118.994C369.335 118.608 370.016 118.334 370.728 118.184C369.378 119.702 368.586 122.012 368.574 124.988C368.574 125.348 368.574 125.714 368.61 126.08C368.61 126.158 368.61 126.23 368.61 126.308C368.61 126.662 368.67 127.022 368.718 127.382C368.718 127.484 368.748 127.586 368.76 127.682C368.772 127.778 368.808 128.018 368.838 128.186C368.868 128.354 368.874 128.414 368.898 128.528L368.988 129.02C368.988 129.11 369.03 129.2 369.048 129.296C369.138 129.71 369.24 130.13 369.354 130.55C369.377 130.619 369.397 130.689 369.414 130.76C369.516 131.114 369.624 131.474 369.744 131.834C369.744 131.834 369.744 131.894 369.774 131.918C369.888 132.272 370.014 132.62 370.146 132.962C370.182 133.052 370.212 133.142 370.248 133.226C370.362 133.52 370.482 133.826 370.608 134.102L370.662 134.24C370.806 134.564 370.95 134.882 371.106 135.2C371.142 135.284 371.184 135.368 371.226 135.452C371.352 135.704 371.478 135.956 371.61 136.208L371.73 136.442C371.898 136.754 372.072 137.042 372.252 137.372C372.282 137.432 372.318 137.486 372.354 137.546C372.51 137.81 372.672 138.08 372.84 138.344L372.984 138.572C373.194 138.89 373.404 139.208 373.62 139.52L373.722 139.658C373.95 139.982 374.178 140.294 374.418 140.606L374.514 140.732C374.814 141.116 375.114 141.488 375.438 141.854L375.558 141.998L376.158 142.652L376.194 142.688C376.404 142.91 376.62 143.132 376.836 143.342C376.878 143.39 376.926 143.432 376.974 143.48C377.256 143.75 377.538 144.02 377.832 144.278L377.91 144.35C378.21 144.614 378.51 144.86 378.822 145.106L379.002 145.244C379.302 145.478 379.602 145.7 379.926 145.916L380.088 146.024C380.418 146.24 380.748 146.45 381.078 146.624C381.408 146.798 381.612 146.918 381.876 147.056L382.098 147.164L382.698 147.44L382.908 147.53L383.46 147.74L383.598 147.788C383.826 147.866 384.054 147.938 384.276 147.998L384.672 148.094L384.852 148.142C385.044 148.184 385.23 148.214 385.416 148.244C385.694 148.289 385.974 148.317 386.256 148.328H386.424C386.67 148.328 386.91 148.328 387.15 148.328H387.27C387.461 148.316 387.651 148.294 387.84 148.262H388.014L388.194 148.22C387.749 148.726 387.224 149.156 386.64 149.492L386.58 149.522H386.538C386.388 149.606 386.232 149.678 386.076 149.75L385.914 149.816C385.75 149.884 385.582 149.944 385.41 149.996H385.32C385.122 150.05 384.918 150.098 384.72 150.134H384.558C384.372 150.134 384.192 150.182 384 150.2H383.856C383.622 150.2 383.382 150.2 383.142 150.2H382.986H382.59L382.134 150.146L381.846 150.092L381.57 150.038L381.402 149.996H381.354L381 149.912C380.778 149.846 380.556 149.78 380.334 149.702L380.196 149.654L379.638 149.444L379.44 149.36C379.24 149.276 379.04 149.186 378.84 149.09L378.708 149.024C378.674 149.012 378.642 148.996 378.612 148.976C378.348 148.844 378.084 148.706 377.814 148.55C377.544 148.394 377.154 148.148 376.83 147.95H376.782L376.662 147.872C376.35 147.656 376.062 147.434 375.738 147.2L375.624 147.11L375.558 147.062C375.252 146.816 374.958 146.564 374.646 146.306C374.628 146.292 374.612 146.276 374.598 146.258H374.568C374.274 146.006 373.968 145.736 373.71 145.466L373.572 145.328C373.356 145.118 373.14 144.896 372.93 144.674L372.87 144.542Z" fill="#EBEBEB"/>
<path d="M388.02 137.696V138.47L390.198 139.724V138.95L388.02 137.696Z" fill="white"/>
<path d="M370.41 121.424L370.074 121.892L371.958 124.238L372.294 123.764L370.41 121.424Z" fill="white"/>
<path d="M392.04 140.402C392.04 148.364 386.382 151.574 379.44 147.602C372.498 143.63 366.93 133.88 366.948 125.918C366.966 117.956 372.606 114.746 379.548 118.718C386.49 122.69 392.064 132.44 392.04 140.402ZM373.8 132.716C373.853 132.885 373.963 133.029 374.112 133.124C374.152 133.149 374.197 133.163 374.244 133.166L379.572 133.586C379.609 133.597 379.649 133.595 379.684 133.581C379.72 133.567 379.75 133.541 379.77 133.508L383.256 127.598C383.288 127.494 383.291 127.383 383.264 127.277C383.238 127.172 383.183 127.075 383.106 126.998C383.063 126.948 383.013 126.906 382.956 126.872C382.836 126.806 382.716 126.812 382.656 126.914L379.23 132.728L373.98 132.314C373.812 132.314 373.728 132.482 373.8 132.722M384.048 127.502L385.14 125.966L384.54 125.246L383.49 126.8L384.09 127.52M384.54 146.948L385.14 146.9L384 144.08L383.4 144.128L384.48 146.924M370.374 134.39L372.264 134.228L371.934 133.364L370.038 133.526L370.374 134.39ZM388.578 144.902L388.914 144.428L387.03 142.082L386.694 142.556L388.578 144.902ZM370.41 121.4L370.074 121.868L371.958 124.214L372.294 123.74L370.41 121.4ZM387.06 132.956L388.95 132.794L388.614 131.936L386.724 132.092L387.06 132.956ZM374.46 119.396L373.86 119.444L374.94 122.24L375.54 122.192L374.454 119.396M374.4 141.08L375.498 139.538L374.898 138.824L373.8 140.36L374.4 141.08ZM370.968 128.6V127.85L368.79 126.596V127.364L370.968 128.624M390.198 138.956L388.02 137.696V138.47L390.198 139.724V138.956ZM379.128 145.268L379.794 145.652V143.15L379.128 142.76V145.268ZM379.866 121.052L379.2 120.668V123.2L379.866 123.59V121.082" fill="#E0E0E0"/>
<path d="M379.194 120.668L379.188 123.17L379.854 123.56L379.866 121.052L379.194 120.668Z" fill="white"/>
<path d="M384.588 125.24L383.49 126.776L384.072 127.496L385.164 125.96L384.588 125.24Z" fill="white"/>
<path d="M388.614 131.936L386.724 132.092L387.06 132.956L388.95 132.794L388.614 131.936Z" fill="white"/>
<path d="M387.03 142.082L386.694 142.556L388.578 144.902L388.914 144.428L387.03 142.082Z" fill="white"/>
<path d="M384.024 144.08L383.442 144.128L384.522 146.924L385.104 146.876L384.024 144.08Z" fill="white"/>
<path d="M379.134 142.76L379.128 145.268L379.794 145.652L379.8 143.15L379.134 142.76Z" fill="white"/>
<path d="M374.922 138.824L373.824 140.36L374.4 141.08L375.498 139.538L374.922 138.824Z" fill="white"/>
<path d="M371.928 133.364L370.038 133.526L370.374 134.39L372.264 134.228L371.928 133.364Z" fill="white"/>
<path d="M368.79 126.596V127.364L370.968 128.624V127.85L368.79 126.596Z" fill="white"/>
<path d="M374.46 119.396L373.884 119.444L374.964 122.24L375.546 122.192L374.46 119.396Z" fill="white"/>
<path d="M379.494 132.8C379.454 132.775 379.409 132.761 379.362 132.758H379.254L374.004 132.344C373.836 132.344 373.752 132.512 373.824 132.752C373.877 132.92 373.987 133.065 374.136 133.16C374.176 133.185 374.221 133.199 374.268 133.202L379.596 133.622C379.764 133.622 379.842 133.46 379.77 133.22C379.731 133.051 379.633 132.902 379.494 132.8Z" fill="white"/>
<path d="M382.98 126.866C382.86 126.8 382.74 126.806 382.68 126.908L379.254 132.722H379.362C379.409 132.725 379.454 132.739 379.494 132.764C379.642 132.858 379.751 133.003 379.8 133.172C379.872 133.412 379.8 133.592 379.626 133.574C379.663 133.585 379.702 133.583 379.738 133.569C379.774 133.555 379.804 133.529 379.824 133.496L383.31 127.586C383.342 127.482 383.345 127.371 383.318 127.265C383.292 127.16 383.237 127.063 383.16 126.986C383.108 126.935 383.047 126.895 382.98 126.866Z" fill="#F5F5F5"/>
<path d="M388.086 150.2L388.284 150.044C388.358 149.987 388.428 149.925 388.494 149.858C388.56 149.804 388.626 149.75 388.686 149.69L388.884 149.486L389.064 149.294C389.131 149.224 389.193 149.15 389.25 149.072C389.304 149.006 389.364 148.94 389.418 148.868C389.472 148.796 389.532 148.706 389.586 148.628C389.64 148.55 389.694 148.484 389.742 148.406C389.79 148.328 389.85 148.232 389.898 148.142C389.946 148.052 390 147.986 390.042 147.908C390.084 147.83 390.138 147.722 390.186 147.626L390.318 147.374L390.444 147.074C390.48 146.984 390.522 146.9 390.558 146.81C390.594 146.72 390.636 146.594 390.672 146.486C390.708 146.378 390.744 146.3 390.774 146.21C390.804 146.12 390.84 145.982 390.87 145.868C390.9 145.754 390.93 145.676 390.954 145.574C390.978 145.472 391.014 145.34 391.038 145.22L391.11 144.908C391.11 144.782 391.152 144.65 391.176 144.524L391.23 144.212L391.284 143.768L391.32 143.486L391.356 142.976V142.73C391.356 142.474 391.356 142.21 391.356 141.938C391.356 141.548 391.356 141.158 391.32 140.738C391.317 140.712 391.317 140.686 391.32 140.66C391.29 140.222 391.254 139.778 391.194 139.328V139.178L391.086 138.452C391.086 138.332 391.044 138.212 391.02 138.086C390.984 137.912 390.954 137.732 390.918 137.552V137.468C390.707 136.465 390.438 135.476 390.114 134.504C389.681 133.196 389.159 131.919 388.554 130.682L388.518 130.604C388.17 129.902 387.804 129.206 387.408 128.528L387.3 128.342C387.12 128.036 386.934 127.742 386.748 127.442L386.616 127.232C386.1 126.434 385.56 125.666 384.984 124.928C384.42 124.204 383.82 123.51 383.184 122.846C382.95 122.594 382.71 122.354 382.47 122.108L382.35 122C382.038 121.688 381.72 121.4 381.39 121.1H381.354C381.018 120.8 380.67 120.5 380.322 120.236L380.136 120.086C379.806 119.834 379.476 119.594 379.134 119.366L379.098 119.336C378.882 119.192 378.666 119.048 378.45 118.916C378.234 118.784 378.078 118.682 377.886 118.574C377.598 118.406 377.286 118.256 377.028 118.112C376.209 117.693 375.351 117.356 374.466 117.104L374.232 117.044L373.86 116.954L373.602 116.906L373.254 116.846H373.224H372.972L372.528 116.798H372.492H372.354C372.032 116.78 371.71 116.78 371.388 116.798H371.25C371.046 116.798 370.842 116.834 370.65 116.864C370.366 116.905 370.086 116.965 369.81 117.044H369.762H369.708C369.522 117.104 369.342 117.17 369.162 117.242L369.078 117.278C368.832 117.386 368.586 117.5 368.352 117.632L371.676 115.7L371.748 115.658L371.838 115.61C372 115.526 372.168 115.442 372.336 115.37C372.367 115.352 372.399 115.336 372.432 115.322H372.51C372.71 115.242 372.91 115.17 373.11 115.106C373.333 115.042 373.559 114.99 373.788 114.95H373.866H373.974C374.173 114.915 374.373 114.891 374.574 114.878H374.676H374.706C374.968 114.863 375.23 114.863 375.492 114.878H375.57H375.828H376.008C376.188 114.878 376.374 114.914 376.56 114.944L377.16 115.058L377.352 115.106L377.742 115.202H377.778C378.018 115.268 378.264 115.34 378.51 115.424L378.66 115.484C378.858 115.55 379.056 115.628 379.26 115.712L379.344 115.742L379.494 115.808C379.704 115.898 379.92 116 380.136 116.102L380.382 116.222C380.664 116.366 380.982 116.516 381.24 116.684C381.498 116.852 381.954 117.116 382.308 117.356L382.488 117.476C382.824 117.704 383.16 117.944 383.49 118.196L383.676 118.346C384.012 118.61 384.342 118.88 384.666 119.168C384.697 119.191 384.725 119.217 384.75 119.246C385.068 119.522 385.35 119.81 385.68 120.11L385.77 120.194L385.83 120.254C386.064 120.482 386.292 120.716 386.52 120.962L386.556 120.998C386.772 121.232 386.982 121.466 387.192 121.706L387.252 121.772L387.324 121.862C387.666 122.258 388.002 122.66 388.326 123.062V123.098C388.352 123.129 388.376 123.161 388.398 123.194C388.658 123.53 388.91 123.872 389.154 124.22L389.232 124.322C389.244 124.339 389.254 124.357 389.262 124.376C389.502 124.706 389.73 125.048 389.952 125.396C389.971 125.43 389.993 125.462 390.018 125.492L390.108 125.648C390.288 125.93 390.462 126.248 390.636 126.506L390.714 126.638C390.716 126.656 390.716 126.674 390.714 126.692C390.912 127.028 391.098 127.364 391.278 127.7L391.32 127.784L391.41 127.952L391.824 128.768C391.824 128.822 391.878 128.882 391.908 128.936C391.938 128.99 391.938 129.008 391.956 129.038C392.118 129.386 392.28 129.734 392.43 130.082C392.441 130.119 392.455 130.155 392.472 130.19C392.61 130.508 392.736 130.826 392.862 131.144C392.862 131.198 392.904 131.246 392.928 131.3C392.952 131.354 392.958 131.384 392.97 131.432C393.114 131.804 393.252 132.182 393.378 132.56V132.626C393.51 133.026 393.63 133.426 393.738 133.826L393.78 133.976C393.783 134.002 393.783 134.028 393.78 134.054C393.9 134.51 394.014 134.96 394.11 135.41C394.113 135.45 394.113 135.49 394.11 135.53L394.146 135.71C394.182 135.884 394.212 136.064 394.248 136.238C394.284 136.412 394.29 136.484 394.314 136.61C394.338 136.736 394.368 136.976 394.392 137.156C394.392 137.24 394.422 137.324 394.434 137.414C394.431 137.436 394.431 137.458 394.434 137.48C394.482 137.87 394.518 138.26 394.548 138.644C394.548 138.728 394.548 138.806 394.548 138.89C394.548 139.286 394.59 139.676 394.59 140.09C394.59 144.368 393.066 147.374 390.636 148.79L387.312 150.722L387.522 150.584C387.594 150.542 387.666 150.5 387.732 150.452L388.086 150.2Z" fill="#EBEBEB"/>
<path d="M364.272 126.296C364.272 134.9 370.272 145.382 377.79 149.696C381.666 151.934 385.17 152.096 387.648 150.506C387.72 150.464 387.792 150.422 387.858 150.374L388.086 150.206L388.284 150.05C388.358 149.993 388.428 149.931 388.494 149.864C388.56 149.81 388.626 149.756 388.686 149.696L388.884 149.492L389.064 149.3C389.131 149.23 389.193 149.156 389.25 149.078C389.304 149.012 389.364 148.946 389.418 148.874C389.472 148.802 389.532 148.712 389.586 148.634C389.64 148.556 389.694 148.49 389.742 148.412C389.79 148.334 389.85 148.238 389.898 148.148C389.946 148.058 390 147.992 390.042 147.914C390.084 147.836 390.138 147.728 390.186 147.632L390.318 147.38L390.444 147.08C390.48 146.99 390.522 146.906 390.558 146.816C390.594 146.726 390.636 146.6 390.672 146.492C390.708 146.384 390.744 146.306 390.774 146.216C390.804 146.126 390.84 145.988 390.87 145.874C390.9 145.76 390.93 145.682 390.954 145.58C390.978 145.478 391.014 145.346 391.038 145.226L391.11 144.914C391.11 144.788 391.152 144.656 391.176 144.53L391.23 144.218L391.284 143.774L391.32 143.492L391.356 142.982V142.736C391.356 142.48 391.356 142.216 391.356 141.944C391.356 141.554 391.356 141.164 391.32 140.744V140.666C391.29 140.228 391.254 139.784 391.194 139.334V139.184L391.086 138.458C391.086 138.338 391.044 138.218 391.02 138.092C390.996 137.966 390.954 137.738 390.918 137.558V137.474C390.707 136.471 390.438 135.482 390.114 134.51C389.681 133.202 389.159 131.925 388.554 130.688L388.518 130.61C388.17 129.908 387.804 129.212 387.408 128.534L387.3 128.348C387.12 128.042 386.934 127.748 386.748 127.448L386.616 127.238C386.1 126.44 385.56 125.672 384.984 124.934C384.42 124.21 383.82 123.516 383.184 122.852C382.95 122.6 382.71 122.36 382.47 122.114L382.35 122.006C382.038 121.694 381.72 121.406 381.39 121.106H381.354C381.018 120.806 380.67 120.506 380.322 120.242C380.255 120.195 380.191 120.145 380.13 120.092C379.8 119.84 379.47 119.6 379.128 119.372L379.092 119.342C378.876 119.198 378.66 119.054 378.444 118.922C378.228 118.79 378.072 118.688 377.88 118.58C377.592 118.412 377.28 118.262 377.022 118.118C376.203 117.699 375.345 117.362 374.46 117.11L374.214 117.05L373.842 116.96C373.752 116.96 373.662 116.924 373.572 116.906L373.224 116.846L372.942 116.81L372.498 116.762H372.324C372.002 116.744 371.68 116.744 371.358 116.762H371.202C370.998 116.762 370.794 116.798 370.602 116.828C370.318 116.869 370.038 116.929 369.762 117.008H369.66C369.474 117.068 369.294 117.134 369.114 117.206L369.018 117.242C368.772 117.35 368.526 117.464 368.292 117.596C365.802 119 364.284 122 364.272 126.296ZM372.906 144.584L372.87 144.542C372.672 144.332 372.48 144.116 372.27 143.894L372.144 143.75C371.826 143.384 371.544 143.012 371.22 142.628L371.124 142.502C370.884 142.19 370.656 141.902 370.428 141.554L370.326 141.416C370.11 141.104 369.9 140.816 369.696 140.468C369.642 140.39 369.594 140.312 369.546 140.234C369.378 139.976 369.216 139.706 369.06 139.436C369.022 139.382 368.988 139.326 368.958 139.268C368.778 138.962 368.604 138.668 368.436 138.338L368.316 138.098C368.184 137.852 368.058 137.6 367.932 137.348L367.812 137.096C367.656 136.778 367.512 136.46 367.368 136.136L367.314 135.998C367.188 135.704 367.068 135.398 366.954 135.122L366.852 134.858C366.72 134.51 366.594 134.162 366.48 133.814C366.48 133.814 366.48 133.76 366.45 133.73C366.33 133.37 366.222 133.01 366.12 132.65L366.066 132.446C365.946 132.026 365.844 131.606 365.754 131.192C365.754 131.096 365.718 131.006 365.694 130.916L365.604 130.424C365.604 130.322 365.562 130.22 365.55 130.112C365.538 130.004 365.49 129.758 365.466 129.578C365.442 129.398 365.436 129.38 365.424 129.278C365.376 128.918 365.346 128.558 365.316 128.204C365.316 128.126 365.316 128.048 365.316 127.976C365.316 127.61 365.28 127.244 365.28 126.884C365.28 126.638 365.28 126.392 365.28 126.158V125.888C365.28 125.744 365.28 125.594 365.316 125.456C365.352 125.318 365.316 125.276 365.346 125.186C365.376 125.096 365.346 124.91 365.394 124.778C365.442 124.646 365.43 124.592 365.442 124.502C365.454 124.412 365.484 124.256 365.508 124.136C365.532 124.016 365.55 123.95 365.568 123.854C365.586 123.758 365.622 123.632 365.646 123.518C365.67 123.404 365.7 123.338 365.724 123.248C365.748 123.158 365.784 123.038 365.82 122.936L365.91 122.672C365.946 122.576 365.976 122.474 366.018 122.378C366.06 122.282 366.09 122.216 366.12 122.132C366.15 122.048 366.198 121.946 366.24 121.856C366.282 121.766 366.318 121.7 366.36 121.622C366.402 121.544 366.444 121.448 366.492 121.364L366.624 121.148L366.768 120.902L366.912 120.698C366.966 120.626 367.014 120.548 367.074 120.476C367.134 120.404 367.176 120.35 367.23 120.284C367.284 120.218 367.338 120.146 367.398 120.08C367.458 120.014 367.512 119.96 367.566 119.9L367.746 119.714L367.926 119.552L368.118 119.384L368.31 119.24L368.514 119.09L368.712 118.958C369.329 118.572 370.01 118.298 370.722 118.148C372.744 117.716 375.192 118.19 377.832 119.714C384.756 123.71 390.36 133.406 390.336 141.368C390.336 144.368 389.538 146.648 388.188 148.166C387.743 148.672 387.218 149.102 386.634 149.438L386.574 149.468C386.406 149.558 386.232 149.642 386.058 149.72L385.896 149.786C385.732 149.854 385.564 149.914 385.392 149.966H385.302C385.098 150.02 384.888 150.068 384.702 150.11H384.54C384.354 150.11 384.174 150.158 383.982 150.176H383.838C383.604 150.176 383.358 150.176 383.112 150.176H382.956H382.56L382.104 150.122L381.816 150.068L381.54 150.014C381.468 150.014 381.396 149.978 381.324 149.96L380.97 149.876C380.505 149.744 380.049 149.586 379.602 149.402L379.404 149.318C379.158 149.21 378.918 149.102 378.672 148.976C378.638 148.964 378.606 148.948 378.576 148.928C378.312 148.796 378.048 148.658 377.778 148.502C377.508 148.346 377.118 148.1 376.794 147.902H376.746C376.356 147.638 375.966 147.356 375.588 147.062L375.522 147.014C375.198 146.756 374.874 146.492 374.562 146.21H374.532C374.238 145.958 373.932 145.688 373.674 145.418L373.536 145.28C373.332 145.028 373.116 144.8 372.906 144.584Z" fill="white"/>
<path d="M459.654 172.004L459.618 186.02L457.92 187.01L457.962 171.032L459.654 172.004Z" fill="#F0F0F0"/>
<path d="M477.954 196.61L477.948 198.572L457.92 187.01L459.618 186.02L477.954 196.61Z" fill="#F5F5F5"/>
<path d="M455.856 188.18L480 202.118L480.06 181.424L455.922 167.486L455.856 188.18ZM457.92 186.98L457.962 170.996L459.654 171.974L477.996 182.6L477.954 196.616V198.578L457.92 186.98Z" fill="#E0E0E0"/>
<path d="M455.916 167.486L457.614 166.502L481.752 180.44L480.054 181.424L455.916 167.486Z" fill="#F5F5F5"/>
<path d="M481.752 180.44L481.692 201.128L479.994 202.118L480.054 181.424L481.752 180.44Z" fill="#F0F0F0"/>
<path d="M460.374 143.606L460.338 157.622L458.634 158.606L458.682 142.628L460.374 143.606Z" fill="#F0F0F0"/>
<path d="M478.674 168.206L478.668 170.174L458.634 158.606L460.338 157.622L478.674 168.206Z" fill="#F5F5F5"/>
<path d="M456.6 159.8L480.738 173.738L480.798 153.044L456.636 139.088L456.6 159.8ZM458.658 158.6L458.706 142.622L460.374 143.6L478.716 154.19L478.674 168.2V170.168L458.658 158.6Z" fill="#E0E0E0"/>
<path d="M456.636 139.088L458.334 138.098L482.472 152.036L480.774 153.026L456.636 139.088Z" fill="#F5F5F5"/>
<path d="M482.472 152.036L482.412 172.73L480.714 173.714L480.774 153.026L482.472 152.036Z" fill="#F0F0F0"/>
<path d="M465.486 177.326L460.482 181.268L460.47 185.114L477.102 194.714L477.114 190.868L473.946 184.574L471.102 186.782L472.104 189.908L470.646 187.136L465.486 177.326Z" fill="#E0E0E0"/>
<path d="M470.946 179.264C470.166 178.814 469.524 179.18 469.524 180.08C469.55 180.57 469.692 181.047 469.938 181.472C470.184 181.896 470.528 182.256 470.94 182.522C471.72 182.978 472.356 182.612 472.362 181.712C472.335 181.222 472.193 180.744 471.947 180.319C471.701 179.893 471.358 179.532 470.946 179.264Z" fill="#E0E0E0"/>
<path d="M466.2 148.928L461.202 152.864L461.19 156.71L477.822 166.316L477.834 162.47L474.666 156.17L471.816 158.384L472.824 161.51L471.366 158.732L466.2 148.928Z" fill="#E0E0E0"/>
<path d="M471.666 150.866C470.88 150.416 470.244 150.776 470.244 151.676C470.269 152.167 470.41 152.644 470.655 153.07C470.9 153.495 471.242 153.856 471.654 154.124C472.44 154.574 473.076 154.214 473.076 153.314C473.051 152.824 472.91 152.346 472.665 151.921C472.42 151.495 472.078 151.134 471.666 150.866Z" fill="#E0E0E0"/>
<path d="M409.5 127.466L445.422 148.238C446.03 148.589 446.534 149.094 446.886 149.701C447.238 150.309 447.424 150.998 447.426 151.7V187.82C447.406 188.511 447.204 189.184 446.842 189.772C446.48 190.36 445.969 190.843 445.361 191.172C444.754 191.501 444.07 191.664 443.379 191.645C442.689 191.627 442.015 191.427 441.426 191.066L426.426 182.162L426.102 182.684C426.102 182.684 426.072 182.714 426.054 182.732H426.018C425.418 183.122 424.404 183.674 424.176 183.794C424.123 183.811 424.065 183.807 424.014 183.783C423.964 183.758 423.925 183.715 423.906 183.662L422.598 179.954L405.48 170.342C404.87 169.993 404.362 169.489 404.009 168.881C403.656 168.273 403.47 167.583 403.47 166.88V130.712C403.47 127.832 407.706 126.434 409.5 127.466Z" fill="#002642"/>
<path opacity="0.2" d="M426.048 182.684C426.048 182.684 426.018 182.714 426 182.732H425.964C425.364 183.122 424.35 183.674 424.122 183.794C424.149 183.79 424.175 183.779 424.198 183.764C424.221 183.748 424.24 183.728 424.254 183.704L425.52 181.652L425.268 181.508L426.384 182.144L426.048 182.684Z" fill="white"/>
<path opacity="0.4" d="M442.938 152C442.68 151.484 442.316 151.028 441.87 150.662C441.717 150.539 441.555 150.429 441.384 150.332L405.462 129.554C405.259 129.438 405.03 129.378 404.797 129.379C404.563 129.38 404.334 129.442 404.133 129.559C403.931 129.677 403.763 129.845 403.647 130.047C403.531 130.249 403.47 130.479 403.47 130.712C403.47 127.832 407.706 126.434 409.5 127.466L445.422 148.238C446.043 148.598 446.557 149.118 446.91 149.744L442.938 152Z" fill="white"/>
<path opacity="0.2" d="M443.4 189.914V153.8C443.4 153.172 443.246 152.553 442.95 152L446.922 149.744C447.259 150.341 447.436 151.014 447.438 151.7V187.82C447.418 188.51 447.216 189.184 446.854 189.772C446.492 190.36 445.981 190.843 445.373 191.172C444.766 191.5 444.082 191.664 443.392 191.645C442.701 191.627 442.027 191.427 441.438 191.066C441.639 191.174 441.865 191.228 442.094 191.224C442.322 191.22 442.546 191.156 442.743 191.041C442.94 190.925 443.104 190.761 443.219 190.563C443.334 190.366 443.396 190.142 443.4 189.914Z" fill="white"/>
<path d="M412.266 144.392L433.116 156.428L431.862 170.72C431.79 171.59 431.118 171.92 430.32 171.44L414.348 162.2C414.029 162.005 413.75 161.75 413.526 161.45L413.556 161.858C413.652 162.766 413.95 163.642 414.427 164.42C414.905 165.199 415.55 165.861 416.316 166.358L417.018 166.76C417.282 166.822 417.534 166.923 417.768 167.06C418.043 167.227 418.295 167.428 418.518 167.66L426 171.98C426.265 172.038 426.518 172.14 426.75 172.28C427.022 172.437 427.274 172.627 427.5 172.844L429.09 173.762C429.267 173.88 429.413 174.039 429.518 174.224C429.622 174.41 429.681 174.617 429.69 174.83C429.69 175.22 429.408 175.376 429.09 175.184L428.964 175.112C429.144 175.586 429.237 176.088 429.24 176.594C429.24 178.178 428.118 178.82 426.732 178.022C426.007 177.549 425.404 176.912 424.972 176.163C424.539 175.413 424.289 174.572 424.242 173.708C424.23 173.303 424.329 172.902 424.53 172.55L419.958 169.91C420.134 170.385 420.227 170.886 420.234 171.392C420.234 172.982 419.106 173.618 417.726 172.82C416.999 172.349 416.395 171.713 415.962 170.963C415.529 170.213 415.28 169.371 415.236 168.506C415.223 168.084 415.333 167.666 415.554 167.306C413.728 165.807 412.561 163.654 412.302 161.306L410.886 142.106C410.843 141.702 410.71 141.314 410.497 140.968C410.284 140.622 409.997 140.328 409.656 140.108L407.076 138.614C406.9 138.496 406.754 138.339 406.65 138.154C406.546 137.97 406.486 137.764 406.476 137.552C406.476 137.156 406.758 137 407.076 137.198L409.656 138.686C410.337 139.129 410.91 139.718 411.335 140.41C411.759 141.102 412.024 141.881 412.11 142.688L412.266 144.392ZM423.18 164.738L423.21 153.29C423.194 153 423.111 152.719 422.966 152.468C422.821 152.216 422.619 152.003 422.376 151.844C421.914 151.58 421.542 151.79 421.536 152.324L421.506 163.772C421.525 164.058 421.61 164.336 421.755 164.584C421.9 164.832 422.1 165.043 422.34 165.2C422.802 165.464 423.18 165.248 423.18 164.72M426.78 166.808L426.81 155.36C426.794 155.07 426.711 154.789 426.566 154.538C426.421 154.286 426.219 154.073 425.976 153.914C425.514 153.65 425.136 153.86 425.136 154.394V165.842C425.151 166.132 425.234 166.414 425.379 166.665C425.524 166.917 425.727 167.13 425.97 167.288C426.432 167.552 426.804 167.336 426.81 166.808M430.41 168.896L430.446 157.448C430.426 157.161 430.339 156.882 430.192 156.634C430.046 156.386 429.843 156.176 429.6 156.02C429.138 155.756 428.76 155.966 428.76 156.5L428.73 167.948C428.748 168.242 428.836 168.528 428.988 168.78C429.139 169.033 429.349 169.246 429.6 169.4C430.056 169.664 430.434 169.448 430.434 168.92M419.586 162.656L419.616 151.208C419.604 150.918 419.522 150.634 419.377 150.383C419.232 150.131 419.028 149.918 418.782 149.762C418.32 149.498 417.948 149.708 417.942 150.242V161.69C417.958 161.979 418.042 162.261 418.187 162.512C418.332 162.763 418.534 162.977 418.776 163.136C419.238 163.4 419.616 163.184 419.616 162.656M416.016 160.568L416.052 149.12C416.035 148.831 415.951 148.549 415.806 148.298C415.662 148.047 415.46 147.833 415.218 147.674C414.756 147.41 414.378 147.62 414.378 148.154L414.342 159.602C414.358 159.891 414.442 160.172 414.587 160.422C414.731 160.672 414.933 160.885 415.176 161.042C415.638 161.312 416.016 161.096 416.016 160.568ZM417.816 168.878C417.3 168.578 416.88 168.818 416.874 169.412C416.892 169.736 416.987 170.052 417.149 170.333C417.312 170.615 417.538 170.854 417.81 171.032C418.332 171.332 418.746 171.092 418.752 170.498C418.735 170.173 418.642 169.857 418.479 169.576C418.316 169.294 418.089 169.055 417.816 168.878ZM426.816 174.08C426.3 173.78 425.88 174.02 425.88 174.614C425.896 174.938 425.988 175.254 426.15 175.536C426.312 175.818 426.538 176.057 426.81 176.234C427.326 176.534 427.752 176.294 427.752 175.694C427.734 175.37 427.639 175.056 427.477 174.775C427.314 174.495 427.088 174.257 426.816 174.08Z" fill="white"/>
<path d="M439.086 156.734C439.355 156.898 439.576 157.13 439.728 157.406C440.082 158.006 440.082 158.678 439.728 158.876L434.43 161.876C434.327 161.923 434.213 161.942 434.1 161.93C433.987 161.919 433.879 161.877 433.788 161.81C433.521 161.643 433.3 161.412 433.146 161.138L430.554 156.638C430.194 156.038 430.2 155.366 430.554 155.162C430.657 155.116 430.771 155.098 430.884 155.109C430.996 155.121 431.104 155.162 431.196 155.228C431.463 155.395 431.684 155.626 431.838 155.9L433.8 159.32L438.456 156.668C438.558 156.623 438.669 156.605 438.78 156.617C438.89 156.629 438.996 156.669 439.086 156.734Z" fill="white"/>
<path d="M435.15 151.184C438.684 153.224 441.534 158.168 441.522 162.224C441.51 166.28 438.642 167.912 435.108 165.872C431.574 163.832 428.73 158.9 428.742 154.838C428.754 150.776 431.622 149.15 435.15 151.184ZM434.4 161.9L439.698 158.9C440.058 158.702 440.058 158.042 439.698 157.43C439.546 157.153 439.325 156.922 439.056 156.758C438.965 156.69 438.857 156.649 438.744 156.637C438.631 156.626 438.517 156.644 438.414 156.692L433.8 159.32L431.844 155.924C431.69 155.649 431.469 155.418 431.202 155.252C431.11 155.186 431.002 155.145 430.89 155.133C430.777 155.121 430.663 155.14 430.56 155.186C430.206 155.39 430.2 156.044 430.56 156.662L433.152 161.162C433.306 161.436 433.527 161.667 433.794 161.834C433.885 161.901 433.993 161.943 434.106 161.954C434.219 161.966 434.333 161.947 434.436 161.9" fill="#002642"/>
<path opacity="0.3" d="M435.15 151.184C438.684 153.224 441.534 158.168 441.522 162.224C441.51 166.28 438.642 167.912 435.108 165.872C431.574 163.832 428.73 158.9 428.742 154.838C428.754 150.776 431.622 149.15 435.15 151.184ZM434.4 161.9L439.698 158.9C440.058 158.702 440.058 158.042 439.698 157.43C439.546 157.153 439.325 156.922 439.056 156.758C438.965 156.69 438.857 156.649 438.744 156.637C438.631 156.626 438.517 156.644 438.414 156.692L433.8 159.32L431.844 155.924C431.69 155.649 431.469 155.418 431.202 155.252C431.11 155.186 431.002 155.145 430.89 155.133C430.777 155.121 430.663 155.14 430.56 155.186C430.206 155.39 430.2 156.044 430.56 156.662L433.152 161.162C433.306 161.436 433.527 161.667 433.794 161.834C433.885 161.901 433.993 161.943 434.106 161.954C434.219 161.966 434.333 161.947 434.436 161.9" fill="white"/>
<path d="M319.986 133.784C319.566 132.302 316.554 129.482 313.554 129.542C313.267 129.551 312.983 129.608 312.714 129.71L254.52 162.8C253.547 163.353 252.766 164.191 252.282 165.2C251.898 165.957 251.693 166.793 251.682 167.642V293.552C251.682 296.756 255.378 299.816 258.852 298.352C258.931 298.33 259.007 298.3 259.08 298.262L317.28 265.094C318.132 264.607 318.841 263.903 319.334 263.054C319.827 262.204 320.087 261.24 320.088 260.258V134.39C320.101 134.183 320.066 133.975 319.986 133.784Z" fill="#455A64"/>
<path d="M259.8 180.962C259.802 180.474 259.933 179.995 260.179 179.573C260.426 179.152 260.779 178.803 261.204 178.562L315.27 147.8C315.481 147.68 315.72 147.617 315.963 147.617C316.206 147.618 316.444 147.682 316.655 147.803C316.865 147.925 317.041 148.099 317.163 148.309C317.285 148.519 317.35 148.757 317.352 149V250.52C317.347 251.008 317.215 251.486 316.968 251.907C316.722 252.328 316.37 252.677 315.948 252.92L261.906 283.736C261.695 283.857 261.456 283.92 261.213 283.919C260.97 283.919 260.731 283.855 260.521 283.733C260.31 283.612 260.135 283.438 260.013 283.228C259.891 283.018 259.825 282.779 259.824 282.536L259.8 180.962Z" fill="#002642"/>
<path opacity="0.2" d="M259.8 180.962C259.802 180.474 259.933 179.995 260.179 179.573C260.426 179.152 260.779 178.803 261.204 178.562L315.27 147.8C315.481 147.68 315.72 147.617 315.963 147.617C316.206 147.618 316.444 147.682 316.655 147.803C316.865 147.925 317.041 148.099 317.163 148.309C317.285 148.519 317.35 148.757 317.352 149V250.52C317.347 251.008 317.215 251.486 316.968 251.907C316.722 252.328 316.37 252.677 315.948 252.92L261.906 283.736C261.695 283.857 261.456 283.92 261.213 283.919C260.97 283.919 260.731 283.855 260.521 283.733C260.31 283.612 260.135 283.438 260.013 283.228C259.891 283.018 259.825 282.779 259.824 282.536L259.8 180.962Z" fill="black"/>
<path opacity="0.1" d="M259.8 180.962C259.802 180.474 259.933 179.995 260.179 179.573C260.426 179.152 260.779 178.803 261.204 178.562L315.27 147.8C315.481 147.68 315.72 147.617 315.963 147.617C316.206 147.618 316.444 147.682 316.655 147.803C316.865 147.925 317.041 148.099 317.163 148.309C317.285 148.519 317.35 148.757 317.352 149V250.52C317.347 251.008 317.215 251.486 316.968 251.907C316.722 252.328 316.37 252.677 315.948 252.92L261.906 283.736C261.695 283.857 261.456 283.92 261.213 283.919C260.97 283.919 260.731 283.855 260.521 283.733C260.31 283.612 260.135 283.438 260.013 283.228C259.891 283.018 259.825 282.779 259.824 282.536L259.8 180.962Z" fill="white"/>
<path opacity="0.3" d="M251.706 167.654V293.552C251.706 296.756 255.402 299.816 258.876 298.352C258.667 298.428 258.443 298.453 258.223 298.425C258.003 298.396 257.793 298.314 257.611 298.187C257.429 298.06 257.281 297.891 257.178 297.694C257.075 297.497 257.022 297.278 257.022 297.056V171.134C257.037 170.036 257.377 168.967 258 168.062L252.282 165.2C251.904 165.963 251.707 166.803 251.706 167.654Z" fill="black"/>
<path opacity="0.1" d="M313.56 129.536C313.273 129.545 312.989 129.602 312.72 129.704L254.52 162.8C253.547 163.353 252.766 164.191 252.282 165.2L258 168.062C258.474 167.322 259.118 166.704 259.878 166.262L318.078 133.154C318.243 133.059 318.425 133 318.614 132.979C318.802 132.958 318.994 132.976 319.175 133.033C319.356 133.089 319.524 133.182 319.668 133.306C319.811 133.43 319.928 133.583 320.01 133.754C319.572 132.296 316.56 129.476 313.56 129.536Z" fill="white"/>
<path d="M295.758 153.968C296.172 153.734 296.508 153.92 296.508 154.388C296.492 154.646 296.417 154.897 296.288 155.121C296.159 155.345 295.979 155.535 295.764 155.678L284.364 162.278C283.956 162.518 283.626 162.32 283.626 161.846C283.64 161.592 283.713 161.344 283.84 161.123C283.967 160.902 284.145 160.714 284.358 160.574L295.758 153.968Z" fill="#263238"/>
<path d="M281.4 162.254C281.808 162.02 282.138 162.206 282.138 162.68C282.124 162.937 282.049 163.187 281.921 163.41C281.793 163.633 281.615 163.822 281.4 163.964C280.992 164.198 280.656 164.006 280.656 163.538C280.669 163.28 280.743 163.029 280.872 162.806C281.002 162.583 281.183 162.393 281.4 162.254Z" fill="#263238"/>
<path d="M288.72 153.014C289.536 152.54 290.196 152.918 290.196 153.854C290.171 154.367 290.024 154.866 289.769 155.312C289.513 155.757 289.156 156.135 288.726 156.416C287.91 156.89 287.232 156.506 287.232 155.564C287.262 155.052 287.413 154.554 287.671 154.111C287.93 153.668 288.289 153.292 288.72 153.014Z" fill="#263238"/>
<path d="M288.72 271.532C290.388 270.572 291.72 271.34 291.72 273.248C291.667 274.294 291.367 275.313 290.846 276.221C290.325 277.129 289.596 277.901 288.72 278.474C287.058 279.434 285.678 278.648 285.672 276.734C285.734 275.688 286.043 274.672 286.572 273.768C287.102 272.864 287.838 272.098 288.72 271.532Z" fill="#263238"/>
<path d="M317.172 146.204L336.828 162.518L329.664 166.658L310.014 150.344L317.172 146.204Z" fill="#002642"/>
<path d="M302.85 154.484L322.5 170.792L315.336 174.932L295.692 158.624L302.85 154.484Z" fill="#002642"/>
<path d="M295.692 158.624L315.336 174.932L308.172 179.072L288.528 162.764L295.692 158.624Z" fill="white"/>
<path d="M310.014 150.344L329.664 166.658L322.5 170.792L302.85 154.484L310.014 150.344Z" fill="white"/>
<path d="M274.206 171.038L293.844 187.346L286.68 191.486L267.042 175.178L274.206 171.038Z" fill="#002642"/>
<path d="M288.528 162.764L308.172 179.072L301.008 183.206L281.364 166.898L288.528 162.764Z" fill="#002642"/>
<path d="M259.746 179.396L267.042 175.178L286.68 191.486L279.366 195.71L259.746 179.396Z" fill="white"/>
<path d="M281.364 166.898L301.008 183.206L293.844 187.346L274.206 171.038L281.364 166.898Z" fill="white"/>
<path d="M336.828 162.518L329.664 166.658C329.663 167.144 329.791 167.621 330.033 168.041C330.275 168.462 330.624 168.812 331.044 169.055C331.464 169.298 331.941 169.426 332.427 169.427C332.912 169.427 333.389 169.3 333.81 169.058C334.724 168.524 335.481 167.76 336.008 166.842C336.534 165.924 336.811 164.884 336.81 163.826L336.828 162.518Z" fill="#002642"/>
<path d="M329.664 166.658L322.5 170.798C322.5 171.284 322.627 171.761 322.869 172.181C323.111 172.602 323.46 172.952 323.88 173.195C324.3 173.438 324.777 173.566 325.263 173.567C325.748 173.568 326.225 173.44 326.646 173.198C327.561 172.665 328.319 171.902 328.845 170.983C329.372 170.065 329.648 169.025 329.646 167.966L329.664 166.658Z" fill="#E0E0E0"/>
<path d="M322.5 170.798L315.336 174.932C315.335 175.418 315.463 175.895 315.705 176.316C315.947 176.736 316.296 177.086 316.716 177.329C317.136 177.572 317.613 177.701 318.099 177.701C318.584 177.702 319.061 177.575 319.482 177.332C320.396 176.799 321.155 176.036 321.681 175.117C322.208 174.199 322.484 173.159 322.482 172.1L322.5 170.798Z" fill="#002642"/>
<path d="M315.336 174.932L308.172 179.072C308.17 179.558 308.296 180.037 308.538 180.458C308.779 180.88 309.128 181.23 309.549 181.474C309.97 181.718 310.448 181.846 310.934 181.845C311.42 181.845 311.897 181.716 312.318 181.472C313.232 180.94 313.99 180.177 314.517 179.26C315.043 178.343 315.32 177.304 315.318 176.246L315.336 174.932Z" fill="#E0E0E0"/>
<path d="M308.172 179.072L301.008 183.2C301.007 183.686 301.135 184.163 301.377 184.584C301.619 185.004 301.968 185.354 302.388 185.597C302.808 185.84 303.285 185.969 303.771 185.969C304.256 185.97 304.733 185.842 305.154 185.6C306.068 185.067 306.827 184.304 307.353 183.385C307.88 182.467 308.156 181.427 308.154 180.368L308.172 179.072Z" fill="#002642"/>
<path d="M301.008 183.2L293.844 187.334C293.843 187.82 293.971 188.297 294.213 188.717C294.455 189.138 294.804 189.488 295.224 189.731C295.644 189.974 296.121 190.102 296.607 190.103C297.092 190.104 297.569 189.976 297.99 189.734C298.904 189.2 299.662 188.436 300.188 187.518C300.714 186.6 300.991 185.56 300.99 184.502L301.008 183.2Z" fill="#E0E0E0"/>
<path d="M293.844 187.346L286.68 191.486C286.678 191.972 286.804 192.451 287.046 192.872C287.287 193.294 287.636 193.645 288.057 193.888C288.478 194.132 288.956 194.26 289.442 194.259C289.928 194.259 290.406 194.13 290.826 193.886C291.743 193.357 292.504 192.593 293.031 191.675C293.558 190.756 293.832 189.713 293.826 188.654L293.844 187.346Z" fill="#002642"/>
<path opacity="0.2" d="M336.828 162.518L329.664 166.658C329.663 167.144 329.791 167.621 330.033 168.041C330.275 168.462 330.624 168.812 331.044 169.055C331.464 169.298 331.941 169.426 332.427 169.427C332.912 169.427 333.389 169.3 333.81 169.058C334.724 168.524 335.481 167.76 336.008 166.842C336.534 165.924 336.811 164.884 336.81 163.826L336.828 162.518Z" fill="black"/>
<path opacity="0.2" d="M322.5 170.798L315.336 174.932C315.335 175.418 315.463 175.895 315.705 176.316C315.947 176.736 316.296 177.086 316.716 177.329C317.136 177.572 317.613 177.701 318.099 177.701C318.584 177.702 319.061 177.575 319.482 177.332C320.396 176.799 321.155 176.036 321.681 175.117C322.208 174.199 322.484 173.159 322.482 172.1L322.5 170.798Z" fill="black"/>
<path opacity="0.2" d="M308.172 179.072L301.008 183.2C301.007 183.686 301.135 184.163 301.377 184.584C301.619 185.004 301.968 185.354 302.388 185.597C302.808 185.84 303.285 185.969 303.771 185.969C304.256 185.97 304.733 185.842 305.154 185.6C306.068 185.067 306.827 184.304 307.353 183.385C307.88 182.467 308.156 181.427 308.154 180.368L308.172 179.072Z" fill="black"/>
<path opacity="0.2" d="M293.844 187.346L286.68 191.486C286.678 191.972 286.804 192.451 287.046 192.872C287.287 193.294 287.636 193.645 288.057 193.888C288.478 194.132 288.956 194.26 289.442 194.259C289.928 194.259 290.406 194.13 290.826 193.886C291.743 193.357 292.504 192.593 293.031 191.675C293.558 190.756 293.832 189.713 293.826 188.654L293.844 187.346Z" fill="black"/>
<path d="M286.68 191.486L279.366 195.686C279.364 196.172 279.491 196.649 279.732 197.07C279.974 197.491 280.322 197.84 280.742 198.084C281.162 198.327 281.638 198.456 282.124 198.456C282.609 198.457 283.086 198.329 283.506 198.086C284.472 197.529 285.273 196.727 285.831 195.761C286.388 194.795 286.681 193.699 286.68 192.584V191.486Z" fill="#E0E0E0"/>
<path d="M295.032 212.6C292.907 212.852 290.845 213.488 288.948 214.478C284.525 216.76 281.145 220.651 279.504 225.35C278.792 227.368 278.453 229.499 278.502 231.638C278.974 229.617 279.655 227.65 280.536 225.77C282.506 221.558 285.613 217.98 289.506 215.438C291.245 214.304 293.097 213.353 295.032 212.6Z" fill="#002642"/>
<path d="M289.428 244.016C288.261 243.997 287.105 243.794 286.002 243.416C284.775 243.01 283.643 242.361 282.672 241.509C281.701 240.656 280.912 239.618 280.35 238.454C279.83 237.41 279.48 236.29 279.312 235.136C279.186 236.344 279.344 237.564 279.774 238.7C280.257 240.023 281.065 241.204 282.124 242.133C283.183 243.062 284.459 243.709 285.834 244.016C287.015 244.296 288.246 244.296 289.428 244.016Z" fill="#002642"/>
<path d="M298.728 224.72C298.845 226.319 298.821 227.925 298.656 229.52C298.276 233.123 297.095 236.596 295.2 239.684C294.358 241.057 293.396 242.352 292.326 243.554C293.704 242.632 294.921 241.489 295.926 240.17C298.253 237.132 299.518 233.413 299.526 229.586C299.529 227.931 299.26 226.287 298.728 224.72Z" fill="#002642"/>
<path d="M279.918 218.096C278.467 219.491 277.282 221.138 276.42 222.956C274.388 227.175 274.049 232.013 275.472 236.474C276.078 238.394 277.023 240.191 278.262 241.778C277.474 239.988 276.871 238.122 276.462 236.21C275.564 231.928 275.876 227.48 277.362 223.364C278.027 221.524 278.884 219.758 279.918 218.096Z" fill="#002642"/>
<path d="M302.838 218.804C302.685 217.166 302.096 215.598 301.134 214.262C300.042 212.685 298.513 211.461 296.735 210.74C294.958 210.018 293.008 209.831 291.126 210.2C289.506 210.493 287.993 211.21 286.74 212.276C288.149 211.585 289.676 211.166 291.24 211.04C292.966 210.882 294.705 211.139 296.312 211.791C297.918 212.442 299.345 213.469 300.474 214.784C301.508 215.964 302.31 217.328 302.838 218.804Z" fill="#002642"/>
<path d="M328.572 200C330.473 199.807 332.376 200.339 333.902 201.489C335.427 202.64 336.461 204.324 336.798 206.204L339.582 221.804L357.042 234.014L353.142 238.76L336.534 230.036C335.556 229.523 334.69 228.819 333.988 227.966C333.287 227.112 332.763 226.127 332.448 225.068L327.096 207.014L328.572 200Z" fill="#FFA8A7"/>
<path d="M335.052 216.764C336.595 215.943 337.83 214.644 338.574 213.062L337.008 205.91C336.608 204.094 335.555 202.488 334.048 201.398C332.541 200.309 330.686 199.811 328.836 200L328.572 200.03L327.096 207.056L329.4 217.4C331.299 217.875 333.306 217.649 335.052 216.764Z" fill="#455A64"/>
<path d="M335.052 216.764C333.306 217.649 331.299 217.875 329.4 217.4L330 219.95C332.166 220.436 337.716 220.274 339.162 215.69L338.562 213.05C337.824 214.635 336.592 215.938 335.052 216.764Z" fill="#455A64"/>
<path opacity="0.2" d="M335.052 216.764C336.595 215.943 337.83 214.644 338.574 213.062L337.008 205.91C336.608 204.094 335.555 202.488 334.048 201.398C332.541 200.309 330.686 199.811 328.836 200L328.572 200.03L327.096 207.056L329.4 217.4C331.299 217.875 333.306 217.649 335.052 216.764Z" fill="white"/>
<path opacity="0.5" d="M335.052 216.764C333.306 217.649 331.299 217.875 329.4 217.4L330 219.95C332.166 220.436 337.716 220.274 339.162 215.69L338.562 213.05C337.824 214.635 336.592 215.938 335.052 216.764Z" fill="white"/>
<path d="M332.436 206.714C332.436 206.714 331.74 201.404 328.572 200.018C328.572 200.018 320.988 202.292 314.7 204.68C312.213 205.587 309.777 206.628 307.404 207.8C305.976 209.036 301.878 212.714 299.952 213.704C299.011 214.174 297.996 214.479 296.952 214.604C295.632 214.816 294.366 215.278 293.22 215.966C287.448 219.302 282.786 227.366 282.804 234.008C282.804 238.358 284.844 240.992 287.862 241.358H288C288.476 241.409 288.957 241.409 289.434 241.358C294.684 241.31 303.102 241.268 306.408 240.32C321.852 235.784 333.996 224.6 332.436 206.714Z" fill="#455A64"/>
<path d="M317.718 204.536L319.98 200.432L329.082 206.564L325.482 211.4C324.726 211.77 323.902 211.979 323.061 212.013C322.22 212.047 321.381 211.906 320.598 211.598C319.824 211.241 319.131 210.729 318.564 210.093C317.996 209.457 317.565 208.712 317.298 207.902C317.138 207.342 317.093 206.755 317.165 206.176C317.237 205.598 317.425 205.04 317.718 204.536Z" fill="#FFA8A7"/>
<path opacity="0.2" d="M320.832 201.002C320.832 205.946 324.762 208.262 327.162 209.138L329.082 206.564L320.832 201.002Z" fill="black"/>
<path d="M316.722 196.07C316.386 194.096 316.044 192.068 316.428 190.1C316.812 188.132 318.084 186.212 320.028 185.636C320.423 184.795 320.987 184.044 321.687 183.432C322.386 182.82 323.204 182.359 324.09 182.078C325.827 181.604 327.624 181.386 329.424 181.43C331.41 181.311 333.403 181.422 335.364 181.76C337.34 182.113 339.135 183.131 340.452 184.646C341.127 185.575 341.606 186.632 341.859 187.752C342.113 188.873 342.136 190.033 341.928 191.162C341.497 193.419 340.662 195.58 339.462 197.54C335.646 197.81 331.758 198.248 327.942 198.518C325.998 198.722 324.039 198.74 322.092 198.572C320.105 198.251 318.246 197.385 316.722 196.07Z" fill="#263238"/>
<path d="M340.086 186.92C341.064 192.792 340.417 198.82 338.214 204.35C337.704 205.628 337.014 206.954 335.844 207.632C334.674 208.31 333.042 208.202 331.644 207.986C329.332 207.723 327.077 207.089 324.966 206.108C322.841 205.106 321.186 203.322 320.346 201.128C319.589 201.281 318.805 201.212 318.087 200.93C317.369 200.648 316.747 200.165 316.296 199.538C315.41 198.238 314.951 196.695 314.982 195.122C314.982 194.12 315.168 192.938 316.068 192.5C316.968 192.062 317.904 192.548 318.63 193.136C319.82 194.104 320.69 195.409 321.126 196.88C321.786 194.438 322.812 192.08 323.472 189.68C323.736 188.72 324.072 187.676 324.894 187.142C325.914 186.488 327.246 186.86 328.428 187.142C332.27 188.062 336.282 187.985 340.086 186.92Z" fill="#FFA8A7"/>
<path d="M332.982 194.318L335.832 199.112L332.436 199.754L332.982 194.318Z" fill="#F28F8F"/>
<path d="M329.16 201.404L331.74 202.658C331.52 202.952 331.209 203.166 330.856 203.267C330.503 203.368 330.126 203.35 329.784 203.216C329.488 203.031 329.265 202.75 329.151 202.421C329.038 202.091 329.041 201.732 329.16 201.404Z" fill="#F28F8F"/>
<path opacity="0.3" d="M329.16 201.404L331.74 202.658C331.52 202.952 331.209 203.166 330.856 203.267C330.503 203.368 330.126 203.35 329.784 203.216C329.488 203.031 329.265 202.75 329.151 202.421C329.038 202.091 329.041 201.732 329.16 201.404Z" fill="black"/>
<path d="M330.678 203.3C330.378 203.361 330.067 203.332 329.784 203.216C329.546 203.083 329.354 202.883 329.231 202.64C329.108 202.398 329.06 202.124 329.094 201.854C329.464 201.855 329.823 201.979 330.114 202.208C330.436 202.485 330.639 202.877 330.678 203.3Z" fill="#F28F8F"/>
<path d="M328.062 194.51C328.043 194.703 328.081 194.897 328.172 195.067C328.263 195.238 328.403 195.378 328.573 195.469C328.744 195.561 328.938 195.6 329.13 195.581C329.323 195.562 329.506 195.486 329.655 195.364C329.805 195.241 329.915 195.076 329.971 194.891C330.027 194.706 330.027 194.508 329.971 194.323C329.915 194.138 329.805 193.974 329.655 193.851C329.505 193.728 329.323 193.653 329.13 193.634C328.872 193.609 328.615 193.687 328.415 193.851C328.215 194.015 328.088 194.252 328.062 194.51Z" fill="#263238"/>
<path d="M336.246 195.014C336.227 195.205 336.265 195.398 336.355 195.567C336.445 195.737 336.583 195.876 336.753 195.967C336.922 196.058 337.114 196.097 337.305 196.078C337.496 196.06 337.678 195.986 337.827 195.864C337.976 195.743 338.085 195.58 338.142 195.397C338.198 195.213 338.199 195.017 338.144 194.833C338.09 194.649 337.981 194.485 337.834 194.363C337.686 194.24 337.505 194.164 337.314 194.144C337.186 194.131 337.058 194.143 336.935 194.179C336.813 194.216 336.698 194.276 336.599 194.357C336.5 194.438 336.418 194.538 336.357 194.65C336.296 194.763 336.259 194.887 336.246 195.014Z" fill="#263238"/>
<path d="M337.578 191.246L339.582 192.95C339.702 192.693 339.741 192.405 339.692 192.125C339.644 191.845 339.511 191.587 339.312 191.384C339.064 191.202 338.771 191.093 338.465 191.068C338.158 191.044 337.851 191.105 337.578 191.246Z" fill="#263238"/>
<path d="M329.598 191.114L327.3 192.386C327.232 192.11 327.251 191.821 327.353 191.556C327.455 191.291 327.635 191.063 327.87 190.904C328.149 190.775 328.458 190.726 328.764 190.764C329.069 190.801 329.358 190.922 329.598 191.114Z" fill="#263238"/>
<path d="M341.91 188.894C333.563 190.23 325.057 190.23 316.71 188.894C317.1 178.694 321.69 175.352 329.61 175.352C337.53 175.352 342 179.6 341.91 188.894Z" fill="#455A64"/>
<path d="M341.91 188.894C341.91 184.988 341.154 181.988 339.672 179.81L336.354 178.88C334.792 178.441 333.153 178.355 331.554 178.628L328.392 179.156C327.31 179.33 326.314 179.853 325.556 180.644C324.798 181.436 324.319 182.453 324.192 183.542L323.466 189.698C329.624 190.141 335.813 189.872 341.91 188.894Z" fill="#455A64"/>
<path opacity="0.29" d="M341.91 188.894C341.91 184.988 341.154 181.988 339.672 179.81L336.354 178.88C334.792 178.441 333.153 178.355 331.554 178.628L328.392 179.156C327.31 179.33 326.314 179.853 325.556 180.644C324.798 181.436 324.319 182.453 324.192 183.542L323.466 189.698C329.624 190.141 335.813 189.872 341.91 188.894Z" fill="white"/>
<path d="M342.9 180.308H341.436C340.962 180.308 340.494 180.308 340.026 180.362C335.733 180.674 331.665 182.4 328.458 185.27L323.526 189.698C329.664 190.137 335.833 189.867 341.91 188.894L345.12 185C345.461 184.579 345.676 184.069 345.741 183.531C345.805 182.992 345.717 182.447 345.485 181.956C345.253 181.466 344.887 181.051 344.43 180.76C343.973 180.468 343.442 180.312 342.9 180.308Z" fill="#455A64"/>
<path opacity="0.2" d="M342.9 180.308H341.436C340.962 180.308 340.494 180.308 340.026 180.362C335.733 180.674 331.665 182.4 328.458 185.27L323.526 189.698C329.664 190.137 335.833 189.867 341.91 188.894L345.12 185C345.461 184.579 345.676 184.069 345.741 183.531C345.805 182.992 345.717 182.447 345.485 181.956C345.253 181.466 344.887 181.051 344.43 180.76C343.973 180.468 343.442 180.312 342.9 180.308Z" fill="black"/>
<path d="M368.262 234.836L345.894 247.832L323.382 234.836L345.744 221.834L368.262 234.836Z" fill="#002642"/>
<g opacity="0.3">
<path d="M368.262 234.836L345.894 247.832L323.382 234.836L345.744 221.834L368.262 234.836Z" fill="white"/>
</g>
<path d="M368.262 234.836L368.196 257.588L345.828 270.584L345.894 247.832L368.262 234.836Z" fill="#002642"/>
<g opacity="0.1">
<path d="M368.262 234.836L368.196 257.588L345.828 270.584L345.894 247.832L368.262 234.836Z" fill="white"/>
</g>
<path d="M345.894 247.832L345.828 270.584L323.316 257.588L323.382 234.836L345.894 247.832Z" fill="#002642"/>
<path d="M349.788 233.168L357.36 228.542L353.496 226.31L345.894 230.846L349.788 233.168Z" fill="#E0E0E0"/>
<path d="M349.788 233.168L345.894 230.846L338.172 226.238L334.32 228.476L341.994 233.168L345.894 235.55L356.19 241.85L360.318 239.45L349.788 233.168Z" fill="white"/>
<path d="M341.994 233.168L331.422 239.474L335.562 241.868L345.894 235.55L341.994 233.168Z" fill="#E0E0E0"/>
<path d="M360.318 239.45L356.19 241.85L356.226 241.868L356.286 264.506L360.462 262.082L360.402 239.492L360.318 239.45Z" fill="#E0E0E0"/>
<path d="M335.562 241.868L331.422 239.474L331.386 239.492L331.32 262.214L335.496 264.62L335.562 241.868Z" fill="white"/>
<path opacity="0.2" d="M335.562 241.868L331.422 239.474L331.386 239.492L331.32 262.214L335.496 264.62L335.562 241.868Z" fill="black"/>
<path d="M345.882 240.044L341.202 242.906L345.882 245.612L350.55 242.9L345.882 240.044Z" fill="white"/>
<path d="M301.602 239.258C301.602 239.258 303.348 213.848 303.714 212.258C305.112 206.216 313.872 206.648 314.706 212.792C315.048 215.3 311.046 239.654 311.046 239.654L325.542 254.99L328.476 257.684L331.092 257.156L337.056 257.72C337.214 257.736 337.364 257.803 337.48 257.911C337.597 258.02 337.676 258.163 337.704 258.32C337.742 258.506 337.707 258.699 337.607 258.86C337.506 259.021 337.348 259.137 337.164 259.184L333.222 260.144L336.066 262.088C336.465 262.361 336.916 262.547 337.392 262.634L341.85 263.48C342.047 263.517 342.223 263.624 342.346 263.782C342.469 263.94 342.529 264.138 342.516 264.338C342.507 264.496 342.452 264.648 342.358 264.776C342.264 264.904 342.136 265.002 341.988 265.058L339.588 265.952C338.033 266.536 336.37 266.777 334.713 266.659C333.056 266.541 331.444 266.066 329.988 265.268L324.828 262.4C324.071 261.993 323.358 261.511 322.698 260.96L304.2 245.66C303.268 244.894 302.542 243.907 302.088 242.789C301.634 241.671 301.467 240.457 301.602 239.258Z" fill="#FFA8A7"/>
<path d="M314.472 229.52L316.326 215.72C316.441 214.78 316.37 213.826 316.116 212.913C315.862 212 315.431 211.146 314.848 210.4C314.264 209.654 313.539 209.03 312.715 208.564C311.89 208.097 310.981 207.798 310.041 207.683C309.1 207.568 308.147 207.64 307.234 207.893C306.321 208.147 305.467 208.578 304.721 209.161C303.974 209.745 303.35 210.47 302.884 211.295C302.418 212.119 302.119 213.028 302.004 213.968L300.456 228.05C302.558 229.265 304.894 230.022 307.309 230.272C309.724 230.522 312.165 230.26 314.472 229.502V229.52Z" fill="#455A64"/>
<path opacity="0.2" d="M314.472 229.52L316.326 215.72C316.441 214.78 316.37 213.826 316.116 212.913C315.862 212 315.431 211.146 314.848 210.4C314.264 209.654 313.539 209.03 312.715 208.564C311.89 208.097 310.981 207.798 310.041 207.683C309.1 207.568 308.147 207.64 307.234 207.893C306.321 208.147 305.467 208.578 304.721 209.161C303.974 209.745 303.35 210.47 302.884 211.295C302.418 212.119 302.119 213.028 302.004 213.968L300.456 228.05C302.558 229.265 304.894 230.022 307.309 230.272C309.724 230.522 312.165 230.26 314.472 229.502V229.52Z" fill="white"/>
<path d="M307.026 230.258C304.702 229.973 302.459 229.228 300.426 228.068L300.072 231.314C306.306 236.114 313.95 233.15 313.95 233.15L314.442 229.52C312.051 230.292 309.522 230.544 307.026 230.258Z" fill="#455A64"/>
<path opacity="0.5" d="M307.026 230.258C304.702 229.973 302.459 229.228 300.426 228.068L300.072 231.314C306.306 236.114 313.95 233.15 313.95 233.15L314.442 229.52C312.051 230.292 309.522 230.544 307.026 230.258Z" fill="white"/>
<path d="M469.164 276.662L478.896 276.95L488.628 276.662C489.042 283.262 487.764 289.934 485.994 293.204C485.575 294.043 484.901 294.728 484.068 295.16C481.194 296.822 476.556 296.822 473.7 295.16C472.856 294.72 472.182 294.013 471.78 293.15C470.016 289.862 468.75 283.202 469.164 276.662Z" fill="white"/>
<path d="M472.038 272.678C468.228 274.88 468.204 278.45 471.99 280.652C475.776 282.854 481.938 282.848 485.754 280.652C489.57 278.456 489.588 274.88 485.796 272.678C482.004 270.476 475.848 270.476 472.038 272.678Z" fill="#EBEBEB"/>
<path d="M473.544 273.554C470.544 275.27 470.544 278.054 473.508 279.776C476.472 281.498 481.272 281.492 484.248 279.776C487.224 278.06 487.248 275.27 484.278 273.554C481.308 271.838 476.52 271.838 473.544 273.554Z" fill="#E0E0E0"/>
<g opacity="0.15">
<path d="M473.544 273.554C470.544 275.27 470.544 278.054 473.508 279.776C476.472 281.498 481.272 281.492 484.248 279.776C487.224 278.06 487.248 275.27 484.278 273.554C481.308 271.838 476.52 271.838 473.544 273.554Z" fill="black"/>
</g>
<path d="M483.858 256.754C485.442 254.786 487.278 253.022 488.73 250.958C489.72 249.548 490.53 247.82 490.128 246.158C489.898 245.39 489.457 244.702 488.856 244.172C488.255 243.641 487.517 243.29 486.726 243.158C485.128 242.92 483.499 243.284 482.154 244.178C480.822 245.068 479.653 246.18 478.698 247.466C473.216 254.407 470.624 263.195 471.462 272C471.482 273.008 471.797 273.989 472.368 274.82C472.718 275.23 473.178 275.532 473.693 275.689C474.209 275.846 474.759 275.853 475.278 275.708C477.93 274.922 477.576 271.34 478.008 269.234C478.604 266.343 479.632 263.558 481.056 260.972C481.863 259.486 482.801 258.074 483.858 256.754Z" fill="#002642"/>
<path opacity="0.2" d="M483.858 256.754C485.442 254.786 487.278 253.022 488.73 250.958C489.72 249.548 490.53 247.82 490.128 246.158C489.898 245.39 489.457 244.702 488.856 244.172C488.255 243.641 487.517 243.29 486.726 243.158C485.128 242.92 483.499 243.284 482.154 244.178C480.822 245.068 479.653 246.18 478.698 247.466C473.216 254.407 470.624 263.195 471.462 272C471.482 273.008 471.797 273.989 472.368 274.82C472.718 275.23 473.178 275.532 473.693 275.689C474.209 275.846 474.759 275.853 475.278 275.708C477.93 274.922 477.576 271.34 478.008 269.234C478.604 266.343 479.632 263.558 481.056 260.972C481.863 259.486 482.801 258.074 483.858 256.754Z" fill="white"/>
<path d="M475.11 273.02C475.161 273.01 475.208 272.982 475.242 272.942C475.275 272.901 475.294 272.851 475.296 272.798C475.482 268.544 476.868 254.024 486.876 245.798C486.9 245.78 486.92 245.756 486.935 245.729C486.95 245.703 486.959 245.673 486.962 245.643C486.965 245.612 486.961 245.582 486.951 245.553C486.942 245.524 486.926 245.497 486.906 245.474C486.887 245.45 486.864 245.43 486.838 245.416C486.811 245.401 486.782 245.391 486.752 245.388C486.721 245.385 486.691 245.387 486.662 245.396C486.633 245.405 486.606 245.419 486.582 245.438C476.424 253.802 475.02 268.496 474.834 272.798C474.832 272.859 474.855 272.919 474.896 272.963C474.938 273.008 474.995 273.035 475.056 273.038L475.11 273.02Z" fill="#F0F0F0"/>
<path d="M473.652 273.476C473.862 274.407 474.257 275.286 474.815 276.061C475.373 276.835 476.081 277.489 476.898 277.982C478.429 278.711 480.133 278.998 481.818 278.81C483.524 278.609 485.199 278.206 486.81 277.61C487.614 277.34 488.502 276.98 488.61 275.984C488.622 275.724 488.577 275.464 488.479 275.223C488.38 274.981 488.231 274.764 488.04 274.586C487.878 274.426 487.705 274.275 487.524 274.136C487.44 274.074 487.378 273.988 487.345 273.889C487.312 273.79 487.31 273.683 487.339 273.583C487.369 273.483 487.428 273.395 487.509 273.329C487.591 273.264 487.69 273.225 487.794 273.218C488.271 273.186 488.746 273.126 489.216 273.038C490.319 272.866 491.356 272.4 492.216 271.688C492.84 271.135 493.315 270.434 493.596 269.648C493.836 268.976 493.908 268.136 493.398 267.638C493.084 267.376 492.7 267.209 492.294 267.158C491.94 267.08 491.58 267.014 491.226 266.96C491.124 266.945 491.029 266.897 490.957 266.823C490.884 266.749 490.838 266.653 490.825 266.551C490.812 266.448 490.833 266.344 490.885 266.254C490.937 266.165 491.017 266.094 491.112 266.054L492.624 265.424C493.058 265.283 493.452 265.038 493.77 264.71C493.966 264.406 494.093 264.062 494.143 263.704C494.192 263.346 494.163 262.981 494.058 262.634C493.872 261.686 493.548 260.774 493.326 259.838C493.057 258.916 493.014 257.943 493.2 257C490.371 256.685 487.508 256.876 484.746 257.564C483.915 257.737 483.128 258.08 482.436 258.572C481.494 259.328 481.236 260.456 481.35 261.686C481.354 261.736 481.34 261.786 481.312 261.827C481.283 261.867 481.241 261.897 481.193 261.911C481.145 261.924 481.093 261.92 481.048 261.9C481.002 261.88 480.965 261.845 480.942 261.8L480 260C479.859 259.744 479.625 259.551 479.346 259.462C479.067 259.373 478.764 259.393 478.5 259.52C477.654 259.944 476.902 260.536 476.292 261.26C475.955 261.644 475.697 262.091 475.536 262.575C475.374 263.059 475.311 263.571 475.35 264.08C475.466 265.48 475.701 266.867 476.052 268.226C476.075 268.304 476.073 268.386 476.046 268.462C476.018 268.538 475.967 268.604 475.9 268.648C475.833 268.693 475.754 268.716 475.673 268.712C475.592 268.708 475.515 268.679 475.452 268.628H475.41C475.151 268.428 474.825 268.333 474.498 268.364C473.646 268.466 473.43 269.33 473.37 270.068C473.327 271.211 473.422 272.356 473.652 273.476Z" fill="#002642"/>
<path opacity="0.2" d="M473.652 273.476C473.862 274.407 474.257 275.286 474.815 276.061C475.373 276.835 476.081 277.489 476.898 277.982C478.429 278.711 480.133 278.998 481.818 278.81C483.524 278.609 485.199 278.206 486.81 277.61C487.614 277.34 488.502 276.98 488.61 275.984C488.622 275.724 488.577 275.464 488.479 275.223C488.38 274.981 488.231 274.764 488.04 274.586C487.878 274.426 487.705 274.275 487.524 274.136C487.44 274.074 487.378 273.988 487.345 273.889C487.312 273.79 487.31 273.683 487.339 273.583C487.369 273.483 487.428 273.395 487.509 273.329C487.591 273.264 487.69 273.225 487.794 273.218C488.271 273.186 488.746 273.126 489.216 273.038C490.319 272.866 491.356 272.4 492.216 271.688C492.84 271.135 493.315 270.434 493.596 269.648C493.836 268.976 493.908 268.136 493.398 267.638C493.084 267.376 492.7 267.209 492.294 267.158C491.94 267.08 491.58 267.014 491.226 266.96C491.124 266.945 491.029 266.897 490.957 266.823C490.884 266.749 490.838 266.653 490.825 266.551C490.812 266.448 490.833 266.344 490.885 266.254C490.937 266.165 491.017 266.094 491.112 266.054L492.624 265.424C493.058 265.283 493.452 265.038 493.77 264.71C493.966 264.406 494.093 264.062 494.143 263.704C494.192 263.346 494.163 262.981 494.058 262.634C493.872 261.686 493.548 260.774 493.326 259.838C493.057 258.916 493.014 257.943 493.2 257C490.371 256.685 487.508 256.876 484.746 257.564C483.915 257.737 483.128 258.08 482.436 258.572C481.494 259.328 481.236 260.456 481.35 261.686C481.354 261.736 481.34 261.786 481.312 261.827C481.283 261.867 481.241 261.897 481.193 261.911C481.145 261.924 481.093 261.92 481.048 261.9C481.002 261.88 480.965 261.845 480.942 261.8L480 260C479.859 259.744 479.625 259.551 479.346 259.462C479.067 259.373 478.764 259.393 478.5 259.52C477.654 259.944 476.902 260.536 476.292 261.26C475.955 261.644 475.697 262.091 475.536 262.575C475.374 263.059 475.311 263.571 475.35 264.08C475.466 265.48 475.701 266.867 476.052 268.226C476.075 268.304 476.073 268.386 476.046 268.462C476.018 268.538 475.967 268.604 475.9 268.648C475.833 268.693 475.754 268.716 475.673 268.712C475.592 268.708 475.515 268.679 475.452 268.628H475.41C475.151 268.428 474.825 268.333 474.498 268.364C473.646 268.466 473.43 269.33 473.37 270.068C473.327 271.211 473.422 272.356 473.652 273.476Z" fill="black"/>
<path opacity="0.2" d="M473.652 273.476C473.862 274.407 474.257 275.286 474.815 276.061C475.373 276.835 476.081 277.489 476.898 277.982C478.429 278.711 480.133 278.998 481.818 278.81C483.524 278.609 485.199 278.206 486.81 277.61C487.614 277.34 488.502 276.98 488.61 275.984C488.622 275.724 488.577 275.464 488.479 275.223C488.38 274.981 488.231 274.764 488.04 274.586C487.878 274.426 487.705 274.275 487.524 274.136C487.44 274.074 487.378 273.988 487.345 273.889C487.312 273.79 487.31 273.683 487.339 273.583C487.369 273.483 487.428 273.395 487.509 273.329C487.591 273.264 487.69 273.225 487.794 273.218C488.271 273.186 488.746 273.126 489.216 273.038C490.319 272.866 491.356 272.4 492.216 271.688C492.84 271.135 493.315 270.434 493.596 269.648C493.836 268.976 493.908 268.136 493.398 267.638C493.084 267.376 492.7 267.209 492.294 267.158C491.94 267.08 491.58 267.014 491.226 266.96C491.124 266.945 491.029 266.897 490.957 266.823C490.884 266.749 490.838 266.653 490.825 266.551C490.812 266.448 490.833 266.344 490.885 266.254C490.937 266.165 491.017 266.094 491.112 266.054L492.624 265.424C493.058 265.283 493.452 265.038 493.77 264.71C493.966 264.406 494.093 264.062 494.143 263.704C494.192 263.346 494.163 262.981 494.058 262.634C493.872 261.686 493.548 260.774 493.326 259.838C493.057 258.916 493.014 257.943 493.2 257C490.371 256.685 487.508 256.876 484.746 257.564C483.915 257.737 483.128 258.08 482.436 258.572C481.494 259.328 481.236 260.456 481.35 261.686C481.354 261.736 481.34 261.786 481.312 261.827C481.283 261.867 481.241 261.897 481.193 261.911C481.145 261.924 481.093 261.92 481.048 261.9C481.002 261.88 480.965 261.845 480.942 261.8L480 260C479.859 259.744 479.625 259.551 479.346 259.462C479.067 259.373 478.764 259.393 478.5 259.52C477.654 259.944 476.902 260.536 476.292 261.26C475.955 261.644 475.697 262.091 475.536 262.575C475.374 263.059 475.311 263.571 475.35 264.08C475.466 265.48 475.701 266.867 476.052 268.226C476.075 268.304 476.073 268.386 476.046 268.462C476.018 268.538 475.967 268.604 475.9 268.648C475.833 268.693 475.754 268.716 475.673 268.712C475.592 268.708 475.515 268.679 475.452 268.628H475.41C475.151 268.428 474.825 268.333 474.498 268.364C473.646 268.466 473.43 269.33 473.37 270.068C473.327 271.211 473.422 272.356 473.652 273.476Z" fill="white"/>
<path d="M478.134 277.754C478.664 275.482 479.426 273.271 480.408 271.154C480.409 271.122 480.416 271.089 480.429 271.059C480.443 271.03 480.462 271.003 480.486 270.98L480.648 270.638C480.371 268.004 479.606 265.445 478.392 263.09C478.363 263.037 478.355 262.974 478.371 262.915C478.387 262.856 478.424 262.805 478.476 262.772C478.53 262.742 478.594 262.735 478.654 262.752C478.713 262.768 478.764 262.808 478.794 262.862C479.931 265.055 480.682 267.428 481.014 269.876C482.94 266.012 486.012 261.476 490.752 258.2C490.803 258.166 490.866 258.152 490.926 258.164C490.987 258.175 491.041 258.21 491.076 258.26C491.093 258.285 491.105 258.313 491.111 258.342C491.117 258.372 491.118 258.402 491.112 258.432C491.107 258.461 491.095 258.489 491.079 258.515C491.062 258.54 491.041 258.561 491.016 258.578C486.126 261.986 483.042 266.702 481.17 270.614C483.693 269.475 486.493 269.095 489.228 269.522C489.289 269.535 489.342 269.571 489.377 269.623C489.411 269.674 489.425 269.737 489.414 269.798C489.405 269.844 489.382 269.885 489.349 269.917C489.316 269.949 489.274 269.971 489.228 269.978H489.138C489.096 269.978 484.674 269.168 480.846 271.304C479.871 273.399 479.115 275.589 478.59 277.838C478.579 277.883 478.556 277.924 478.523 277.956C478.49 277.987 478.449 278.009 478.404 278.018H478.314C478.255 278.007 478.204 277.972 478.17 277.923C478.136 277.874 478.123 277.813 478.134 277.754Z" fill="#F0F0F0"/>
<path d="M256.398 296.546L245.322 296.87L234.252 296.546C233.772 304.022 235.236 311.642 237.252 315.368C237.728 316.327 238.497 317.109 239.448 317.6C242.712 319.49 247.992 319.49 251.238 317.6C252.202 317.102 252.972 316.298 253.428 315.314C255.426 311.564 256.872 303.986 256.398 296.546Z" fill="white"/>
<path d="M253.128 292.01C257.466 294.518 257.49 298.574 253.182 301.082C248.874 303.59 241.86 303.584 237.522 301.082C233.184 298.58 233.16 294.518 237.468 292.01C241.776 289.502 248.79 289.508 253.128 292.01Z" fill="#EBEBEB"/>
<path d="M251.4 293C254.784 294.956 254.802 298.124 251.442 300.08C248.082 302.036 242.61 302.03 239.226 300.08C235.842 298.13 235.824 294.956 239.184 293C242.544 291.044 248.028 291.056 251.4 293Z" fill="#E0E0E0"/>
<g opacity="0.15">
<path d="M251.4 293C254.784 294.956 254.802 298.124 251.442 300.08C248.082 302.036 242.61 302.03 239.226 300.08C235.842 298.13 235.824 294.956 239.184 293C242.544 291.044 248.028 291.056 251.4 293Z" fill="black"/>
</g>
<path d="M263.532 249.296C238.578 257.468 238.332 274.16 243.978 286.046C245.394 288.446 249.69 289.748 253.422 274.964L246.87 275.804L254.508 271.928L256.494 266L250.122 266.474L258.21 263.072C259.698 258.374 261.475 253.773 263.532 249.296Z" fill="#002642"/>
<path opacity="0.2" d="M263.532 249.296C238.578 257.468 238.332 274.16 243.978 286.046C245.394 288.446 249.69 289.748 253.422 274.964L246.87 275.804L254.508 271.928L256.494 266L250.122 266.474L258.21 263.072C259.698 258.374 261.475 253.773 263.532 249.296Z" fill="black"/>
<path opacity="0.2" d="M263.532 249.296C238.578 257.468 238.332 274.16 243.978 286.046C245.394 288.446 249.69 289.748 253.422 274.964L246.87 275.804L254.508 271.928L256.494 266L250.122 266.474L258.21 263.072C259.698 258.374 261.475 253.773 263.532 249.296Z" fill="white"/>
<path d="M256.47 253.472C243.312 263.456 242.124 274.91 245.844 286.862C244.53 276.338 243.108 265.694 256.47 253.472Z" fill="white"/>
<path d="M221.268 266.252C245.868 269.714 248.868 285.224 245.58 297.23C244.662 299.708 240.876 301.628 234.942 288.476L241.2 288.2L233.4 285.836L230.568 280.64L236.568 280.04L228.474 278.24C226.319 274.101 223.912 270.097 221.268 266.252Z" fill="#002642"/>
<path opacity="0.2" d="M221.268 266.252C245.868 269.714 248.868 285.224 245.58 297.23C244.662 299.708 240.876 301.628 234.942 288.476L241.2 288.2L233.4 285.836L230.568 280.64L236.568 280.04L228.474 278.24C226.319 274.101 223.912 270.097 221.268 266.252Z" fill="white"/>
<path opacity="0.1" d="M221.268 266.252C245.868 269.714 248.868 285.224 245.58 297.23C244.662 299.708 240.876 301.628 234.942 288.476L241.2 288.2L233.4 285.836L230.568 280.64L236.568 280.04L228.474 278.24C226.319 274.101 223.912 270.097 221.268 266.252Z" fill="black"/>
<path d="M228.534 269C242.448 276.116 245.454 286.58 243.978 298.328C243.456 288.278 243 278.132 228.534 269Z" fill="white"/>
<path d="M270.726 272.066C248.172 272.432 243.726 286.076 245.346 297.266C245.898 299.6 249.096 301.754 255.918 290.564L250.32 289.592L257.574 288.35L260.712 284L255.36 282.77L262.86 282.032C265.275 278.552 267.902 275.223 270.726 272.066Z" fill="#002642"/>
<path d="M263.874 273.698C250.536 278.552 246.654 287.654 246.672 298.406C248.262 289.436 249.798 280.34 263.874 273.698Z" fill="white"/>
<path opacity="0.2" d="M270.726 272.066C248.172 272.432 243.726 286.076 245.346 297.266C245.898 299.6 249.096 301.754 255.918 290.564L250.32 289.592L257.574 288.35L260.712 284L255.36 282.77L262.86 282.032C265.275 278.552 267.902 275.223 270.726 272.066Z" fill="white"/>
<path d="M400.8 249.524C394.878 253.64 388.2 256.484 383.262 261.998C374.028 272.294 373.812 288.866 381.066 300.644C388.32 312.422 401.814 319.496 415.554 321.116C429.954 322.82 445.092 318.836 456.402 309.716C467.712 300.596 474.906 286.406 474.9 271.916C474.894 257.426 467.46 242.948 455.304 235.016C444.21 227.816 428.274 225.722 417.144 233.996C411.522 238.196 407.766 244.358 402.144 248.558C401.736 248.882 401.28 249.2 400.8 249.524Z" fill="#002642"/>
<path opacity="0.2" d="M400.8 249.524C394.878 253.64 388.2 256.484 383.262 261.998C374.028 272.294 373.812 288.866 381.066 300.644C388.32 312.422 401.814 319.496 415.554 321.116C429.954 322.82 445.092 318.836 456.402 309.716C467.712 300.596 474.906 286.406 474.9 271.916C474.894 257.426 467.46 242.948 455.304 235.016C444.21 227.816 428.274 225.722 417.144 233.996C411.522 238.196 407.766 244.358 402.144 248.558C401.736 248.882 401.28 249.2 400.8 249.524Z" fill="black"/>
<path opacity="0.1" d="M400.8 249.524C394.878 253.64 388.2 256.484 383.262 261.998C374.028 272.294 373.812 288.866 381.066 300.644C388.32 312.422 401.814 319.496 415.554 321.116C429.954 322.82 445.092 318.836 456.402 309.716C467.712 300.596 474.906 286.406 474.9 271.916C474.894 257.426 467.46 242.948 455.304 235.016C444.21 227.816 428.274 225.722 417.144 233.996C411.522 238.196 407.766 244.358 402.144 248.558C401.736 248.882 401.28 249.2 400.8 249.524Z" fill="white"/>
<path opacity="0.1" d="M403.236 309.866C403.236 309.764 403.266 309.668 403.278 309.572C403.773 306.365 405.255 303.391 407.519 301.066C409.783 298.741 412.715 297.18 415.908 296.6C421.633 295.51 427.118 293.411 432.108 290.402C435.642 288.266 438.984 285.644 442.95 284.486C446.81 283.378 450.932 283.617 454.638 285.164C451.302 281.666 445.59 280.124 441.024 281.708C444.18 276.866 446.964 271.658 448.056 265.982C449.148 260.306 448.368 254.072 444.948 249.416C443.492 247.425 441.612 245.782 439.444 244.606C437.275 243.429 434.873 242.749 432.41 242.614C429.947 242.478 427.485 242.891 425.201 243.822C422.917 244.754 420.868 246.181 419.202 248C415.812 251.708 413.904 256.928 411.678 261.428C410.076 264.662 408.426 267.974 405.786 270.428C401.814 274.148 396.09 275.486 391.986 279.044C387.312 283.082 385.296 289.532 385.278 295.706C385.35 299.872 385.955 304.012 387.078 308.024C391.91 312.639 397.676 316.164 403.986 318.362C403.071 315.628 402.814 312.717 403.236 309.866Z" fill="black"/>
<path d="M467.19 269.918C467.002 259.898 463.268 250.268 456.652 242.74C450.036 235.212 440.965 230.273 431.052 228.8C429.676 228.937 428.311 229.166 426.966 229.484C437.392 230.038 447.222 234.52 454.477 242.028C461.732 249.537 465.873 259.515 466.068 269.954C466.338 283.46 459.726 297.23 448.392 306.782C439.512 314.27 427.716 319.238 414.744 321.02C415.02 321.062 415.302 321.098 415.578 321.128C416.742 321.266 417.912 321.362 419.088 321.428C430.608 319.19 441.042 314.444 449.088 307.628C460.704 297.854 467.46 283.76 467.19 269.918Z" fill="white"/>
<path d="M398.004 319.796L399.492 322.742C401.586 320.798 401.97 319.232 401.97 319.232C401.292 316.832 400.5 314.39 400.104 313.202C399.906 314.858 398.778 316.28 398.304 317.894C398.13 318.514 398.029 319.153 398.004 319.796Z" fill="#37474F"/>
<path d="M398.076 322.814L399.492 322.742L398.004 319.796C397.962 320.792 398.046 321.8 398.076 322.814Z" fill="#263238"/>
<path d="M399.156 309.728C398.643 308.985 398.053 308.297 397.398 307.676C397.757 308.963 397.747 310.325 397.368 311.606C396.93 313.31 396.132 314.912 395.73 316.628C395.244 318.716 395.358 320.96 394.47 322.916C394.031 323.865 393.377 324.699 392.559 325.351C391.741 326.003 390.783 326.455 389.76 326.672C389.006 326.882 388.199 326.785 387.516 326.402C387.229 326.198 387.018 325.905 386.916 325.568C386.471 326.498 385.93 327.379 385.302 328.196C384.606 329.096 383.736 330.092 383.928 331.196C384.041 331.657 384.289 332.074 384.639 332.395C384.989 332.715 385.427 332.925 385.896 332.996C386.836 333.128 387.793 333.048 388.698 332.762C390.687 332.333 392.585 331.559 394.308 330.476C396.044 329.367 397.313 327.659 397.872 325.676C398.076 324.721 398.149 323.742 398.088 322.766C398.088 321.758 397.974 320.744 398.016 319.766C398.039 319.123 398.138 318.485 398.31 317.864C398.79 316.25 399.918 314.828 400.11 313.172C400.11 313.082 400.14 312.998 400.146 312.908C400.159 311.77 399.813 310.657 399.156 309.728Z" fill="#455A64"/>
<path opacity="0.1" d="M399.156 309.728C398.643 308.985 398.053 308.297 397.398 307.676C397.757 308.963 397.747 310.325 397.368 311.606C396.93 313.31 396.132 314.912 395.73 316.628C395.244 318.716 395.358 320.96 394.47 322.916C394.031 323.865 393.377 324.699 392.559 325.351C391.741 326.003 390.783 326.455 389.76 326.672C389.006 326.882 388.199 326.785 387.516 326.402C387.229 326.198 387.018 325.905 386.916 325.568C386.471 326.498 385.93 327.379 385.302 328.196C384.606 329.096 383.736 330.092 383.928 331.196C384.041 331.657 384.289 332.074 384.639 332.395C384.989 332.715 385.427 332.925 385.896 332.996C386.836 333.128 387.793 333.048 388.698 332.762C390.687 332.333 392.585 331.559 394.308 330.476C396.044 329.367 397.313 327.659 397.872 325.676C398.076 324.721 398.149 323.742 398.088 322.766C398.088 321.758 397.974 320.744 398.016 319.766C398.039 319.123 398.138 318.485 398.31 317.864C398.79 316.25 399.918 314.828 400.11 313.172C400.11 313.082 400.14 312.998 400.146 312.908C400.159 311.77 399.813 310.657 399.156 309.728Z" fill="black"/>
<path d="M389.76 326.672C390.783 326.455 391.741 326.003 392.559 325.351C393.377 324.699 394.031 323.865 394.47 322.916C395.358 320.96 395.244 318.716 395.73 316.628C396.132 314.912 396.93 313.31 397.368 311.606C397.747 310.325 397.757 308.963 397.398 307.676C397.23 307.508 397.062 307.34 396.888 307.178C394.356 308.486 391.488 309.578 389.178 311.246C389.228 314.201 389.039 317.154 388.614 320.078C388.3 321.978 387.725 323.826 386.904 325.568C387.006 325.905 387.217 326.198 387.504 326.402C387.844 326.593 388.218 326.716 388.605 326.762C388.992 326.808 389.385 326.778 389.76 326.672Z" fill="#AB6160"/>
<path d="M381.162 318.884C380.748 321.326 378.876 326.3 378.876 326.3C378.876 326.3 387.642 326.654 387.84 326.252L390.414 322.268L381.162 318.884Z" fill="#C48281"/>
<path d="M407.4 260.756L385.05 273.2C383.023 274.33 381.401 276.067 380.414 278.167C379.427 280.268 379.124 282.625 379.548 284.906L383.886 308.306L380.328 319.616C383.4 323.732 390.45 323.942 390.45 323.942C394.386 316.052 397.272 312.704 399.504 306.092C401.736 299.48 403.23 294.92 403.23 294.92L421.83 289.844C426.078 288.689 429.883 286.287 432.753 282.948C435.622 279.609 437.425 275.486 437.928 271.112C438.246 268.304 438.258 266.39 438.258 266.39L407.4 260.756Z" fill="#455A64"/>
<path opacity="0.2" d="M405.9 268.118C405.903 270.614 406.789 273.029 408.402 274.934L394.308 283.736C391.99 285.185 390.273 287.422 389.472 290.036L383.886 308.306L388.926 287.96C389.506 285.62 390.979 283.6 393.03 282.332L405.918 274.4C404.43 270.68 405.9 268.118 405.9 268.118Z" fill="black"/>
<path d="M383.634 337.64L383.838 340.928C386.532 339.968 387.498 338.678 387.498 338.678C387.816 336.2 388.05 333.644 388.158 332.396C387.318 333.842 385.722 334.706 384.648 335.996C384.242 336.499 383.902 337.052 383.634 337.64Z" fill="#37474F"/>
<path d="M382.512 340.436L383.838 340.928L383.634 337.64C383.202 338.534 382.878 339.5 382.512 340.436Z" fill="#263238"/>
<path d="M388.644 328.826C388.465 327.943 388.195 327.08 387.84 326.252C387.663 327.575 387.118 328.823 386.268 329.852C385.194 331.244 383.826 332.402 382.788 333.818C381.516 335.552 380.736 337.658 379.158 339.104C378.38 339.805 377.45 340.315 376.441 340.594C375.432 340.873 374.371 340.914 373.344 340.712C372.57 340.606 371.869 340.198 371.394 339.578C371.205 339.278 371.12 338.923 371.154 338.57C370.38 339.255 369.538 339.858 368.64 340.37C367.644 340.928 366.45 341.498 366.186 342.608C366.115 343.072 366.182 343.547 366.378 343.974C366.574 344.4 366.891 344.76 367.29 345.008C368.101 345.499 369.011 345.803 369.954 345.896C371.953 346.283 374.004 346.318 376.014 345.998C378.041 345.665 379.874 344.597 381.162 342.998C381.728 342.199 382.182 341.327 382.512 340.406C382.878 339.47 383.202 338.504 383.634 337.61C383.902 337.024 384.243 336.473 384.648 335.972C385.722 334.676 387.318 333.812 388.158 332.372C388.2 332.3 388.254 332.228 388.296 332.144C388.759 331.102 388.881 329.941 388.644 328.826Z" fill="#455A64"/>
<path d="M373.344 340.718C374.371 340.92 375.432 340.88 376.441 340.6C377.45 340.321 378.38 339.811 379.158 339.11C380.736 337.664 381.516 335.558 382.788 333.824C383.826 332.408 385.188 331.25 386.268 329.858C387.118 328.829 387.663 327.582 387.84 326.258L387.57 325.598C384.726 325.808 381.654 325.67 378.876 326.306C377.763 329.042 376.428 331.683 374.886 334.202C373.853 335.83 372.597 337.304 371.154 338.582C371.12 338.935 371.205 339.29 371.394 339.59C371.87 340.208 372.571 340.613 373.344 340.718Z" fill="#C48281"/>
<path d="M430.344 227.714C433.987 219.247 434.202 209.697 430.944 201.074C429.9 198.35 428.424 195.674 426.006 194.012C422.91 191.924 418.908 191.954 415.176 192.062C413.196 192.122 411.174 192.182 409.314 192.866C408.387 193.181 407.551 193.716 406.877 194.426C406.202 195.136 405.711 195.998 405.444 196.94C403.002 196.49 400.542 198.416 399.882 200.81C399.222 203.204 400.086 205.808 401.604 207.776C403.122 209.744 405.204 211.154 407.34 212.444C406.056 213.116 405.108 214.664 404.664 216.044C404.22 217.43 404.325 218.934 404.958 220.244C403.808 220.256 402.689 220.62 401.753 221.287C400.816 221.954 400.107 222.893 399.72 223.976C399.408 225.06 399.36 226.203 399.581 227.31C399.801 228.416 400.283 229.454 400.986 230.336C402.419 232.096 404.393 233.332 406.602 233.852C408.799 234.365 411.07 234.487 413.31 234.212C415.626 236.456 419.868 236.408 422.778 235.016C425.688 233.624 429.054 230.666 430.344 227.714Z" fill="#263238"/>
<path d="M409.614 222.08H409.044C405.234 222.122 400.41 224.72 398.052 231.368L388.896 249.104L399.348 253.736L405.066 236.996L409.614 222.08Z" fill="#C48281"/>
<path d="M402.27 233.852C401.544 235.946 401.496 238.202 401.382 240.452C401.268 242.702 401.01 245.336 399.996 247.31C398.879 246.536 397.541 246.145 396.182 246.195C394.824 246.244 393.518 246.733 392.46 247.586C391.7 248.228 391.117 249.055 390.768 249.986L399.348 253.79L405.066 237.05L407.88 227.822C406.593 228.407 405.435 229.241 404.472 230.276C403.509 231.311 402.761 232.527 402.27 233.852Z" fill="#AB6160"/>
<path d="M399.444 250.544C399.048 249.556 398.406 248.686 397.578 248.017C396.75 247.348 395.765 246.902 394.716 246.722C392.622 246.38 390.252 247.478 388.896 249.122C387.756 250.496 387.936 252.362 388.656 254C389.258 255.271 390.281 256.295 391.552 256.896C392.823 257.498 394.264 257.641 395.628 257.3C398.328 256.538 400.464 253.154 399.444 250.544Z" fill="#C48281"/>
<path d="M410.574 221.756C406.542 222.398 404.04 232.598 402.732 236.474C401.376 240.476 403.218 243.38 405.27 245.798C405.641 246.238 405.916 246.749 406.078 247.301C406.241 247.853 406.286 248.432 406.212 249.002L402 264.764C413.58 273.362 432.996 269.198 438.264 266.39C438.325 260.884 437.163 255.433 434.862 250.43C433.311 247.199 432.437 243.685 432.294 240.104L432.096 234.32L433.494 224.336L423.438 221.936L414.576 221.54C413.239 221.536 411.903 221.608 410.574 221.756Z" fill="#002642"/>
<path opacity="0.4" d="M410.574 221.756C406.542 222.398 404.04 232.598 402.732 236.474C401.376 240.476 403.218 243.38 405.27 245.798C405.641 246.238 405.916 246.749 406.078 247.301C406.241 247.853 406.286 248.432 406.212 249.002L402 264.764C413.58 273.362 432.996 269.198 438.264 266.39C438.325 260.884 437.163 255.433 434.862 250.43C433.311 247.199 432.437 243.685 432.294 240.104L432.096 234.32L433.494 224.336L423.438 221.936L414.576 221.54C413.239 221.536 411.903 221.608 410.574 221.756Z" fill="black"/>
<path d="M410.484 267.296C410.484 267.296 410.484 267.296 410.484 267.26C410.484 267.224 410.484 267.224 410.484 267.188V267.152V267.122V267.086L403.644 254.348V254.312V254.276V254.24L403.614 254.198V254.156C403.584 254.114 403.584 254.114 403.554 254.072L403.518 254.036L403.488 253.994V253.964V253.934V253.904L403.386 253.814H403.35H403.32H403.284H403.242L403.2 253.784H403.152L394.2 248.444H394.152H394.11H394.062H394.02H393.978H393.936H393.9H393.858H393.81H393.768H393.72H393.6C393.555 248.445 393.513 248.463 393.48 248.492L392.544 249.566H392.574C392.496 249.626 392.49 249.752 392.604 249.962L399.444 262.7C399.827 263.29 400.345 263.78 400.956 264.128L408.822 268.556C409.224 268.784 409.47 268.79 409.506 268.622C409.506 268.622 409.506 268.682 409.506 268.694L410.448 267.62C410.451 267.605 410.451 267.588 410.448 267.572C410.451 267.558 410.451 267.544 410.448 267.53L410.484 267.296ZM392.748 249.344C392.748 249.344 392.748 249.344 392.802 249.344H392.832H392.748ZM401.748 254.426C401.82 254.486 401.898 254.546 401.964 254.612C401.916 254.546 401.838 254.486 401.766 254.426H401.748ZM409.542 268.4C409.531 268.31 409.502 268.222 409.458 268.142C409.499 268.215 409.527 268.294 409.542 268.376C409.542 268.376 409.536 268.364 409.542 268.4Z" fill="#455A64"/>
<path opacity="0.15" d="M410.484 267.296C410.484 267.296 410.484 267.296 410.484 267.26C410.484 267.224 410.484 267.224 410.484 267.188V267.152V267.122V267.086L403.644 254.348L402.6 255.38L409.446 268.118C409.487 268.191 409.515 268.27 409.53 268.352C409.537 268.377 409.538 268.403 409.533 268.428C409.528 268.453 409.517 268.476 409.5 268.496L410.442 267.422C410.445 267.406 410.445 267.39 410.442 267.374C410.445 267.36 410.445 267.346 410.442 267.332L410.484 267.296Z" fill="white"/>
<path opacity="0.2" d="M403.53 254.27V254.234V254.198L403.5 254.156V254.114C403.47 254.072 403.47 254.072 403.44 254.03L403.404 253.994L403.374 253.952V253.922V253.892V253.862L403.272 253.772H403.236H403.206H403.17H403.128L403.086 253.742H403.038L394.2 248.444H394.152H394.11H394.062H394.02H393.978H393.936H393.9H393.858H393.81H393.768H393.72H393.6C393.555 248.445 393.513 248.463 393.48 248.492L392.544 249.566C392.588 249.518 392.666 249.506 392.778 249.53C392.93 249.57 393.075 249.63 393.21 249.71L401.076 254.138C401.234 254.224 401.384 254.322 401.526 254.432C401.677 254.548 401.821 254.672 401.958 254.804C402.091 254.927 402.216 255.06 402.33 255.2C402.428 255.316 402.514 255.44 402.588 255.572L403.53 254.498V254.27Z" fill="white"/>
<path d="M437.352 227.672C436.236 225.758 434.772 224.288 432.552 224.12C432.552 224.12 428.952 225.992 428.952 234.488L429.192 255.746C428.67 255.956 428.148 256.178 427.632 256.394C423.244 258.281 418.657 259.668 413.958 260.528C411.508 258.582 408.458 257.547 405.33 257.6L406.488 259.76C404.292 261.17 399.324 258.632 399.324 258.632C398.958 261.728 400.968 264.944 403.632 266.57C406.296 268.196 431.7 265.808 437.088 262.322C440.634 260.03 439.794 238.112 439.794 238.112C440.038 234.467 439.188 230.831 437.352 227.672Z" fill="#C48281"/>
<path d="M393.954 252.2C393.785 253.036 393.688 253.885 393.666 254.738C393.863 256.77 394.723 258.68 396.114 260.174C396.402 260.502 396.764 260.757 397.17 260.918C397.369 260.996 397.585 261.019 397.796 260.985C398.007 260.952 398.205 260.862 398.37 260.726C398.668 260.369 398.82 259.913 398.796 259.448C398.864 258.76 398.825 258.066 398.682 257.39C398.542 256.706 398.155 256.098 397.596 255.68C397.164 255.425 396.703 255.223 396.222 255.08C395.76 254.878 395.35 254.574 395.022 254.192L393.954 252.2Z" fill="#C48281"/>
<path d="M414.546 217.598V225.626C413.76 226.37 413.004 227.222 412.932 228.284C412.918 228.793 413.045 229.295 413.298 229.736C413.551 230.178 413.92 230.541 414.366 230.786C415.274 231.267 416.334 231.37 417.318 231.074C418.291 230.774 419.183 230.257 419.928 229.562C420.984 228.586 421.836 227.41 422.433 226.102C423.031 224.794 423.362 223.38 423.408 221.942V213.8L414.546 217.598Z" fill="#C48281"/>
<path d="M423.066 213.8C422.226 218.216 420.504 222.044 414.546 223.4V217.568L423.066 213.8Z" fill="#AB6160"/>
<path d="M420.984 209.156C420.897 209.863 420.897 210.579 420.984 211.286C421.082 211.82 421.349 212.308 421.746 212.678C421.939 212.854 422.173 212.979 422.426 213.043C422.68 213.106 422.945 213.107 423.198 213.044C423.03 212.348 423.137 211.614 423.497 210.995C423.857 210.377 424.442 209.921 425.13 209.722C425.818 209.524 426.555 209.599 427.189 209.932C427.823 210.265 428.304 210.829 428.532 211.508C428.673 211.997 428.705 212.512 428.625 213.014C428.546 213.517 428.356 213.997 428.07 214.418C427.491 215.258 426.725 215.952 425.832 216.446C425.318 216.641 424.751 216.65 424.231 216.47C423.712 216.29 423.272 215.933 422.988 215.462C420.426 218.996 415.824 221.756 411.402 221.564C410.191 221.549 409.01 221.187 408 220.52C406.284 219.32 406.08 217.358 405.792 215.438C405.377 213.016 405.295 210.55 405.546 208.106C405.948 204.734 407.304 201.374 409.818 199.106C411.6 206.318 418.404 208.724 420.984 209.156Z" fill="#C48281"/>
<path d="M411.768 208.7L408.9 212.546L411.75 213.398L411.768 208.7Z" fill="#AB6160"/>
<path d="M414.402 215.108L412.08 215.948C412.244 216.217 412.492 216.426 412.785 216.543C413.078 216.66 413.401 216.678 413.706 216.596C413.975 216.465 414.19 216.246 414.317 215.975C414.443 215.704 414.474 215.398 414.402 215.108Z" fill="#AB6160"/>
<path opacity="0.3" d="M414.402 215.108L412.08 215.948C412.244 216.217 412.492 216.426 412.785 216.543C413.078 216.66 413.401 216.678 413.706 216.596C413.975 216.465 414.19 216.246 414.317 215.975C414.443 215.704 414.474 215.398 414.402 215.108Z" fill="black"/>
<path d="M412.932 216.59C413.184 216.665 413.453 216.665 413.706 216.59C413.917 216.495 414.097 216.341 414.222 216.146C414.348 215.951 414.415 215.724 414.414 215.492C414.074 215.45 413.731 215.54 413.455 215.743C413.18 215.946 412.992 216.247 412.932 216.584V216.59Z" fill="#AB6160"/>
<path d="M415.956 209.306C415.956 209.473 415.906 209.635 415.814 209.774C415.721 209.912 415.59 210.02 415.436 210.083C415.282 210.146 415.113 210.163 414.95 210.13C414.787 210.097 414.637 210.016 414.52 209.898C414.403 209.78 414.323 209.63 414.291 209.466C414.26 209.303 414.277 209.134 414.342 208.981C414.406 208.827 414.515 208.697 414.654 208.605C414.793 208.513 414.955 208.465 415.122 208.466C415.232 208.466 415.341 208.488 415.442 208.53C415.544 208.573 415.636 208.635 415.714 208.713C415.791 208.791 415.853 208.883 415.894 208.985C415.936 209.087 415.957 209.196 415.956 209.306Z" fill="#263238"/>
<path d="M408.918 209C408.915 209.223 408.824 209.435 408.666 209.591C408.508 209.747 408.294 209.834 408.072 209.834C407.849 209.834 407.635 209.746 407.478 209.588C407.32 209.431 407.232 209.217 407.232 208.994C407.232 208.772 407.32 208.558 407.478 208.4C407.635 208.243 407.849 208.154 408.072 208.154C408.183 208.154 408.293 208.176 408.396 208.219C408.498 208.261 408.592 208.324 408.67 208.402C408.749 208.481 408.811 208.574 408.854 208.677C408.896 208.779 408.918 208.889 408.918 209Z" fill="#263238"/>
<path d="M408.114 205.664L406.248 206.942C406.169 206.711 406.162 206.462 406.229 206.227C406.295 205.992 406.432 205.783 406.62 205.628C406.847 205.494 407.108 205.427 407.372 205.433C407.636 205.439 407.893 205.519 408.114 205.664Z" fill="#263238"/>
<path d="M415.296 205.592L417.15 206.888C417.232 206.658 417.242 206.409 417.179 206.173C417.116 205.937 416.982 205.726 416.796 205.568C416.568 205.432 416.308 205.362 416.042 205.366C415.777 205.371 415.519 205.449 415.296 205.592Z" fill="#263238"/>
</g>
<defs>
<filter id="filter0_d_190_2905" x="0" y="0" width="708" height="471" filterUnits="userSpaceOnUse" color-interpolation-filters="sRGB">
<feFlood flood-opacity="0" result="BackgroundImageFix"/>
<feColorMatrix in="SourceAlpha" type="matrix" values="0 0 0 0 0 0 0 0 0 0 0 0 0 0 0 0 0 0 127 0" result="hardAlpha"/>
<feMorphology radius="4" operator="dilate" in="SourceAlpha" result="effect1_dropShadow_190_2905"/>
<feOffset/>
<feComposite in2="hardAlpha" operator="out"/>
<feColorMatrix type="matrix" values="0 0 0 0 1 0 0 0 0 1 0 0 0 0 1 0 0 0 0.01 0"/>
<feBlend mode="normal" in2="BackgroundImageFix" result="effect1_dropShadow_190_2905"/>
<feBlend mode="normal" in="SourceGraphic" in2="effect1_dropShadow_190_2905" result="shape"/>
</filter>
</defs>
</svg>
