<svg width="85" height="88" viewBox="0 0 85 88" fill="none" xmlns="http://www.w3.org/2000/svg">
<g style="mix-blend-mode:luminosity" clip-path="url(#clip0_190_3475)">
<path d="M63.6615 55.4589C53.8038 61.8838 45.278 65.8113 38.0647 67.7946L38.0451 62.3295L27.6095 65.5023L27.5899 69.4101C5.20545 69.6897 2.17907 45.6893 17.4677 29.7886C7.22793 53.4952 42.1243 49.6216 57.1289 51.8302C61.0857 52.4129 63.6615 53.4168 63.6615 55.4589Z" fill="#FECC0B"/>
<path d="M73.5782 70.8115V73.7008L67.0793 75.6782L67.0838 72.7875L73.5782 70.8115Z" fill="#22297C"/>
<path d="M39.5437 80.1592V83.3232L38.0452 83.7786L32.9033 85.3452V82.1821L38.0452 80.6151L39.5437 80.1592Z" fill="#22297C"/>
<path d="M31.8308 82.8218V85.9853L27.6096 87.2732L25.1904 88.0078V84.8443L27.6096 84.1097L31.8308 82.8218Z" fill="#22297C"/>
<path d="M76.5164 57.5059V63.3554C76.5164 64.4572 75.537 65.845 73.3103 66.6472L66.7223 68.6515L64.2738 69.3964V78.2003C64.2126 79.9143 62.8659 80.7713 61.765 81.2027L54.2647 83.4857L50.8999 84.5092C50.8999 84.5092 43.4824 86.7721 43.4163 86.7863C41.9006 87.1173 41.3091 86.372 41.2288 85.6688V79.6464L50.9004 76.7082V80.2409C50.9004 81.3021 54.2358 81.047 54.2652 79.5778V64.2795L64.1127 61.283V65.1614C64.7233 66.3147 67.07 65.9885 67.0901 64.4166V60.3765L73.5787 58.403L76.5164 57.5059Z" fill="#22297C"/>
<path d="M64.3963 54.5188C79.0875 43.2556 88.3919 21.8701 1.38599 13.8732C77.4568 -20.4061 103.901 27.0953 64.3963 54.5188Z" fill="#22297C"/>
<path d="M50.9001 65.3021V72.0306C50.9001 72.7358 50.2385 73.7152 49 74.0433L41.2284 76.4086L39.5438 76.9228L38.0453 77.3782L32.9034 78.9404L31.831 79.2685L27.6097 80.5515L25.1906 81.291L24.8527 81.3938L17.9429 83.4946C16.3612 83.7542 14.8137 83.2057 14.5688 82.0255V76.3596L24.8527 73.2304V77.6182C25.0241 78.3136 27.453 78.1275 27.546 77.006L27.5901 69.4107L27.6097 65.5029L38.0453 62.3301L38.0649 67.7952L38.0894 73.3044C38.1384 74.2196 40.675 73.657 40.6652 72.5551L40.6456 68.4215L41.2284 68.2457L50.9001 65.3021Z" fill="#22297C"/>
</g>
<defs>
<clipPath id="clip0_190_3475">
<rect width="84.1313" height="88" fill="white"/>
</clipPath>
</defs>
</svg>
