<svg width="12" height="13" viewBox="0 0 12 13" fill="none" xmlns="http://www.w3.org/2000/svg">
<g clip-path="url(#clip0_190_3422)">
<path d="M5.94 5.07C6.58 5.1 6.745 5.645 6.755 5.9H7.65C7.61 4.91 6.905 4.305 5.925 4.305C4.82 4.305 4 5 4 6.57C4 7.54 4.465 8.69 5.92 8.69C7.03 8.69 7.625 7.865 7.64 7.215H6.745C6.73 7.51 6.52 7.905 5.93 7.935C5.275 7.915 5 7.405 5 6.57C5 5.125 5.64 5.08 5.94 5.07ZM6 1.5C3.24 1.5 1 3.74 1 6.5C1 9.26 3.24 11.5 6 11.5C8.76 11.5 11 9.26 11 6.5C11 3.74 8.76 1.5 6 1.5ZM6 10.5C3.795 10.5 2 8.705 2 6.5C2 4.295 3.795 2.5 6 2.5C8.205 2.5 10 4.295 10 6.5C10 8.705 8.205 10.5 6 10.5Z" fill="white"/>
</g>
<defs>
<clipPath id="clip0_190_3422">
<rect width="12" height="12" fill="white" transform="translate(0 0.5)"/>
</clipPath>
</defs>
</svg>
