<svg width="13" height="13" viewBox="0 0 13 13" fill="none" xmlns="http://www.w3.org/2000/svg">
<g clip-path="url(#clip0_190_3528)">
<path d="M6.44 5.07C7.08 5.1 7.245 5.645 7.255 5.9H8.15C8.11 4.91 7.405 4.305 6.425 4.305C5.32 4.305 4.5 5 4.5 6.57C4.5 7.54 4.965 8.69 6.42 8.69C7.53 8.69 8.125 7.865 8.14 7.215H7.245C7.23 7.51 7.02 7.905 6.43 7.935C5.775 7.915 5.5 7.405 5.5 6.57C5.5 5.125 6.14 5.08 6.44 5.07ZM6.5 1.5C3.74 1.5 1.5 3.74 1.5 6.5C1.5 9.26 3.74 11.5 6.5 11.5C9.26 11.5 11.5 9.26 11.5 6.5C11.5 3.74 9.26 1.5 6.5 1.5ZM6.5 10.5C4.295 10.5 2.5 8.705 2.5 6.5C2.5 4.295 4.295 2.5 6.5 2.5C8.705 2.5 10.5 4.295 10.5 6.5C10.5 8.705 8.705 10.5 6.5 10.5Z" fill="white"/>
</g>
<defs>
<clipPath id="clip0_190_3528">
<rect width="12" height="12" fill="white" transform="translate(0.5 0.5)"/>
</clipPath>
</defs>
</svg>
