<svg width="25" height="25" viewBox="0 0 25 25" fill="none" xmlns="http://www.w3.org/2000/svg">
<g style="mix-blend-mode:luminosity" clip-path="url(#clip0_190_3517)">
<path d="M23.888 12.7806C23.888 11.8465 23.8105 11.1649 23.6426 10.458H12.7272V14.6741H19.1343C19.0052 15.7218 18.3076 17.2997 16.7575 18.36L16.7357 18.5012L20.187 21.1139L20.4261 21.1372C22.6221 19.1553 23.888 16.2394 23.888 12.7806" fill="black"/>
<path d="M12.7271 23.8893C15.8661 23.8893 18.5013 22.8794 20.4261 21.1375L16.7574 18.3603C15.7757 19.0293 14.4581 19.4964 12.7271 19.4964C9.65276 19.4964 7.04341 17.5146 6.11325 14.7754L5.97691 14.7867L2.38824 17.5007L2.34131 17.6282C4.2531 21.3394 8.18008 23.8893 12.7271 23.8893Z" fill="black"/>
<path d="M6.11333 14.775C5.8679 14.0682 5.72586 13.3107 5.72586 12.5281C5.72586 11.7454 5.8679 10.9881 6.10042 10.2812L6.09391 10.1306L2.46027 7.37305L2.34139 7.42831C1.55344 8.96835 1.10132 10.6978 1.10132 12.5281C1.10132 14.3585 1.55344 16.0878 2.34139 17.6278L6.11333 14.775" fill="black"/>
<path d="M12.7272 5.56031C14.9102 5.56031 16.3828 6.48179 17.2225 7.25186L20.5036 4.1213C18.4885 2.29095 15.8661 1.16748 12.7272 1.16748C8.18009 1.16748 4.25311 3.71734 2.34131 7.42851L6.10034 10.2814C7.04342 7.54217 9.65277 5.56031 12.7272 5.56031" fill="black"/>
</g>
<defs>
<clipPath id="clip0_190_3517">
<rect width="22.8" height="22.8" fill="white" transform="translate(1.1001 1.16748)"/>
</clipPath>
</defs>
</svg>
