<svg width="24" height="24" viewBox="0 0 24 24" fill="none" xmlns="http://www.w3.org/2000/svg">
<g clip-path="url(#clip0_159_2790)">
<path d="M17.3915 7.72991H16.4252V5.79746C16.4252 3.13066 14.2609 0.966309 11.5941 0.966309C8.9273 0.966309 6.76295 3.13066 6.76295 5.79746V7.72991H5.79672C4.73386 7.72991 3.86426 8.59952 3.86426 9.66237V19.3247C3.86426 20.3875 4.73386 21.2571 5.79672 21.2571H17.3915C18.4543 21.2571 19.3239 20.3875 19.3239 19.3247V9.66237C19.3239 8.59952 18.4543 7.72991 17.3915 7.72991ZM11.5941 16.426C10.5312 16.426 9.66163 15.5564 9.66163 14.4935C9.66163 13.4307 10.5312 12.5611 11.5941 12.5611C12.6569 12.5611 13.5266 13.4307 13.5266 14.4935C13.5266 15.5564 12.6569 16.426 11.5941 16.426ZM14.5894 7.72991H8.59878V5.79746C8.59878 4.1452 9.94184 2.80214 11.5941 2.80214C13.2463 2.80214 14.5894 4.1452 14.5894 5.79746V7.72991Z" fill="black" fill-opacity="0.6"/>
</g>
<defs>
<clipPath id="clip0_159_2790">
<rect width="23.1895" height="23.1895" fill="white"/>
</clipPath>
</defs>
</svg>
