<svg width="24" height="25" viewBox="0 0 24 25" fill="none" xmlns="http://www.w3.org/2000/svg">
<path d="M18 8.28861H17V6.29264C17 3.53821 14.76 1.30273 12 1.30273C9.24 1.30273 7 3.53821 7 6.29264V8.28861H6C4.9 8.28861 4 9.18679 4 10.2846V20.2644C4 21.3622 4.9 22.2604 6 22.2604H18C19.1 22.2604 20 21.3622 20 20.2644V10.2846C20 9.18679 19.1 8.28861 18 8.28861ZM12 17.2704C10.9 17.2704 10 16.3723 10 15.2745C10 14.1767 10.9 13.2785 12 13.2785C13.1 13.2785 14 14.1767 14 15.2745C14 16.3723 13.1 17.2704 12 17.2704ZM15.1 8.28861H8.9V6.29264C8.9 4.58609 10.29 3.1989 12 3.1989C13.71 3.1989 15.1 4.58609 15.1 6.29264V8.28861Z" fill="black" fill-opacity="0.6"/>
</svg>
