<svg width="24" height="24" viewBox="0 0 24 24" fill="none" xmlns="http://www.w3.org/2000/svg">
<g clip-path="url(#clip0_159_2797)">
<path d="M17.3915 7.72967H16.4252V5.79721C16.4252 3.13042 14.2609 0.966064 11.5941 0.966064C8.9273 0.966064 6.76295 3.13042 6.76295 5.79721V7.72967H5.79672C4.73386 7.72967 3.86426 8.59928 3.86426 9.66213V19.3244C3.86426 20.3873 4.73386 21.2569 5.79672 21.2569H17.3915C18.4543 21.2569 19.3239 20.3873 19.3239 19.3244V9.66213C19.3239 8.59928 18.4543 7.72967 17.3915 7.72967ZM11.5941 16.4257C10.5312 16.4257 9.66163 15.5561 9.66163 14.4933C9.66163 13.4304 10.5312 12.5608 11.5941 12.5608C12.6569 12.5608 13.5266 13.4304 13.5266 14.4933C13.5266 15.5561 12.6569 16.4257 11.5941 16.4257ZM14.5894 7.72967H8.59878V5.79721C8.59878 4.14496 9.94184 2.8019 11.5941 2.8019C13.2463 2.8019 14.5894 4.14496 14.5894 5.79721V7.72967Z" fill="black" fill-opacity="0.6"/>
</g>
<defs>
<clipPath id="clip0_159_2797">
<rect width="23.1895" height="23.1895" fill="white"/>
</clipPath>
</defs>
</svg>
