<svg width="24" height="24" viewBox="0 0 24 24" fill="none" xmlns="http://www.w3.org/2000/svg">
<path d="M6.45428 3.20816L7.04684 2.6156C7.42418 2.23826 8.03596 2.23826 8.4133 2.6156L10.9118 5.11406C11.2891 5.4914 11.2891 6.10318 10.9118 6.48052L9.17988 8.2124C8.89109 8.50119 8.8195 8.94237 9.00214 9.30766C10.058 11.4194 11.7703 13.1317 13.882 14.1875C14.2473 14.3702 14.6885 14.2986 14.9773 14.0098L16.7091 12.2779C17.0865 11.9006 17.6983 11.9006 18.0756 12.2779L20.5741 14.7764C20.9514 15.1537 20.9514 15.7655 20.5741 16.1428L19.9815 16.7354C17.9414 18.7754 14.7118 19.0049 12.4037 17.2739L11.2361 16.3982C9.55145 15.1347 8.05494 13.6382 6.79145 11.9536L5.91575 10.7859C4.18471 8.4779 4.41423 5.24821 6.45428 3.20816Z" fill="#666666"/>
</svg>
