<svg width="14" height="18" viewBox="0 0 14 18" fill="none" xmlns="http://www.w3.org/2000/svg">
<path d="M12.0872 5.83333H11.2721V4.16667C11.2721 1.86667 9.44636 0 7.19679 0C4.94721 0 3.12146 1.86667 3.12146 4.16667V5.83333H2.3064C1.40983 5.83333 0.67627 6.58333 0.67627 7.5V15.8333C0.67627 16.75 1.40983 17.5 2.3064 17.5H12.0872C12.9837 17.5 13.7173 16.75 13.7173 15.8333V7.5C13.7173 6.58333 12.9837 5.83333 12.0872 5.83333ZM7.19679 13.3333C6.30022 13.3333 5.56666 12.5833 5.56666 11.6667C5.56666 10.75 6.30022 10 7.19679 10C8.09336 10 8.82692 10.75 8.82692 11.6667C8.82692 12.5833 8.09336 13.3333 7.19679 13.3333ZM9.72349 5.83333H4.67009V4.16667C4.67009 2.74167 5.80303 1.58333 7.19679 1.58333C8.59055 1.58333 9.72349 2.74167 9.72349 4.16667V5.83333Z" fill="#606060"/>
</svg>
