<svg width="67" height="11" viewBox="0 0 67 11" fill="none" xmlns="http://www.w3.org/2000/svg">
<path d="M5.5 0L6.73483 3.80041H10.7308L7.49799 6.14919L8.73282 9.94959L5.5 7.60081L2.26718 9.94959L3.50201 6.14919L0.269189 3.80041H4.26517L5.5 0Z" fill="#FB5607"/>
<path d="M61.5 0L62.7348 3.80041H66.7308L63.498 6.14919L64.7328 9.94959L61.5 7.60081L58.2672 9.94959L59.502 6.14919L56.2692 3.80041H60.2652L61.5 0Z" fill="white"/>
<path d="M47.5 0L48.7348 3.80041H52.7308L49.498 6.14919L50.7328 9.94959L47.5 7.60081L44.2672 9.94959L45.502 6.14919L42.2692 3.80041H46.2652L47.5 0Z" fill="#FB5607"/>
<path d="M33.5 0L34.7348 3.80041H38.7308L35.498 6.14919L36.7328 9.94959L33.5 7.60081L30.2672 9.94959L31.502 6.14919L28.2692 3.80041H32.2652L33.5 0Z" fill="#FB5607"/>
<path d="M19.5 0L20.7348 3.80041H24.7308L21.498 6.14919L22.7328 9.94959L19.5 7.60081L16.2672 9.94959L17.502 6.14919L14.2692 3.80041H18.2652L19.5 0Z" fill="#FB5607"/>
</svg>
