<svg width="24" height="24" viewBox="0 0 24 24" fill="none" xmlns="http://www.w3.org/2000/svg">
<g clip-path="url(#clip0_514_2674)">
<path d="M3.08192 0.717141C2.30171 0.888087 1.55656 1.47106 1.20151 2.18991C0.868388 2.86493 0.885921 2.33455 0.890304 10.3822C0.890304 16.0234 0.903454 17.6277 0.947286 17.7416C1.0744 18.0967 1.49957 18.2676 1.85462 18.1054C1.95981 18.0572 2.94604 17.2682 4.05062 16.3478L6.04937 14.6777H11.3268C17.2222 14.6777 16.9154 14.6909 17.5817 14.3621C18.3093 14.0027 18.8835 13.262 19.0544 12.4598C19.1509 12.0084 19.1509 3.32078 19.0544 2.86931C18.8353 1.82172 17.9498 0.936303 16.9023 0.717141C16.4639 0.625093 3.51148 0.625093 3.08192 0.717141ZM16.8891 2.18991C17.2003 2.33455 17.437 2.57125 17.5817 2.88246L17.6956 3.12792V7.66457V12.2012L17.5817 12.4467C17.437 12.7579 17.2003 12.9946 16.8891 13.1392L16.6436 13.2532L11.1208 13.2751C6.0669 13.297 5.58475 13.3014 5.4664 13.3715C5.39627 13.411 4.65989 14.0071 3.83584 14.6953C3.00741 15.3834 2.32362 15.9489 2.31047 15.9489C2.29732 15.9489 2.28856 13.1042 2.28856 9.62387C2.28856 2.68521 2.27541 3.0797 2.55155 2.65891C2.70935 2.42222 2.95042 2.24251 3.26602 2.13731C3.4808 2.05841 3.83145 2.05841 10.0688 2.06718L16.6436 2.07594L16.8891 2.18991Z" fill="#FB5607"/>
<path d="M5.50918 4.92019C5.2155 5.04731 5.04894 5.38482 5.1103 5.71356C5.14975 5.91957 5.36892 6.16065 5.56616 6.21763C5.67574 6.2527 7.11344 6.26146 10.0984 6.2527C14.4334 6.23955 14.4685 6.23955 14.5869 6.1475C14.8192 5.97655 14.8893 5.83629 14.8893 5.56015C14.8893 5.284 14.8192 5.14374 14.5869 4.97279C14.4685 4.88075 14.4334 4.88075 10.0546 4.87198C6.45157 4.86321 5.61438 4.87198 5.50918 4.92019Z" fill="#FB5607"/>
<path d="M5.50918 7.72586C5.2155 7.85297 5.04894 8.19048 5.1103 8.51922C5.14975 8.72524 5.36892 8.96631 5.56616 9.0233C5.67574 9.05836 6.69265 9.06713 8.69579 9.05836C11.6106 9.04521 11.6632 9.04521 11.7816 8.95316C12.0139 8.78222 12.084 8.64195 12.084 8.36581C12.084 8.08967 12.0139 7.9494 11.7816 7.77846C11.6632 7.68641 11.615 7.68641 8.65196 7.67764C6.21488 7.66888 5.61438 7.67764 5.50918 7.72586Z" fill="#FB5607"/>
<path d="M20.2372 6.32314C20.1627 6.35383 20.0487 6.44587 19.9829 6.52039C19.606 6.96748 19.9391 7.66441 20.5352 7.66441C20.9385 7.66441 21.4382 7.93617 21.6617 8.2693C21.9379 8.69009 21.9247 8.32628 21.9159 14.9143L21.9028 20.9105L20.693 19.9462C20.0268 19.4202 19.4438 18.9688 19.4 18.9469C19.3518 18.9249 17.0944 18.8986 14.1445 18.8855L8.97225 18.8636L8.72679 18.7496C8.41558 18.6006 8.17889 18.3683 8.03863 18.0571C7.93781 17.8379 7.92028 17.7371 7.89836 17.1673C7.87645 16.4703 7.85015 16.4002 7.574 16.1942C7.40306 16.0671 6.99103 16.0671 6.82009 16.1942C6.54394 16.3958 6.51764 16.4747 6.50449 17.1234C6.48696 17.8642 6.55709 18.2324 6.81132 18.7496C7.06993 19.2712 7.51264 19.7139 8.03424 19.9725C8.69611 20.3013 8.43312 20.2881 13.9428 20.2881H18.8696L20.4958 21.5899C21.39 22.3088 22.2096 22.94 22.3192 22.997C22.569 23.1285 22.8233 23.1109 23.0424 22.9444C23.3493 22.7077 23.3273 23.2424 23.3273 15.6463C23.3273 7.98439 23.3449 8.47531 23.0118 7.80029C22.6523 7.07268 21.9116 6.49847 21.1094 6.32753C20.7369 6.24863 20.4125 6.24863 20.2372 6.32314Z" fill="#FB5607"/>
</g>
<defs>
<clipPath id="clip0_514_2674">
<rect width="22.4422" height="22.4422" fill="white" transform="translate(0.884766 0.651367)"/>
</clipPath>
</defs>
</svg>
