<svg width="24" height="23" viewBox="0 0 24 23" fill="none" xmlns="http://www.w3.org/2000/svg">
<g clip-path="url(#clip0_141_2571)">
<path d="M3.08192 0.0784683C2.30171 0.249414 1.55656 0.832386 1.20151 1.55124C0.868388 2.22625 0.885921 1.69588 0.890304 9.7435C0.890304 15.3847 0.903454 16.989 0.947286 17.1029C1.0744 17.458 1.49957 17.6289 1.85462 17.4668C1.95981 17.4185 2.94604 16.6296 4.05062 15.7091L6.04937 14.0391H11.3268C17.2222 14.0391 16.9154 14.0522 17.5817 13.7235C18.3093 13.364 18.8835 12.6233 19.0544 11.8212C19.1509 11.3697 19.1509 2.68211 19.0544 2.23064C18.8353 1.18304 17.9499 0.29763 16.9023 0.0784683C16.4639 -0.0135784 3.51148 -0.0135784 3.08192 0.0784683ZM16.8891 1.55124C17.2003 1.69588 17.437 1.93258 17.5817 2.24379L17.6956 2.48925V7.02589V11.5625L17.5817 11.808C17.437 12.1192 17.2003 12.3559 16.8891 12.5006L16.6436 12.6145L11.1208 12.6364C6.0669 12.6583 5.58475 12.6627 5.4664 12.7329C5.39627 12.7723 4.65989 13.3684 3.83584 14.0566C3.00741 14.7448 2.32362 15.3102 2.31047 15.3102C2.29732 15.3102 2.28856 12.4655 2.28856 8.9852C2.28856 2.04654 2.27541 2.44103 2.55155 2.02024C2.70935 1.78355 2.95042 1.60383 3.26602 1.49864C3.4808 1.41974 3.83145 1.41974 10.0688 1.4285L16.6436 1.43727L16.8891 1.55124Z" fill="black" fill-opacity="0.7"/>
<path d="M5.50918 4.28152C5.2155 4.40864 5.04894 4.74615 5.1103 5.07489C5.14975 5.2809 5.36892 5.52198 5.56616 5.57896C5.67574 5.61403 7.11344 5.62279 10.0984 5.61403C14.4334 5.60088 14.4685 5.60088 14.5869 5.50883C14.8192 5.33788 14.8893 5.19762 14.8893 4.92147C14.8893 4.64533 14.8192 4.50507 14.5869 4.33412C14.4685 4.24207 14.4334 4.24207 10.0546 4.23331C6.45157 4.22454 5.61438 4.23331 5.50918 4.28152Z" fill="black" fill-opacity="0.7"/>
<path d="M5.50918 7.08767C5.2155 7.21479 5.04894 7.5523 5.1103 7.88104C5.14975 8.08705 5.36892 8.32813 5.56616 8.38511C5.67574 8.42018 6.69265 8.42894 8.69579 8.42018C11.6106 8.40703 11.6632 8.40703 11.7816 8.31498C12.0139 8.14403 12.084 8.00377 12.084 7.72763C12.084 7.45148 12.0139 7.31122 11.7816 7.14027C11.6632 7.04823 11.615 7.04823 8.65196 7.03946C6.21488 7.03069 5.61438 7.03946 5.50918 7.08767Z" fill="black" fill-opacity="0.7"/>
<path d="M20.2372 5.68447C20.1627 5.71515 20.0487 5.8072 19.9829 5.88172C19.606 6.32881 19.9391 7.02574 20.5352 7.02574C20.9385 7.02574 21.4382 7.2975 21.6617 7.63063C21.9379 8.05142 21.9247 7.68761 21.9159 14.2756L21.9028 20.2719L20.693 19.3076C20.0268 18.7816 19.4438 18.3301 19.4 18.3082C19.3518 18.2863 17.0944 18.26 14.1445 18.2468L8.97225 18.2249L8.72679 18.1109C8.41558 17.9619 8.17889 17.7296 8.03863 17.4184C7.93781 17.1992 7.92028 17.0984 7.89836 16.5286C7.87645 15.8317 7.85015 15.7615 7.574 15.5555C7.40306 15.4284 6.99103 15.4284 6.82009 15.5555C6.54394 15.7571 6.51764 15.836 6.50449 16.4848C6.48696 17.2255 6.55709 17.5937 6.81132 18.1109C7.06993 18.6325 7.51264 19.0753 8.03424 19.3339C8.69611 19.6626 8.43312 19.6495 13.9428 19.6495H18.8696L20.4958 20.9513C21.39 21.6701 22.2096 22.3013 22.3192 22.3583C22.569 22.4898 22.8233 22.4723 23.0424 22.3057C23.3493 22.069 23.3273 22.6038 23.3273 15.0076C23.3273 7.34572 23.3449 7.83664 23.0118 7.16162C22.6523 6.43401 21.9116 5.8598 21.1094 5.68886C20.7369 5.60996 20.4125 5.60996 20.2372 5.68447Z" fill="black" fill-opacity="0.7"/>
</g>
<defs>
<clipPath id="clip0_141_2571">
<rect width="22.4422" height="22.4422" fill="white" transform="translate(0.884766 0.012207)"/>
</clipPath>
</defs>
</svg>
