<svg width="24" height="24" viewBox="0 0 24 24" fill="none" xmlns="http://www.w3.org/2000/svg">
<g clip-path="url(#clip0_141_2586)">
<path d="M2.46735 1.03746C1.71344 1.18649 1.07348 1.83521 0.928836 2.60666C0.867471 2.93102 0.867471 21.4896 0.928836 21.814C1.07787 22.603 1.71344 23.2385 2.50242 23.3876C2.82678 23.4489 16.0378 23.4489 16.3622 23.3876C17.1512 23.2385 17.7868 22.603 17.9358 21.814C17.9621 21.6693 17.9796 20.442 17.9796 18.5923V15.6117L20.4912 13.087C22.8143 10.7551 23.0116 10.5447 23.1255 10.2905C23.3798 9.7075 23.3754 9.15521 23.1124 8.58977C22.7617 7.84462 21.8719 7.37123 21.0698 7.50711C20.4561 7.61231 20.3071 7.72189 19.0886 8.93605L17.9796 10.0362V7.35808C17.9796 5.75382 17.9621 4.58788 17.9358 4.44762C17.835 3.89971 17.7079 3.73315 16.4718 2.49708C15.2357 1.26101 15.0691 1.13389 14.5212 1.03308C14.2276 0.980478 2.74788 0.980478 2.46735 1.03746ZM12.7197 4.01806C12.7197 5.71437 12.7197 5.73629 12.8162 5.90723C13.009 6.24912 13.0134 6.24912 14.9552 6.24912H16.6646V8.80455V11.3556L15.1743 12.8459L13.684 14.3362L13.18 15.8528C12.9038 16.6856 12.6759 17.4264 12.6759 17.4965C12.6803 17.7989 13.009 18.1277 13.3115 18.1277C13.5219 18.1277 16.4411 17.1371 16.5638 17.0275L16.6646 16.9311V19.2629C16.6646 21.5115 16.6603 21.5992 16.577 21.7658C16.52 21.8797 16.4279 21.9718 16.314 22.0288C16.143 22.1164 16.0685 22.1164 9.43231 22.1164C2.93197 22.1164 2.7172 22.112 2.5594 22.0332C2.46297 21.9849 2.35777 21.8797 2.29641 21.7745L2.19997 21.5992V12.2059V2.80829L2.30517 2.63734C2.51995 2.2823 2.08163 2.3086 7.71408 2.30421H12.7197V4.01806ZM14.3722 2.34805C14.5344 2.40941 16.5244 4.39063 16.6033 4.57035C16.6383 4.64924 16.6646 4.76321 16.6646 4.82458V4.93415H15.3497H14.0347V3.61918V2.30421H14.1399C14.2013 2.30421 14.3021 2.32613 14.3722 2.34805ZM21.6615 8.87907C21.85 8.9755 22.0122 9.22972 22.0122 9.43135C22.0122 9.64175 21.85 9.90036 21.4994 10.2466L21.1575 10.5885L20.6841 10.1151L20.2151 9.64613L20.5745 9.28671C20.7761 9.08946 20.9997 8.8966 21.0698 8.86153C21.2495 8.7651 21.4555 8.77387 21.6615 8.87907ZM18.6371 13.1089L17.0591 14.6869L16.5901 14.2135L16.1167 13.7445L17.6947 12.1665L19.2727 10.5885L19.7417 11.0575L20.2151 11.5309L18.6371 13.1089ZM15.6565 15.169L16.1167 15.6292L15.9414 15.8002C15.7924 15.9448 15.6697 16.0018 15.0911 16.1947C14.7185 16.3174 14.4073 16.4095 14.3985 16.4051C14.3941 16.3963 14.4862 16.0851 14.6089 15.7125C14.793 15.1602 14.8631 15.0068 14.9902 14.8709C15.0779 14.7833 15.1612 14.7088 15.1743 14.7088C15.1875 14.7088 15.4023 14.9148 15.6565 15.169Z" fill="black" fill-opacity="0.7"/>
<path d="M3.87067 7.64771C3.68657 7.74414 3.51562 8.02028 3.51562 8.21753C3.51562 8.42792 3.68219 8.69968 3.87505 8.79611C4.03285 8.87501 4.21256 8.87939 8.77551 8.87939C13.4349 8.87939 13.5138 8.87939 13.6847 8.79173C13.882 8.69092 14.0354 8.44107 14.0354 8.22191C14.0354 8.00275 13.882 7.7529 13.6847 7.65209C13.5138 7.56442 13.4393 7.56442 8.76674 7.56442C4.28269 7.56881 4.01093 7.57319 3.87067 7.64771Z" fill="black" fill-opacity="0.7"/>
<path d="M3.87067 10.2776C3.68657 10.374 3.51562 10.6502 3.51562 10.8474C3.51562 11.0578 3.68219 11.3296 3.87505 11.426C4.03285 11.5049 4.18626 11.5093 7.46054 11.5093C10.8049 11.5093 10.8882 11.5093 11.0548 11.4216C11.252 11.3208 11.4054 11.071 11.4054 10.8518C11.4054 10.6326 11.252 10.3828 11.0548 10.282C10.8882 10.1943 10.8049 10.1943 7.45177 10.1943C4.23009 10.1987 4.01093 10.2031 3.87067 10.2776Z" fill="black" fill-opacity="0.7"/>
<path d="M3.87067 12.9075C3.68657 13.0039 3.51562 13.28 3.51562 13.4773C3.51562 13.6877 3.68219 13.9594 3.87505 14.0559C4.03285 14.1348 4.18626 14.1392 7.46054 14.1392C10.8049 14.1392 10.8882 14.1392 11.0548 14.0515C11.252 13.9507 11.4054 13.7008 11.4054 13.4817C11.4054 13.2625 11.252 13.0127 11.0548 12.9119C10.8882 12.8242 10.8049 12.8242 7.45177 12.8242C4.23009 12.8286 4.01093 12.833 3.87067 12.9075Z" fill="black" fill-opacity="0.7"/>
<path d="M3.87067 15.5374C3.68657 15.6338 3.51562 15.9099 3.51562 16.1072C3.51562 16.3176 3.68219 16.5893 3.87505 16.6858C4.03285 16.7647 4.18626 16.769 7.46054 16.769C10.8049 16.769 10.8882 16.769 11.0548 16.6814C11.252 16.5806 11.4054 16.3307 11.4054 16.1116C11.4054 15.8924 11.252 15.6426 11.0548 15.5417C10.8882 15.4541 10.8049 15.4541 7.45177 15.4541C4.23009 15.4585 4.01093 15.4628 3.87067 15.5374Z" fill="black" fill-opacity="0.7"/>
<path d="M9.13043 19.5701C8.94634 19.6665 8.77539 19.9426 8.77539 20.1399C8.77539 20.3503 8.94195 20.622 9.13482 20.7185C9.28823 20.7974 9.42411 20.8018 11.4053 20.8018C13.4304 20.8018 13.518 20.7974 13.6846 20.7141C13.8819 20.6133 14.0353 20.3634 14.0353 20.1443C14.0353 19.9251 13.8819 19.6753 13.6846 19.5745C13.518 19.4912 13.4348 19.4868 11.3966 19.4868C9.44164 19.4912 9.26631 19.4956 9.13043 19.5701Z" fill="black" fill-opacity="0.7"/>
</g>
<defs>
<clipPath id="clip0_141_2586">
<rect width="22.4422" height="22.4422" fill="white" transform="translate(0.884766 0.989258)"/>
</clipPath>
</defs>
</svg>
