<svg width="24" height="24" viewBox="0 0 24 24" fill="none" xmlns="http://www.w3.org/2000/svg">
<g clip-path="url(#clip0_514_2697)">
<path d="M2.46735 0.677109C1.71344 0.826139 1.07348 1.47486 0.928836 2.24631C0.867471 2.57067 0.867471 21.1293 0.928836 21.4536C1.07787 22.2426 1.71344 22.8782 2.50242 23.0272C2.82678 23.0886 16.0378 23.0886 16.3622 23.0272C17.1512 22.8782 17.7868 22.2426 17.9358 21.4536C17.9621 21.309 17.9796 20.0817 17.9796 18.232V15.2514L20.4912 12.7266C22.8143 10.3947 23.0116 10.1843 23.1255 9.93012C23.3798 9.34715 23.3754 8.79486 23.1124 8.22942C22.7617 7.48427 21.8719 7.01088 21.0698 7.14676C20.4561 7.25196 20.3071 7.36154 19.0886 8.5757L17.9796 9.67589V6.99773C17.9796 5.39347 17.9621 4.22753 17.9358 4.08726C17.835 3.53936 17.7079 3.3728 16.4718 2.13673C15.2357 0.900654 15.0691 0.77354 14.5212 0.672726C14.2276 0.620127 2.74788 0.620127 2.46735 0.677109ZM12.7197 3.65771C12.7197 5.35402 12.7197 5.37594 12.8162 5.54688C13.009 5.88877 13.0134 5.88877 14.9552 5.88877H16.6646V8.4442V10.9952L15.1743 12.4855L13.684 13.9758L13.18 15.4924C12.9038 16.3253 12.6759 17.066 12.6759 17.1362C12.6803 17.4386 13.009 17.7673 13.3115 17.7673C13.5219 17.7673 16.4411 16.7767 16.5638 16.6671L16.6646 16.5707V18.9026C16.6646 21.1512 16.6603 21.2389 16.577 21.4054C16.52 21.5194 16.4279 21.6114 16.314 21.6684C16.143 21.7561 16.0685 21.7561 9.43231 21.7561C2.93197 21.7561 2.7172 21.7517 2.5594 21.6728C2.46297 21.6246 2.35777 21.5194 2.29641 21.4142L2.19997 21.2389V11.8456V2.44794L2.30517 2.27699C2.51995 1.92195 2.08163 1.94825 7.71408 1.94386H12.7197V3.65771ZM14.3722 1.9877C14.5344 2.04906 16.5244 4.03028 16.6033 4.21C16.6383 4.28889 16.6646 4.40286 16.6646 4.46422V4.5738H15.3497H14.0347V3.25883V1.94386H14.1399C14.2013 1.94386 14.3021 1.96578 14.3722 1.9877ZM21.6615 8.51871C21.85 8.61515 22.0122 8.86937 22.0122 9.071C22.0122 9.2814 21.85 9.54001 21.4994 9.88628L21.1575 10.2282L20.6841 9.75479L20.2151 9.28578L20.5745 8.92635C20.7761 8.72911 20.9997 8.53625 21.0698 8.50118C21.2495 8.40475 21.4555 8.41352 21.6615 8.51871ZM18.6371 12.7485L17.0591 14.3265L16.5901 13.8531L16.1167 13.3841L17.6947 11.8061L19.2727 10.2282L19.7417 10.6972L20.2151 11.1706L18.6371 12.7485ZM15.6565 14.8087L16.1167 15.2689L15.9414 15.4398C15.7924 15.5845 15.6697 15.6415 15.0911 15.8343C14.7185 15.9571 14.4073 16.0491 14.3985 16.0447C14.3941 16.036 14.4862 15.7248 14.6089 15.3522C14.793 14.7999 14.8631 14.6465 14.9902 14.5106C15.0779 14.4229 15.1612 14.3484 15.1743 14.3484C15.1875 14.3484 15.4023 14.5544 15.6565 14.8087Z" fill="#FB5607"/>
<path d="M3.87067 7.28687C3.68657 7.3833 3.51562 7.65944 3.51562 7.85669C3.51562 8.06708 3.68219 8.33884 3.87505 8.43527C4.03285 8.51417 4.21256 8.51855 8.77551 8.51855C13.4349 8.51855 13.5138 8.51855 13.6847 8.43089C13.882 8.33008 14.0354 8.08023 14.0354 7.86107C14.0354 7.64191 13.882 7.39206 13.6847 7.29125C13.5138 7.20358 13.4393 7.20358 8.76674 7.20358C4.28269 7.20797 4.01093 7.21235 3.87067 7.28687Z" fill="#FB5607"/>
<path d="M3.87067 9.91675C3.68657 10.0132 3.51562 10.2893 3.51562 10.4866C3.51562 10.697 3.68219 10.9687 3.87505 11.0652C4.03285 11.1441 4.18626 11.1484 7.46054 11.1484C10.8049 11.1484 10.8882 11.1484 11.0548 11.0608C11.252 10.96 11.4054 10.7101 11.4054 10.491C11.4054 10.2718 11.252 10.0219 11.0548 9.92113C10.8882 9.83347 10.8049 9.83347 7.45177 9.83347C4.23009 9.83785 4.01093 9.84223 3.87067 9.91675Z" fill="#FB5607"/>
<path d="M3.87067 12.5466C3.68657 12.6431 3.51562 12.9192 3.51562 13.1165C3.51562 13.3268 3.68219 13.5986 3.87505 13.695C4.03285 13.7739 4.18626 13.7783 7.46054 13.7783C10.8049 13.7783 10.8882 13.7783 11.0548 13.6907C11.252 13.5898 11.4054 13.34 11.4054 13.1208C11.4054 12.9017 11.252 12.6518 11.0548 12.551C10.8882 12.4634 10.8049 12.4634 7.45177 12.4634C4.23009 12.4677 4.01093 12.4721 3.87067 12.5466Z" fill="#FB5607"/>
<path d="M3.87067 15.1775C3.68657 15.2739 3.51562 15.5501 3.51562 15.7473C3.51562 15.9577 3.68219 16.2295 3.87505 16.3259C4.03285 16.4048 4.18626 16.4092 7.46054 16.4092C10.8049 16.4092 10.8882 16.4092 11.0548 16.3215C11.252 16.2207 11.4054 15.9709 11.4054 15.7517C11.4054 15.5325 11.252 15.2827 11.0548 15.1819C10.8882 15.0942 10.8049 15.0942 7.45177 15.0942C4.23009 15.0986 4.01093 15.103 3.87067 15.1775Z" fill="#FB5607"/>
<path d="M9.13043 19.2097C8.94634 19.3061 8.77539 19.5823 8.77539 19.7795C8.77539 19.9899 8.94195 20.2617 9.13482 20.3581C9.28823 20.437 9.42411 20.4414 11.4053 20.4414C13.4304 20.4414 13.518 20.437 13.6846 20.3537C13.8819 20.2529 14.0353 20.0031 14.0353 19.7839C14.0353 19.5648 13.8819 19.3149 13.6846 19.2141C13.518 19.1308 13.4348 19.1264 11.3966 19.1264C9.44164 19.1308 9.26631 19.1352 9.13043 19.2097Z" fill="#FB5607"/>
</g>
<defs>
<clipPath id="clip0_514_2697">
<rect width="22.4422" height="22.4422" fill="white" transform="translate(0.884766 0.628906)"/>
</clipPath>
</defs>
</svg>
