<svg width="24" height="23" viewBox="0 0 24 23" fill="none" xmlns="http://www.w3.org/2000/svg">
<g clip-path="url(#clip0_514_2656)">
<path d="M2.27045 0.551647C1.77515 0.669994 1.28861 1.08202 1.04753 1.59047L0.907265 1.88415L0.894119 5.51785C0.88097 9.48468 0.880973 9.44523 1.1352 9.87917C1.30615 10.1685 1.61736 10.449 1.93733 10.6024L2.22224 10.7383H6.03565H9.84907L10.1121 10.6112C10.4496 10.4446 10.8265 10.0676 10.9931 9.73014L11.1202 9.46714V5.65373V1.84032L10.9799 1.54664C10.7476 1.05572 10.3312 0.709443 9.80524 0.573563C9.58169 0.512197 9.07323 0.503431 5.99182 0.507814C4.02813 0.512198 2.36689 0.529731 2.27045 0.551647Z" fill="#FB5607"/>
<path d="M-62.6231 -0.71949C-63.1185 -0.601143 -63.605 -0.189119 -63.8461 0.319336L-63.9863 0.613012L-63.9995 4.24671C-64.0126 8.21354 -64.0126 8.17409 -63.7584 8.60803C-63.5875 8.89732 -63.2763 9.17785 -62.9563 9.33126L-62.6714 9.46714H-58.858H-55.0445L-54.7815 9.34003C-54.444 9.17347 -54.0671 8.79651 -53.9005 8.459L-53.7734 8.19601V4.38259V0.56918L-53.9137 0.275503C-54.146 -0.215419 -54.5624 -0.561694 -55.0884 -0.697575C-55.3119 -0.75894 -55.8204 -0.767706 -58.9018 -0.763323C-60.8655 -0.75894 -62.5267 -0.741406 -62.6231 -0.71949Z" fill="#FB5607"/>
<path d="M14.3849 0.573563C13.8808 0.709443 13.46 1.06449 13.2321 1.54664L13.0918 1.84032V5.65373V9.46714L13.2189 9.73014C13.3855 10.0676 13.7624 10.4446 14.0999 10.6112L14.3629 10.7383H18.1763H21.9898L22.2834 10.598C22.7787 10.3657 23.125 9.94492 23.2609 9.41454C23.3223 9.18223 23.3266 8.69569 23.3179 5.51347L23.3047 1.87977L23.1382 1.54664C22.8839 1.02942 22.4412 0.669994 21.9152 0.547264C21.7969 0.520964 20.368 0.507815 18.1763 0.507815C15.1914 0.507815 14.5865 0.520964 14.3849 0.573563Z" fill="#FB5607"/>
<path d="M2.17835 12.7504C1.55154 12.952 1.10884 13.4122 0.951041 14.0346C0.889676 14.267 0.885292 14.7535 0.894059 17.9313L0.907209 21.565L1.04747 21.8587C1.24033 22.2707 1.52524 22.56 1.93289 22.7617L2.26163 22.9238L5.89533 22.937C9.07756 22.9458 9.56409 22.9414 9.79641 22.88C10.3268 22.7441 10.7476 22.3979 10.9799 21.9026L11.1201 21.6089V17.7955V13.982L10.993 13.7191C10.8265 13.3815 10.4495 13.0046 10.112 12.838L9.849 12.7109L6.10134 12.7021C3.16019 12.6978 2.31423 12.7065 2.17835 12.7504Z" fill="#FB5607"/>
<path d="M14.2665 12.7723C13.8106 12.9388 13.4381 13.2807 13.2101 13.741L13.0918 13.982V17.7955V21.6089L13.2321 21.9026C13.4644 22.3979 13.8852 22.7441 14.4155 22.88C14.6478 22.9414 15.1344 22.9458 18.3166 22.937L21.9503 22.9238L22.2791 22.7617C22.6867 22.56 22.9716 22.2707 23.1645 21.8587L23.3047 21.565L23.3179 17.9313C23.3266 14.7535 23.3223 14.267 23.2609 14.0346C23.125 13.5043 22.7787 13.0835 22.2834 12.8512L21.9898 12.7109L18.2421 12.7021C14.6741 12.6934 14.4857 12.6934 14.2665 12.7723Z" fill="#FB5607"/>
</g>
<defs>
<clipPath id="clip0_514_2656">
<rect width="22.4422" height="22.4422" fill="white" transform="translate(0.884766 0.503906)"/>
</clipPath>
</defs>
</svg>
