<svg width="24" height="24" viewBox="0 0 24 24" fill="none" xmlns="http://www.w3.org/2000/svg">
<g clip-path="url(#clip0_141_2553)">
<path d="M2.26943 0.911999C1.77412 1.03035 1.28758 1.44237 1.04651 1.95082L0.906243 2.2445L0.893093 5.8782C0.879944 9.84503 0.879944 9.80558 1.13417 10.2395C1.30512 10.5288 1.61633 10.8093 1.9363 10.9628L2.22121 11.0986H6.03463H9.84804L10.111 10.9715C10.4485 10.805 10.8255 10.428 10.9921 10.0905L11.1192 9.8275V6.01408V2.20067L10.9789 1.90699C10.7466 1.41607 10.3302 1.06979 9.80421 0.933914C9.58066 0.872549 9.07221 0.863783 5.99079 0.868166C4.02711 0.872549 2.36586 0.890082 2.26943 0.911999Z" fill="black" fill-opacity="0.7"/>
<path d="M14.3849 0.933914C13.8808 1.06979 13.46 1.42484 13.2321 1.90699L13.0918 2.20067V6.01408V9.8275L13.2189 10.0905C13.3855 10.428 13.7624 10.805 14.0999 10.9715L14.3629 11.0986H18.1763H21.9898L22.2834 10.9584C22.7787 10.7261 23.125 10.3053 23.2609 9.7749C23.3223 9.54259 23.3266 9.05605 23.3179 5.87382L23.3047 2.24012L23.1382 1.90699C22.8839 1.38977 22.4412 1.03035 21.9152 0.907616C21.7969 0.881316 20.368 0.868166 18.1763 0.868166C15.1914 0.868166 14.5865 0.881316 14.3849 0.933914Z" fill="black" fill-opacity="0.7"/>
<path d="M2.17835 13.1107C1.55154 13.3123 1.10884 13.7726 0.951041 14.395C0.889676 14.6273 0.885292 15.1139 0.894059 18.2917L0.907209 21.9254L1.04747 22.2191C1.24033 22.6311 1.52524 22.9204 1.93289 23.122L2.26163 23.2842L5.89533 23.2973C9.07756 23.3061 9.56409 23.3017 9.79641 23.2404C10.3268 23.1045 10.7476 22.7582 10.9799 22.2629L11.1201 21.9692V18.1558V14.3424L10.993 14.0794C10.8265 13.7419 10.4495 13.3649 10.112 13.1984L9.849 13.0713L6.10134 13.0625C3.16019 13.0581 2.31423 13.0669 2.17835 13.1107Z" fill="black" fill-opacity="0.7"/>
<path d="M14.2665 13.1326C13.8106 13.2992 13.4381 13.6411 13.2101 14.1013L13.0918 14.3424V18.1558V21.9692L13.2321 22.2629C13.4644 22.7582 13.8852 23.1045 14.4155 23.2404C14.6478 23.3017 15.1344 23.3061 18.3166 23.2973L21.9503 23.2842L22.2791 23.122C22.6867 22.9204 22.9716 22.6311 23.1645 22.2191L23.3047 21.9254L23.3179 18.2917C23.3266 15.1139 23.3223 14.6273 23.2609 14.395C23.125 13.8646 22.7787 13.4438 22.2834 13.2115L21.9898 13.0713L18.2421 13.0625C14.6741 13.0537 14.4857 13.0537 14.2665 13.1326Z" fill="black" fill-opacity="0.7"/>
</g>
<defs>
<clipPath id="clip0_141_2553">
<rect width="22.4422" height="22.4422" fill="white" transform="translate(0.884766 0.864258)"/>
</clipPath>
</defs>
</svg>
