<svg width="24" height="23" viewBox="0 0 24 23" fill="none" xmlns="http://www.w3.org/2000/svg">
<g clip-path="url(#clip0_514_2682)">
<path d="M3.20391 3.93516C2.98912 4.08419 2.88392 4.31213 2.91022 4.5839C2.93652 4.85129 3.0461 5.00471 3.29596 5.13183L3.48883 5.23265H9.09083H14.6928V7.81448V10.3919L14.7893 10.5366C14.8462 10.6155 14.9471 10.7251 15.0128 10.7733C15.1356 10.8653 15.175 10.8653 18.0155 10.8785L20.8954 10.8916L21.4082 11.5579L21.9255 12.2242V14.0302V15.8405H21.2504H20.5754L20.4833 15.5643C20.2378 14.8323 19.5146 14.1222 18.7475 13.868C17.2878 13.3814 15.6616 14.166 15.1794 15.5863L15.1005 15.8186H13.0096H10.9187L10.796 15.503C10.5505 14.8805 10.0815 14.3633 9.47657 14.0477C9.05138 13.8241 8.67002 13.7277 8.20538 13.7277C7.71005 13.7233 7.3813 13.7978 6.95611 13.9995C6.26791 14.3326 5.70683 14.9507 5.50081 15.6082L5.43068 15.8361L4.41811 15.8493C3.30472 15.8624 3.22582 15.88 3.01542 16.1605C2.87953 16.3446 2.88392 16.7742 3.02419 16.9714C3.22144 17.2476 3.29596 17.2651 4.42249 17.2783L5.43506 17.2958L5.5315 17.55C5.7419 18.1067 6.30298 18.7467 6.83337 19.0316C7.39883 19.3297 8.23168 19.4349 8.84097 19.2815C9.73081 19.0579 10.476 18.4004 10.796 17.5632L10.9012 17.287H13.0096H15.1136L15.1925 17.5281C15.2934 17.8525 15.6484 18.3741 15.9553 18.6459C16.2402 18.9001 16.8714 19.2289 17.2264 19.299C17.5946 19.3735 18.1864 19.356 18.5721 19.2596C19.3962 19.0492 20.1239 18.4048 20.4482 17.5939L20.5622 17.3089L21.6931 17.287C22.7758 17.2651 22.8328 17.2607 22.9862 17.1643C23.0783 17.1073 23.1835 16.989 23.2361 16.875C23.3238 16.6953 23.3282 16.6295 23.3282 14.3019C23.3282 12.8729 23.3106 11.856 23.2843 11.7639C23.258 11.6763 22.9468 11.2335 22.5567 10.7338L21.8729 9.85715L20.8208 7.75311C20.2422 6.59589 19.7206 5.58332 19.6592 5.50003C19.4576 5.23703 19.4181 5.23265 17.6779 5.23265H16.1043L16.0868 4.75485C16.0736 4.22446 16.0298 4.12364 15.7448 3.92639L15.6002 3.82995H9.48095H3.36171L3.20391 3.93516ZM19.3831 8.03803C19.7688 8.80951 20.0844 9.44949 20.0844 9.46264C20.0844 9.47579 19.1858 9.48456 18.09 9.48456H16.0955V8.05995V6.63534H17.3886H18.6817L19.3831 8.03803ZM8.6744 15.2312C9.00754 15.3583 9.30123 15.6389 9.45465 15.9808C9.55985 16.2175 9.573 16.2832 9.55547 16.6032C9.52917 17.0372 9.39767 17.3265 9.0996 17.5851C8.45962 18.1506 7.47335 18.0278 7.01309 17.3221C6.61858 16.7216 6.6931 16.0246 7.20596 15.5249C7.5917 15.1523 8.15278 15.0383 8.6744 15.2312ZM18.4363 15.2663C19.3086 15.6915 19.5102 16.8706 18.822 17.5369C18.1426 18.1988 17.016 18.0191 16.5908 17.1862C16.192 16.3928 16.5908 15.4591 17.4544 15.1786C17.6735 15.1085 18.2083 15.1567 18.4363 15.2663Z" fill="#FB5607"/>
<path d="M2.43693 6.78483C2.16954 6.90318 1.9942 7.25824 2.06434 7.56069C2.11694 7.79301 2.23091 7.93767 2.43693 8.03849C2.62541 8.12615 2.66925 8.12615 5.82969 8.11739C8.99889 8.10424 9.03396 8.10424 9.1567 8.01219C9.22245 7.96397 9.32327 7.85438 9.38025 7.77548C9.58189 7.47741 9.45915 7.004 9.12601 6.81551C8.96383 6.72346 8.94191 6.72346 5.76832 6.72346C3.19087 6.72785 2.54651 6.73661 2.43693 6.78483Z" fill="#FB5607"/>
<path d="M1.28013 9.58144C1.01274 9.71732 0.876859 9.95841 0.898776 10.2433C0.920693 10.48 1.01713 10.6422 1.2363 10.7869L1.38095 10.8877H4.61153H7.8421L7.98675 10.7869C8.19716 10.6466 8.30236 10.4844 8.32428 10.2696C8.35058 9.9891 8.20154 9.71294 7.94292 9.58144L7.75005 9.485H4.61153H1.473L1.28013 9.58144Z" fill="#FB5607"/>
<path d="M2.38932 12.3774C2.01673 12.6053 1.93783 13.1269 2.23152 13.4381C2.46822 13.6924 2.47699 13.6924 4.38377 13.6924C6.12837 13.6924 6.13275 13.6924 6.32562 13.5916C6.71136 13.3855 6.82533 12.8727 6.55356 12.5527C6.33001 12.2853 6.36507 12.2897 4.36185 12.2897C2.62164 12.2897 2.52082 12.2941 2.38932 12.3774Z" fill="#FB5607"/>
</g>
<defs>
<clipPath id="clip0_514_2682">
<rect width="22.4431" height="22.4431" fill="white" transform="translate(0.884766 0.367188)"/>
</clipPath>
</defs>
</svg>
