<svg width="24" height="24" viewBox="0 0 24 24" fill="none" xmlns="http://www.w3.org/2000/svg">
<g clip-path="url(#clip0_141_4185)">
<path d="M3.20391 4.296C2.98912 4.44503 2.88392 4.67297 2.91022 4.94474C2.93652 5.21213 3.0461 5.36555 3.29596 5.49267L3.48883 5.59349H9.09083H14.6928V8.17532V10.7528L14.7893 10.8974C14.8462 10.9763 14.9471 11.0859 15.0128 11.1341C15.1356 11.2262 15.175 11.2262 18.0155 11.2393L20.8954 11.2525L21.4082 11.9188L21.9255 12.585V14.391V16.2013H21.2504H20.5754L20.4833 15.9252C20.2378 15.1932 19.5146 14.483 18.7475 14.2288C17.2878 13.7422 15.6616 14.5269 15.1794 15.9471L15.1005 16.1794H13.0096H10.9187L10.796 15.8638C10.5505 15.2414 10.0815 14.7241 9.47657 14.4085C9.05138 14.185 8.67002 14.0885 8.20538 14.0885C7.71005 14.0842 7.3813 14.1587 6.95611 14.3603C6.26791 14.6935 5.70683 15.3115 5.50081 15.969L5.43068 16.197L4.41811 16.2101C3.30472 16.2233 3.22582 16.2408 3.01542 16.5213C2.87953 16.7054 2.88392 17.135 3.02419 17.3323C3.22144 17.6084 3.29596 17.626 4.42249 17.6391L5.43506 17.6566L5.5315 17.9109C5.7419 18.4676 6.30298 19.1075 6.83337 19.3925C7.39883 19.6905 8.23168 19.7957 8.84097 19.6423C9.73081 19.4188 10.476 18.7613 10.796 17.924L10.9012 17.6479H13.0096H15.1136L15.1925 17.889C15.2934 18.2133 15.6484 18.735 15.9553 19.0067C16.2402 19.261 16.8714 19.5897 17.2264 19.6599C17.5946 19.7344 18.1864 19.7168 18.5721 19.6204C19.3962 19.41 20.1239 18.7656 20.4482 17.9547L20.5622 17.6698L21.6931 17.6479C22.7758 17.626 22.8328 17.6216 22.9862 17.5251C23.0783 17.4682 23.1835 17.3498 23.2361 17.2358C23.3238 17.0561 23.3282 16.9904 23.3282 14.6628C23.3282 13.2338 23.3106 12.2168 23.2843 12.1248C23.258 12.0371 22.9468 11.5944 22.5567 11.0947L21.8729 10.218L20.8208 8.11395C20.2422 6.95673 19.7206 5.94416 19.6592 5.86087C19.4576 5.59787 19.4181 5.59349 17.6779 5.59349H16.1043L16.0868 5.11569C16.0736 4.5853 16.0298 4.48448 15.7448 4.28723L15.6002 4.19079H9.48095H3.36171L3.20391 4.296ZM19.3831 8.39887C19.7688 9.17035 20.0844 9.81033 20.0844 9.82348C20.0844 9.83663 19.1858 9.8454 18.09 9.8454H16.0955V8.42079V6.99618H17.3886H18.6817L19.3831 8.39887ZM8.6744 15.5921C9.00754 15.7192 9.30123 15.9997 9.45465 16.3416C9.55985 16.5783 9.573 16.6441 9.55547 16.9641C9.52917 17.398 9.39767 17.6873 9.0996 17.9459C8.45962 18.5114 7.47335 18.3887 7.01309 17.6829C6.61858 17.0824 6.6931 16.3854 7.20596 15.8857C7.5917 15.5131 8.15278 15.3992 8.6744 15.5921ZM18.4363 15.6271C19.3086 16.0523 19.5102 17.2314 18.822 17.8977C18.1426 18.5596 17.016 18.3799 16.5908 17.5471C16.192 16.7537 16.5908 15.82 17.4544 15.5394C17.6735 15.4693 18.2083 15.5175 18.4363 15.6271Z" fill="#4D4D4D"/>
<path d="M2.43693 7.14518C2.16954 7.26353 1.9942 7.61859 2.06434 7.92105C2.11694 8.15337 2.23091 8.29802 2.43693 8.39884C2.62541 8.48651 2.66925 8.48651 5.82969 8.47774C8.99889 8.46459 9.03396 8.46459 9.1567 8.37254C9.22245 8.32432 9.32327 8.21473 9.38025 8.13583C9.58189 7.83776 9.45915 7.36435 9.12601 7.17587C8.96383 7.08381 8.94191 7.08381 5.76832 7.08381C3.19087 7.0882 2.54651 7.09696 2.43693 7.14518Z" fill="#4D4D4D"/>
<path d="M1.28013 9.94228C1.01274 10.0782 0.876859 10.3193 0.898776 10.6042C0.920693 10.8409 1.01713 11.0031 1.2363 11.1477L1.38095 11.2485H4.61153H7.8421L7.98675 11.1477C8.19716 11.0074 8.30236 10.8453 8.32428 10.6305C8.35058 10.3499 8.20154 10.0738 7.94292 9.94228L7.75005 9.84584H4.61153H1.473L1.28013 9.94228Z" fill="#4D4D4D"/>
<path d="M2.38932 12.7382C2.01673 12.9661 1.93783 13.4878 2.23152 13.799C2.46822 14.0532 2.47699 14.0532 4.38377 14.0532C6.12837 14.0532 6.13275 14.0532 6.32562 13.9524C6.71136 13.7464 6.82533 13.2335 6.55356 12.9135C6.33001 12.6461 6.36507 12.6505 4.36185 12.6505C2.62164 12.6505 2.52082 12.6549 2.38932 12.7382Z" fill="#4D4D4D"/>
</g>
<defs>
<clipPath id="clip0_141_4185">
<rect width="22.4431" height="22.4431" fill="white" transform="translate(0.884766 0.727539)"/>
</clipPath>
</defs>
</svg>
