<svg width="24" height="24" viewBox="0 0 24 24" fill="none" xmlns="http://www.w3.org/2000/svg">
<path d="M14.6249 1.4676C14.4452 1.54649 14.2611 1.77004 14.2304 1.94537C14.2129 2.02427 14.2085 2.46259 14.2173 2.92721C14.2304 3.84769 14.2392 3.88276 14.5329 4.09754C14.7038 4.22465 15.1158 4.22465 15.2868 4.09754C15.5848 3.87399 15.5892 3.86522 15.5892 2.80887C15.5892 1.9103 15.5848 1.84455 15.4972 1.73059C15.449 1.66484 15.3569 1.56841 15.2955 1.52458C15.1509 1.415 14.8002 1.38431 14.6249 1.4676Z" fill="black" fill-opacity="0.7"/>
<path d="M10.768 2.69498C10.6979 2.72567 10.5927 2.80018 10.5401 2.85716C10.4875 2.91414 9.45745 4.834 8.2433 7.12643L6.04291 11.2905L4.67534 12.6712C3.41736 13.9467 3.29463 14.0782 3.12806 14.407C3.02725 14.6042 2.91767 14.8891 2.87822 15.0426C2.8037 15.3625 2.79494 16.02 2.86069 16.3049C2.89575 16.454 2.89137 16.5109 2.84315 16.5679C2.71166 16.7126 2.51003 17.1334 2.4136 17.4489C2.2821 17.8697 2.27333 18.5667 2.39168 18.9568C2.54071 19.4565 2.75549 19.8159 3.13683 20.1885C3.70227 20.7495 4.29839 20.9994 5.06984 20.9994C5.67472 20.9994 6.22701 20.8284 6.68287 20.5084C6.79245 20.4295 6.8319 20.4252 7.08174 20.469C7.65594 20.5698 8.27836 20.4821 8.76052 20.2367L8.97968 20.1271L9.85194 21.0081C10.3297 21.4903 10.8382 21.9724 10.9828 22.0776C11.8726 22.7439 13.1131 22.4458 13.604 21.4465C13.7399 21.1747 13.7486 21.1265 13.7486 20.6925C13.7486 19.9737 13.7136 19.9167 12.5169 18.7201L11.5351 17.7295L11.763 17.5059C11.9647 17.3043 12.5126 17.0019 16.1726 15.0645C18.4738 13.8503 20.3936 12.8159 20.4418 12.772C20.6522 12.5792 20.7267 12.1452 20.5821 11.9261C20.4331 11.7025 11.5088 2.80018 11.351 2.7169C11.1625 2.62047 10.9565 2.6117 10.768 2.69498ZM15.0198 8.28799C17.4875 10.7557 18.7718 12.0707 18.7455 12.097C18.7192 12.1233 17.1237 12.978 15.1951 13.9993L11.6885 15.8622L9.56703 13.7451L7.44555 11.628L9.32595 8.07321C10.3604 6.11829 11.2151 4.51841 11.2283 4.51841C11.2414 4.51841 12.9465 6.21472 15.0198 8.28799ZM9.46183 17.7908C8.2696 18.9875 8.15563 19.0707 7.65594 19.1058C7.41487 19.119 7.29213 19.1014 7.08612 19.0269C6.84066 18.9349 6.73985 18.8428 5.59144 17.6944C4.45618 16.5592 4.35099 16.4452 4.27647 16.2216C4.15812 15.871 4.17566 15.4633 4.3203 15.1477C4.41673 14.9374 4.61836 14.7094 5.49501 13.824L6.55575 12.7545L8.54136 14.7401L10.527 16.7257L9.46183 17.7908ZM5.39858 19.5704C5.39858 19.5923 5.2364 19.5967 5.03915 19.588C4.60521 19.566 4.3203 19.4389 4.06608 19.1584C3.78555 18.8472 3.6409 18.3913 3.71103 18.0319L3.74172 17.8741L4.57015 18.7026C5.026 19.1584 5.39858 19.5485 5.39858 19.5704ZM12.3679 20.7013C12.3679 20.824 12.3416 20.8854 12.254 20.9512C12.0173 21.1352 11.9822 21.1133 10.9916 20.1227L10.0667 19.2066L10.3078 18.9612L10.5489 18.7201L11.4562 19.6274C12.3109 20.4821 12.3679 20.5479 12.3679 20.7013Z" fill="black" fill-opacity="0.7"/>
<path d="M18.8343 3.57227C18.7642 3.60734 18.3346 4.00621 17.8832 4.45768C17.0021 5.34748 16.9671 5.40885 17.0372 5.77704C17.0767 5.99182 17.3397 6.25481 17.5544 6.29426C17.927 6.36439 17.9796 6.33371 18.9088 5.40446C19.6408 4.67246 19.7767 4.51467 19.7986 4.3744C19.9082 3.79582 19.3559 3.33996 18.8343 3.57227Z" fill="black" fill-opacity="0.7"/>
<path d="M19.5338 7.78026C19.1086 7.96874 18.9903 8.52979 19.2971 8.88045C19.4943 9.104 19.639 9.1303 20.6164 9.11276C21.5588 9.09961 21.5939 9.09085 21.8087 8.79717C21.9358 8.62623 21.9358 8.2142 21.8087 8.04326C21.5895 7.74958 21.5676 7.74081 20.5726 7.73205C19.8844 7.72328 19.6346 7.73205 19.5338 7.78026Z" fill="black" fill-opacity="0.7"/>
</svg>
