<svg width="24" height="23" viewBox="0 0 24 23" fill="none" xmlns="http://www.w3.org/2000/svg">
<g clip-path="url(#clip0_514_2707)">
<path d="M14.6249 1.10773C14.4452 1.18663 14.2611 1.41018 14.2304 1.5855C14.2129 1.6644 14.2085 2.10273 14.2173 2.56735C14.2304 3.48783 14.2392 3.52289 14.5329 3.73767C14.7038 3.86479 15.1158 3.86479 15.2868 3.73767C15.5848 3.51413 15.5892 3.50536 15.5892 2.449C15.5892 1.55044 15.5848 1.48469 15.4972 1.37073C15.449 1.30498 15.3569 1.20855 15.2955 1.16471C15.1509 1.05513 14.8002 1.02445 14.6249 1.10773Z" fill="#FB5607"/>
<path d="M10.768 2.33463C10.6979 2.36531 10.5927 2.43983 10.5401 2.49681C10.4875 2.55379 9.45745 4.47365 8.2433 6.76608L6.04291 10.9302L4.67534 12.3109C3.41736 13.5864 3.29463 13.7179 3.12806 14.0466C3.02725 14.2439 2.91767 14.5288 2.87822 14.6822C2.8037 15.0022 2.79494 15.6597 2.86069 15.9446C2.89575 16.0936 2.89137 16.1506 2.84315 16.2076C2.71166 16.3522 2.51003 16.773 2.4136 17.0886C2.2821 17.5094 2.27333 18.2063 2.39168 18.5964C2.54071 19.0961 2.75549 19.4555 3.13683 19.8281C3.70227 20.3892 4.29839 20.639 5.06984 20.639C5.67472 20.639 6.22701 20.4681 6.68287 20.1481C6.79245 20.0692 6.8319 20.0648 7.08174 20.1086C7.65594 20.2095 8.27836 20.1218 8.76052 19.8763L8.97968 19.7668L9.85194 20.6478C10.3297 21.1299 10.8382 21.6121 10.9828 21.7173C11.8726 22.3835 13.1131 22.0855 13.604 21.0861C13.7399 20.8143 13.7486 20.7661 13.7486 20.3322C13.7486 19.6133 13.7136 19.5564 12.5169 18.3597L11.5351 17.3691L11.763 17.1456C11.9647 16.9439 12.5126 16.6415 16.1726 14.7041C18.4738 13.49 20.3936 12.4555 20.4418 12.4117C20.6522 12.2188 20.7267 11.7849 20.5821 11.5657C20.4331 11.3422 11.5088 2.43983 11.351 2.35655C11.1625 2.26012 10.9565 2.25135 10.768 2.33463ZM15.0198 7.92764C17.4875 10.3954 18.7718 11.7104 18.7455 11.7367C18.7192 11.763 17.1237 12.6177 15.1951 13.639L11.6885 15.5019L9.56703 13.3848L7.44555 11.2677L9.32595 7.71286C10.3604 5.75794 11.2151 4.15806 11.2283 4.15806C11.2414 4.15806 12.9465 5.85437 15.0198 7.92764ZM9.46184 17.4305C8.2696 18.6271 8.15563 18.7104 7.65594 18.7455C7.41487 18.7586 7.29213 18.7411 7.08612 18.6666C6.84066 18.5745 6.73985 18.4825 5.59144 17.3341C4.45618 16.1988 4.35099 16.0848 4.27647 15.8613C4.15812 15.5106 4.17566 15.103 4.3203 14.7874C4.41673 14.577 4.61836 14.3491 5.49501 13.4637L6.55575 12.3942L8.54136 14.3798L10.527 16.3654L9.46184 17.4305ZM5.39858 19.2101C5.39858 19.232 5.2364 19.2364 5.03915 19.2276C4.60521 19.2057 4.3203 19.0786 4.06608 18.7981C3.78555 18.4868 3.6409 18.031 3.71103 17.6716L3.74172 17.5138L4.57015 18.3422C5.026 18.7981 5.39858 19.1882 5.39858 19.2101ZM12.3679 20.341C12.3679 20.4637 12.3416 20.5251 12.254 20.5908C12.0173 20.7749 11.9822 20.753 10.9916 19.7624L10.0667 18.8463L10.3078 18.6008L10.5489 18.3597L11.4562 19.2671C12.3109 20.1218 12.3679 20.1875 12.3679 20.341Z" fill="#FB5607"/>
<path d="M18.8343 3.21241C18.7642 3.24747 18.3346 3.64635 17.8832 4.09782C17.0021 4.98762 16.9671 5.04898 17.0372 5.41717C17.0767 5.63195 17.3397 5.89495 17.5544 5.9344C17.927 6.00453 17.9796 5.97384 18.9088 5.0446C19.6408 4.3126 19.7767 4.1548 19.7986 4.01454C19.9082 3.43595 19.3559 2.9801 18.8343 3.21241Z" fill="#FB5607"/>
<path d="M19.5338 7.41991C19.1086 7.60839 18.9903 8.16944 19.2971 8.5201C19.4943 8.74365 19.639 8.76995 20.6164 8.75241C21.5588 8.73926 21.5939 8.7305 21.8087 8.43682C21.9358 8.26587 21.9358 7.85385 21.8087 7.6829C21.5895 7.38923 21.5676 7.38046 20.5726 7.37169C19.8844 7.36293 19.6346 7.37169 19.5338 7.41991Z" fill="#FB5607"/>
</g>
<defs>
<clipPath id="clip0_514_2707">
<rect width="22.4422" height="22.4422" fill="white" transform="translate(0.884766 0.344727)"/>
</clipPath>
</defs>
</svg>
