<svg width="24" height="23" viewBox="0 0 24 23" fill="none" xmlns="http://www.w3.org/2000/svg">
<path d="M11.9738 1.25994C11.9124 1.27747 9.63314 2.40834 6.90677 3.77153C2.22986 6.11218 1.94495 6.26121 1.87482 6.40147C1.80907 6.54173 1.80469 7.00636 1.80469 11.5167C1.80469 16.0271 1.80907 16.4917 1.87482 16.6319C1.94495 16.7722 2.22986 16.9256 6.9506 19.2838C10.7027 21.1598 11.9913 21.7866 12.1053 21.7866C12.2193 21.7866 13.5079 21.1598 17.26 19.2838C21.9807 16.9256 22.2656 16.7722 22.3358 16.6319C22.4015 16.4917 22.4059 16.0271 22.4059 11.5167C22.4059 7.00636 22.4015 6.54173 22.3358 6.40147C22.2656 6.26121 21.9807 6.11218 17.2819 3.76276C14.5424 2.3952 12.2543 1.26432 12.193 1.25117C12.1316 1.23802 12.0352 1.2424 11.9738 1.25994ZM16.4666 4.40272C18.8642 5.60372 20.8279 6.59433 20.8279 6.60748C20.8279 6.62063 20.4203 6.83541 19.9162 7.08525L19.0089 7.53673L14.6256 5.34511L10.2424 3.15788L11.1629 2.69325C11.6713 2.43903 12.0878 2.22863 12.0921 2.22863C12.1009 2.22425 14.069 3.20609 16.4666 4.40272ZM16.6069 8.73773L15.2612 9.41275L10.8999 7.23428C8.50227 6.03328 6.53858 5.04267 6.53858 5.02952C6.53858 5.01637 7.1347 4.70954 7.8667 4.34573L9.19044 3.68386L13.5737 5.8711L17.9569 8.06272L16.6069 8.73773ZM9.80409 7.73397C12.2017 8.93498 14.1654 9.92559 14.1654 9.93874C14.1654 9.95189 13.7008 10.193 13.1353 10.4779L12.1053 10.9907L7.74397 8.81225C5.34634 7.61124 3.38265 6.62063 3.38265 6.60748C3.38265 6.58995 5.37264 5.57304 5.42962 5.55989C5.43839 5.55551 7.40646 6.53735 9.80409 7.73397ZM7.21798 9.59685L11.6231 11.8016V16.1717C11.6231 18.5781 11.6144 20.5462 11.6012 20.5462C11.5881 20.5462 9.59808 19.5556 7.17415 18.3458L2.769 16.141V11.7709C2.769 9.36454 2.77777 7.39646 2.79092 7.39646C2.80406 7.39646 4.79405 8.38708 7.21798 9.59685ZM21.4416 11.7709V16.141L17.0364 18.3458C14.6125 19.5556 12.6225 20.5462 12.6094 20.5462C12.5962 20.5462 12.5874 18.5781 12.5874 16.1717V11.8016L13.6175 11.2844C14.1829 11.0039 14.6563 10.7716 14.6695 10.7716C14.6826 10.7716 14.6914 11.7972 14.6914 13.0552V15.3389L14.8185 15.466C15.0158 15.6632 15.362 15.6326 15.5286 15.4046C15.568 15.352 15.9888 14.7471 16.4622 14.059C16.94 13.3708 17.3433 12.8054 17.3652 12.7966C17.3827 12.7878 17.6764 12.9807 18.0139 13.2218C18.3514 13.4672 18.6801 13.682 18.7459 13.7083C18.9037 13.7697 19.1316 13.6952 19.25 13.5461C19.3376 13.4366 19.3376 13.3752 19.3376 10.9294V8.42652L20.3589 7.91369C20.9156 7.63316 21.389 7.40085 21.4109 7.40085C21.4284 7.39646 21.4416 9.36454 21.4416 11.7709ZM18.4171 10.6225V12.3583L18.1235 12.1479C17.5098 11.7096 17.4046 11.6482 17.2468 11.6482C17.1635 11.6482 17.0583 11.6701 17.0145 11.692C16.9707 11.7183 16.6901 12.0865 16.3965 12.5161C16.0984 12.9413 15.8004 13.3708 15.7346 13.4629L15.6119 13.6338V11.9638V10.2894L17.0057 9.59246C17.7684 9.20674 18.3996 8.89115 18.4084 8.89115C18.4128 8.88676 18.4171 9.66698 18.4171 10.6225Z" fill="black" fill-opacity="0.7"/>
</svg>
