<svg width="24" height="24" viewBox="0 0 24 24" fill="none" xmlns="http://www.w3.org/2000/svg">
<path d="M11.9738 1.90007C11.9124 1.91761 9.63314 3.04848 6.90677 4.41167C2.22986 6.75231 1.94495 6.90134 1.87482 7.04161C1.80907 7.18187 1.80469 7.64649 1.80469 12.1568C1.80469 16.6672 1.80907 17.1318 1.87482 17.2721C1.94495 17.4123 2.22986 17.5658 6.9506 19.9239C10.7027 21.8 11.9913 22.4268 12.1053 22.4268C12.2193 22.4268 13.5079 21.8 17.26 19.9239C21.9807 17.5658 22.2656 17.4123 22.3358 17.2721C22.4015 17.1318 22.4059 16.6672 22.4059 12.1568C22.4059 7.64649 22.4015 7.18187 22.3358 7.04161C22.2656 6.90134 21.9807 6.75231 17.2819 4.4029C14.5424 3.03533 12.2543 1.90446 12.193 1.89131C12.1316 1.87816 12.0352 1.88254 11.9738 1.90007ZM16.4666 5.04285C18.8642 6.24386 20.8279 7.23447 20.8279 7.24762C20.8279 7.26077 20.4203 7.47555 19.9162 7.72539L19.0089 8.17686L14.6256 5.98525L10.2424 3.79801L11.1629 3.33339C11.6713 3.07916 12.0878 2.86877 12.0921 2.86877C12.1009 2.86439 14.069 3.84623 16.4666 5.04285ZM16.6069 9.37787L15.2612 10.0529L10.8999 7.87442C8.50227 6.67342 6.53858 5.6828 6.53858 5.66965C6.53858 5.65651 7.1347 5.34968 7.8667 4.98587L9.19044 4.324L13.5737 6.51124L17.9569 8.70285L16.6069 9.37787ZM9.80409 8.37411C12.2017 9.57512 14.1654 10.5657 14.1654 10.5789C14.1654 10.592 13.7008 10.8331 13.1353 11.118L12.1053 11.6309L7.74397 9.45239C5.34634 8.25138 3.38265 7.26077 3.38265 7.24762C3.38265 7.23009 5.37264 6.21318 5.42962 6.20003C5.43839 6.19564 7.40646 7.17749 9.80409 8.37411ZM7.21798 10.237L11.6231 12.4418V16.8118C11.6231 19.2182 11.6144 21.1863 11.6012 21.1863C11.5881 21.1863 9.59808 20.1957 7.17415 18.9859L2.769 16.7812V12.4111C2.769 10.0047 2.77777 8.0366 2.79092 8.0366C2.80406 8.0366 4.79405 9.02721 7.21798 10.237ZM21.4416 12.4111V16.7812L17.0364 18.9859C14.6125 20.1957 12.6225 21.1863 12.6094 21.1863C12.5962 21.1863 12.5874 19.2182 12.5874 16.8118V12.4418L13.6175 11.9245C14.1829 11.644 14.6563 11.4117 14.6695 11.4117C14.6826 11.4117 14.6914 12.4374 14.6914 13.6954V15.979L14.8185 16.1061C15.0158 16.3034 15.362 16.2727 15.5286 16.0448C15.568 15.9922 15.9888 15.3873 16.4622 14.6991C16.94 14.0109 17.3433 13.4455 17.3652 13.4367C17.3827 13.428 17.6764 13.6208 18.0139 13.8619C18.3514 14.1074 18.6801 14.3222 18.7459 14.3485C18.9037 14.4098 19.1316 14.3353 19.25 14.1863C19.3376 14.0767 19.3376 14.0153 19.3376 11.5695V9.06666L20.3589 8.55382C20.9156 8.2733 21.389 8.04098 21.4109 8.04098C21.4284 8.0366 21.4416 10.0047 21.4416 12.4111ZM18.4171 11.2627V12.9984L18.1235 12.788C17.5098 12.3497 17.4046 12.2883 17.2468 12.2883C17.1635 12.2883 17.0583 12.3103 17.0145 12.3322C16.9707 12.3585 16.6901 12.7267 16.3965 13.1562C16.0984 13.5814 15.8004 14.0109 15.7346 14.103L15.6119 14.2739V12.6039V10.9295L17.0057 10.2326C17.7684 9.84688 18.3996 9.53128 18.4084 9.53128C18.4128 9.5269 18.4171 10.3071 18.4171 11.2627Z" fill="#FB5607"/>
</svg>
