<svg width="24" height="23" viewBox="0 0 24 23" fill="none" xmlns="http://www.w3.org/2000/svg">
<g clip-path="url(#clip0_141_2604)">
<path opacity="0.974" fill-rule="evenodd" clip-rule="evenodd" d="M9.84883 0.399902C11.3391 0.399902 12.8294 0.399902 14.3197 0.399902C15.0203 0.5965 15.466 1.04944 15.6566 1.7587C15.7401 2.28882 15.8424 2.81481 15.9634 3.33667C16.2718 3.9329 16.7613 4.18859 17.4318 4.10373C17.9174 3.93703 18.3995 3.7617 18.8783 3.57775C19.7879 3.38399 20.4819 3.68351 20.9603 4.47631C21.5629 5.55007 22.1765 6.61664 22.8013 7.67607C23.0759 8.31094 23.0321 8.92459 22.6698 9.51703C22.2282 9.95881 21.7607 10.3679 21.2672 10.7443C20.8009 11.3951 20.8374 12.016 21.3767 12.6072C21.8347 12.9483 22.2657 13.3209 22.6698 13.7249C23.0321 14.3174 23.0759 14.931 22.8013 15.5659C22.1765 16.6253 21.5629 17.6919 20.9603 18.7657C20.4819 19.5584 19.7879 19.858 18.8783 19.6642C18.3995 19.4803 17.9174 19.3049 17.4318 19.1382C16.7613 19.0534 16.2718 19.309 15.9634 19.9053C15.8424 20.4272 15.7401 20.9531 15.6566 21.4833C15.466 22.1925 15.0203 22.6455 14.3197 22.8421C12.8294 22.8421 11.3391 22.8421 9.84883 22.8421C9.14822 22.6455 8.70257 22.1925 8.51195 21.4833C8.42849 20.9531 8.32618 20.4272 8.20512 19.9053C7.89671 19.309 7.40724 19.0534 6.73674 19.1382C6.25121 19.3049 5.76905 19.4803 5.29027 19.6642C4.38072 19.858 3.6867 19.5584 3.20823 18.7657C2.60566 17.6919 1.992 16.6253 1.36728 15.5659C1.08442 14.9301 1.12825 14.3164 1.49877 13.7249C1.93924 13.2844 2.40679 12.8753 2.90141 12.4976C3.36769 11.8469 3.33116 11.226 2.79183 10.6348C2.33383 10.2937 1.90281 9.92108 1.49877 9.51703C1.12825 8.92556 1.08442 8.3119 1.36728 7.67607C1.992 6.61664 2.60566 5.55007 3.20823 4.47631C3.6867 3.68351 4.38072 3.38399 5.29027 3.57775C5.76905 3.7617 6.25121 3.93703 6.73674 4.10373C7.40724 4.18859 7.89671 3.9329 8.20512 3.33667C8.32618 2.81481 8.42849 2.28882 8.51195 1.7587C8.70257 1.04944 9.14822 0.5965 9.84883 0.399902ZM10.2433 2.1532C11.4706 2.1532 12.6979 2.1532 13.9252 2.1532C13.9834 2.79479 14.1077 3.42305 14.2978 4.03799C15.0713 5.57523 16.3059 6.16697 18.0016 5.8132C18.4548 5.66219 18.9004 5.49414 19.3385 5.30912C19.9536 6.35545 20.56 7.40742 21.1576 8.46505C20.8582 8.7277 20.5514 8.98337 20.2371 9.23212C19.2635 10.1224 18.9347 11.2108 19.2509 12.4976C19.439 13.0945 19.7677 13.5986 20.2371 14.0098C20.5366 14.2509 20.8362 14.492 21.1357 14.7331C20.5734 15.813 19.9744 16.8796 19.3385 17.9328C18.6472 17.5855 17.9166 17.3809 17.1469 17.3192C15.5502 17.4109 14.5421 18.2291 14.1225 19.7738C14.0424 20.2105 13.9767 20.6488 13.9252 21.0888C12.6979 21.0888 11.4706 21.0888 10.2433 21.0888C10.1851 20.4472 10.0609 19.8189 9.87075 19.204C9.09728 17.6667 7.86266 17.075 6.16692 17.4288C5.71373 17.5798 5.26811 17.7478 4.83003 17.9328C4.21493 16.8865 3.60858 15.8345 3.01099 14.7769C3.31032 14.5143 3.61715 14.2586 3.93147 14.0098C4.90509 13.1196 5.23383 12.0311 4.91769 10.7443C4.72961 10.1474 4.40087 9.64335 3.93147 9.23212C3.63195 8.99104 3.33242 8.74996 3.0329 8.50889C3.59512 7.42899 4.19416 6.36237 4.83003 5.30912C5.5214 5.6565 6.25195 5.86106 7.02165 5.92278C8.61714 5.83253 9.62529 5.01431 10.0461 3.46817C10.1262 3.03151 10.1919 2.59318 10.2433 2.1532Z" fill="black" fill-opacity="0.7"/>
<path opacity="0.971" fill-rule="evenodd" clip-rule="evenodd" d="M11.5583 7.2815C13.4418 7.16026 14.881 7.89077 15.8758 9.47311C16.5197 10.7255 16.5928 12.0112 16.0949 13.3304C15.3829 14.8229 14.2068 15.6922 12.5664 15.9384C10.6992 16.0677 9.27464 15.3445 8.29279 13.7687C7.64885 12.5163 7.57583 11.2306 8.07363 9.91144C8.78437 8.43495 9.94593 7.5583 11.5583 7.2815ZM11.6898 9.07862C10.1886 9.47921 9.47999 10.4582 9.56393 12.0154C9.95356 13.5216 10.9252 14.2302 12.4788 14.1413C13.9713 13.7641 14.6799 12.8071 14.6046 11.2702C14.2391 9.73913 13.2675 9.00858 11.6898 9.07862Z" fill="black" fill-opacity="0.7"/>
</g>
<defs>
<clipPath id="clip0_141_2604">
<rect width="22.4422" height="22.4422" fill="white" transform="translate(0.884766 0.421387)"/>
</clipPath>
</defs>
</svg>
