<svg width="24" height="23" viewBox="0 0 24 23" fill="none" xmlns="http://www.w3.org/2000/svg">
<g clip-path="url(#clip0_514_2715)">
<path opacity="0.974" fill-rule="evenodd" clip-rule="evenodd" d="M9.84883 0.0390625C11.3391 0.0390625 12.8294 0.0390625 14.3197 0.0390625C15.0203 0.235661 15.466 0.688596 15.6566 1.39787C15.7401 1.92798 15.8424 2.45397 15.9634 2.97583C16.2718 3.57206 16.7613 3.82775 17.4318 3.7429C17.9174 3.57619 18.3995 3.40086 18.8783 3.21691C19.7879 3.02315 20.4819 3.32267 20.9603 4.11547C21.5629 5.18923 22.1765 6.2558 22.8013 7.31523C23.0759 7.9501 23.0321 8.56375 22.6698 9.15619C22.2282 9.59798 21.7607 10.0071 21.2672 10.3835C20.8009 11.0342 20.8374 11.6552 21.3767 12.2464C21.8347 12.5875 22.2657 12.96 22.6698 13.3641C23.0321 13.9565 23.0759 14.5702 22.8013 15.2051C22.1765 16.2645 21.5629 17.3311 20.9603 18.4048C20.4819 19.1976 19.7879 19.4971 18.8783 19.3034C18.3995 19.1194 17.9174 18.9441 17.4318 18.7774C16.7613 18.6925 16.2718 18.9482 15.9634 19.5445C15.8424 20.0663 15.7401 20.5923 15.6566 21.1224C15.466 21.8317 15.0203 22.2846 14.3197 22.4812C12.8294 22.4812 11.3391 22.4812 9.84883 22.4812C9.14822 22.2846 8.70257 21.8317 8.51195 21.1224C8.42849 20.5923 8.32618 20.0663 8.20512 19.5445C7.89671 18.9482 7.40724 18.6925 6.73674 18.7774C6.25121 18.9441 5.76905 19.1194 5.29027 19.3034C4.38072 19.4971 3.6867 19.1976 3.20823 18.4048C2.60566 17.3311 1.992 16.2645 1.36728 15.2051C1.08442 14.5692 1.12825 13.9556 1.49877 13.3641C1.93924 12.9236 2.40679 12.5145 2.90141 12.1368C3.36769 11.4861 3.33116 10.8651 2.79183 10.2739C2.33383 9.93281 1.90281 9.56024 1.49877 9.15619C1.12825 8.56472 1.08442 7.95106 1.36728 7.31523C1.992 6.2558 2.60566 5.18923 3.20823 4.11547C3.6867 3.32267 4.38072 3.02315 5.29027 3.21691C5.76905 3.40086 6.25121 3.57619 6.73674 3.7429C7.40724 3.82775 7.89671 3.57206 8.20512 2.97583C8.32618 2.45397 8.42849 1.92798 8.51195 1.39787C8.70257 0.688596 9.14822 0.235661 9.84883 0.0390625ZM10.2433 1.79236C11.4706 1.79236 12.6979 1.79236 13.9252 1.79236C13.9834 2.43395 14.1077 3.06221 14.2978 3.67715C15.0713 5.21439 16.3059 5.80613 18.0016 5.45236C18.4548 5.30135 18.9004 5.1333 19.3385 4.94828C19.9536 5.99461 20.56 7.04658 21.1576 8.10421C20.8582 8.36686 20.5514 8.62253 20.2371 8.87128C19.2635 9.76151 18.9347 10.85 19.2509 12.1368C19.439 12.7337 19.7677 13.2378 20.2371 13.649C20.5366 13.8901 20.8362 14.1312 21.1357 14.3722C20.5734 15.4521 19.9744 16.5188 19.3385 17.572C18.6472 17.2246 17.9166 17.0201 17.1469 16.9583C15.5502 17.05 14.5421 17.8683 14.1225 19.413C14.0424 19.8496 13.9767 20.2879 13.9252 20.7279C12.6979 20.7279 11.4706 20.7279 10.2433 20.7279C10.1851 20.0864 10.0609 19.4581 9.87075 18.8431C9.09728 17.3059 7.86266 16.7142 6.16692 17.0679C5.71373 17.2189 5.26811 17.387 4.83003 17.572C4.21493 16.5257 3.60858 15.4737 3.01099 14.4161C3.31032 14.1534 3.61715 13.8978 3.93147 13.649C4.90509 12.7588 5.23383 11.6703 4.91769 10.3835C4.72961 9.78659 4.40087 9.28251 3.93147 8.87128C3.63195 8.6302 3.33242 8.38912 3.0329 8.14805C3.59512 7.06815 4.19416 6.00153 4.83003 4.94828C5.5214 5.29566 6.25195 5.50022 7.02165 5.56194C8.61714 5.47169 9.62529 4.65347 10.0461 3.10733C10.1262 2.67067 10.1919 2.23235 10.2433 1.79236Z" fill="#FB5607"/>
<path opacity="0.971" fill-rule="evenodd" clip-rule="evenodd" d="M11.5583 6.92017C13.4418 6.79893 14.881 7.52944 15.8758 9.11179C16.5197 10.3642 16.5928 11.6499 16.0949 12.969C15.3829 14.4615 14.2068 15.3308 12.5664 15.5771C10.6992 15.7064 9.27464 14.9832 8.29279 13.4074C7.64885 12.155 7.57583 10.8692 8.07363 9.55011C8.78437 8.07362 9.94593 7.19697 11.5583 6.92017ZM11.6898 8.7173C10.1886 9.11788 9.47999 10.0968 9.56393 11.6541C9.95356 13.1602 10.9252 13.8689 12.4788 13.7799C13.9713 13.4028 14.6799 12.4458 14.6046 10.9089C14.2391 9.3778 13.2675 8.64725 11.6898 8.7173Z" fill="#FB5607"/>
</g>
<defs>
<clipPath id="clip0_514_2715">
<rect width="22.4422" height="22.4422" fill="white" transform="translate(0.884766 0.0605469)"/>
</clipPath>
</defs>
</svg>
