<svg width="24" height="23" viewBox="0 0 24 23" fill="none" xmlns="http://www.w3.org/2000/svg">
<g clip-path="url(#clip0_514_2664)">
<path d="M1.22666 1.67013C1.03818 1.76656 0.884766 2.02517 0.884766 2.23557C0.884766 2.45473 1.03818 2.70457 1.23542 2.80539C1.3976 2.88867 1.48965 2.89305 3.18158 2.89305H4.96117L4.98309 2.98948C5.04007 3.2218 7.32812 13.5443 7.32812 13.5662C7.32812 13.575 7.24484 13.6276 7.14402 13.6802C7.03883 13.7328 6.84596 13.8862 6.71447 14.0221C6.12711 14.627 5.99123 15.4598 6.35504 16.2356C6.60927 16.7791 7.15717 17.1999 7.76206 17.3139C7.89356 17.3358 8.2749 17.3577 8.61679 17.3621C9.09456 17.3665 9.19099 17.3753 9.04196 17.4059C8.04697 17.5988 7.32812 18.6245 7.49468 19.6195C7.67439 20.6934 8.67816 21.4385 9.72137 21.2676C10.5805 21.1273 11.2292 20.4786 11.3695 19.6195C11.536 18.6245 10.8172 17.5988 9.82218 17.4059C9.70822 17.384 11.4659 17.3665 14.0783 17.3665C16.6907 17.3665 18.4484 17.384 18.3344 17.4059C17.3394 17.5988 16.6206 18.6245 16.7871 19.6195C16.9274 20.4786 17.5761 21.1273 18.4352 21.2676C19.4784 21.4385 20.4822 20.6934 20.6619 19.6195C20.8285 18.6245 20.1096 17.5988 19.1146 17.4059C18.9656 17.3753 19.0664 17.3665 19.5486 17.3621C20.0833 17.3577 20.2017 17.3446 20.3463 17.2701C20.5436 17.1692 20.697 16.9194 20.697 16.7002C20.697 16.4811 20.5436 16.2312 20.3463 16.1304C20.1754 16.0428 20.1009 16.0428 14.0783 16.0428C8.05574 16.0428 7.98122 16.0428 7.81028 15.9551C7.61303 15.8543 7.45962 15.6044 7.45962 15.3853C7.45962 15.188 7.61303 14.9163 7.77959 14.8286C7.91109 14.7541 8.29243 14.7497 14.0871 14.7278C20.228 14.7059 20.2543 14.7059 20.3726 14.6138C20.4384 14.5656 20.5304 14.4779 20.5743 14.4166C20.6619 14.3026 23.3269 5.02769 23.3269 4.84359C23.3269 4.64635 23.1647 4.39212 22.9763 4.29569C22.8053 4.20802 22.7352 4.20802 14.7007 4.20802H6.59612L6.35942 3.12536C6.18848 2.34077 6.09205 1.99887 6.01315 1.88053C5.82029 1.57808 5.83344 1.57808 3.47964 1.57808C1.48527 1.58247 1.38007 1.58685 1.22666 1.67013ZM21.7753 5.59751C21.7621 5.64134 21.258 7.41655 20.6488 9.54242L19.5442 13.4128H14.0958H8.64309L8.62117 13.312C8.60802 13.2594 8.2223 11.528 7.76644 9.4679C7.31059 7.40778 6.92486 5.67641 6.91171 5.61942L6.8898 5.52299H14.3413C21.4246 5.52299 21.7972 5.52738 21.7753 5.59751ZM9.7389 18.7604C9.93614 18.8612 10.0896 19.111 10.0896 19.3302C10.0896 19.6633 9.7652 19.9877 9.43207 19.9877C9.09895 19.9877 8.77459 19.6633 8.77459 19.3302C8.77459 19.1198 8.928 18.8612 9.11648 18.7647C9.32687 18.6508 9.52412 18.6508 9.7389 18.7604ZM19.0314 18.7604C19.2286 18.8612 19.382 19.111 19.382 19.3302C19.382 19.6633 19.0577 19.9877 18.7245 19.9877C18.3914 19.9877 18.067 19.6633 18.067 19.3302C18.067 19.1198 18.2205 18.8612 18.4089 18.7647C18.6193 18.6508 18.8166 18.6508 19.0314 18.7604Z" fill="#FB5607"/>
</g>
<defs>
<clipPath id="clip0_514_2664">
<rect width="22.4422" height="22.4422" fill="white" transform="translate(0.884766 0.219727)"/>
</clipPath>
</defs>
</svg>
