<svg width="24" height="23" viewBox="0 0 24 23" fill="none" xmlns="http://www.w3.org/2000/svg">
<g clip-path="url(#clip0_141_4208)">
<path d="M4.632 1.89565C4.56187 1.91756 4.46544 1.9614 4.4216 1.99646C4.37777 2.02715 3.57126 3.41663 2.62448 5.07349L0.90625 8.09354L0.910633 8.4442C0.923783 9.05347 1.15171 9.70219 1.53744 10.215C1.76098 10.5131 2.23875 10.9251 2.56311 11.1004L2.81296 11.2319V16.1236C2.81296 21.515 2.79542 21.1994 3.0891 21.3747C3.22498 21.4624 3.37401 21.4624 12.1054 21.4624C20.8368 21.4624 20.9858 21.4624 21.1217 21.3747C21.4154 21.1994 21.3979 21.515 21.3979 16.1236V11.2319L21.6565 11.0961C22.612 10.5876 23.2827 9.50056 23.3002 8.4442L23.3046 8.09354L21.6214 5.13486C20.6965 3.50868 19.8857 2.11919 19.8199 2.05345C19.7542 1.98331 19.627 1.91318 19.5306 1.89127C19.3027 1.83428 4.80733 1.84305 4.632 1.89565ZM20.4204 5.26636L21.7047 7.52372L16.9051 7.53687C14.2663 7.54125 9.94448 7.54125 7.30577 7.53687L2.50613 7.52372L3.79042 5.25759L5.07032 2.99146L12.1054 3.00022L19.1405 3.00899L20.4204 5.26636ZM6.16175 8.75979C5.83739 10.1098 4.36462 10.7848 3.11978 10.1537C2.86556 10.0265 2.5412 9.73725 2.37025 9.49179C2.2519 9.31646 2.02397 8.79047 2.02397 8.68528C2.02397 8.65898 2.77789 8.64145 4.10601 8.64145H6.18805L6.16175 8.75979ZM11.4742 8.82554C11.4304 9.10168 11.1937 9.50933 10.9176 9.78547C10.0847 10.6183 8.71279 10.5876 7.91066 9.71972C7.6652 9.45673 7.44165 9.05785 7.38905 8.78171L7.36275 8.64145H9.43164H11.5049L11.4742 8.82554ZM16.8218 8.78171C16.6859 9.46111 16.0109 10.1405 15.2876 10.3334C14.5074 10.5438 13.5694 10.2106 13.0916 9.56192C12.9119 9.31646 12.7234 8.89567 12.7191 8.73788V8.64145H14.7836H16.8525L16.8218 8.78171ZM22.1605 8.80362C22.0992 9.09292 21.8537 9.50494 21.5951 9.76355C20.8763 10.4868 19.8111 10.6007 18.9608 10.0528C18.5268 9.77232 18.2419 9.38659 18.0841 8.86937L18.0272 8.68528H20.1092H22.1868L22.1605 8.80362ZM7.22687 10.6007C7.56438 10.9339 7.97641 11.1837 8.44541 11.3415C8.9451 11.5125 9.65957 11.5388 10.1812 11.4073C10.7992 11.2539 11.2288 11.0084 11.7022 10.5394L12.1098 10.1361L12.4911 10.5175C12.9207 10.947 13.2801 11.175 13.793 11.3459C14.1085 11.4555 14.2094 11.4642 14.7792 11.4642C15.3622 11.4686 15.4411 11.4555 15.7654 11.3459C15.9583 11.2758 16.2476 11.1443 16.4097 11.0478C16.7034 10.8769 17.1856 10.443 17.3478 10.2063L17.4354 10.0835L17.6502 10.3509C18.1937 11.0259 19.1449 11.4862 20.0084 11.4905H20.3021V15.9176V20.3447H15.7654H11.2288V17.3246C11.2288 15.4837 11.2112 14.2169 11.1849 14.0767C11.0491 13.3578 10.5187 12.7968 9.80421 12.6083C9.44917 12.5162 7.6915 12.5162 7.30577 12.6039C6.67459 12.7529 6.16175 13.2307 5.9382 13.8838C5.87245 14.0767 5.86369 14.4273 5.85054 17.2194L5.833 20.3447H4.86869H3.90876V15.9176V11.4905H4.20682C5.06594 11.4862 6.0171 11.0259 6.56062 10.3509L6.7754 10.0835L6.86306 10.2063C6.9069 10.272 7.07346 10.4517 7.22687 10.6007ZM9.67272 13.7216C9.88311 13.818 9.97516 13.9145 10.0672 14.1336C10.1242 14.2695 10.133 14.6947 10.133 17.3202V20.3447H8.55499H6.97703V17.3027C6.97703 15.2514 6.99018 14.2169 7.02524 14.1336C7.09099 13.9583 7.23564 13.8137 7.43727 13.7216C7.59068 13.6515 7.73094 13.6383 8.55499 13.6383C9.37466 13.6383 9.5193 13.6515 9.67272 13.7216Z" fill="black" fill-opacity="0.7"/>
<path d="M13.3909 12.5908C13.1542 12.6477 12.7685 12.9063 12.5931 13.1255C12.5186 13.2219 12.4178 13.406 12.3696 13.5375C12.2819 13.7698 12.2776 13.8531 12.2907 15.2777L12.3039 16.7724L12.4178 17.0178C12.5668 17.3334 12.8386 17.6052 13.1542 17.7542L13.3997 17.8682H15.3064H17.2131L17.4585 17.7542C17.7741 17.6052 18.0459 17.3334 18.1949 17.0178L18.3089 16.7724V15.2163V13.6603L18.1949 13.4192C18.0503 13.1167 17.7697 12.8362 17.4542 12.6828L17.2131 12.5645L15.394 12.5557C14.3421 12.5513 13.4961 12.5688 13.3909 12.5908ZM17.0158 13.7041C17.086 13.7392 17.1649 13.8093 17.1912 13.8531C17.2175 13.9057 17.235 14.4317 17.235 15.2382V16.54L17.1079 16.6672L16.9808 16.7943H15.3064H13.632L13.5049 16.6672L13.3777 16.54V15.2295C13.3777 13.8224 13.3865 13.7742 13.6144 13.6822C13.6627 13.6603 14.421 13.6427 15.2976 13.6427C16.6345 13.6383 16.9106 13.6471 17.0158 13.7041Z" fill="black" fill-opacity="0.7"/>
</g>
<defs>
<clipPath id="clip0_141_4208">
<rect width="22.4422" height="22.4422" fill="white" transform="translate(0.884766 0.444824)"/>
</clipPath>
</defs>
</svg>
