<svg width="24" height="24" viewBox="0 0 24 24" fill="none" xmlns="http://www.w3.org/2000/svg">
<g clip-path="url(#clip0_141_2561)">
<path d="M1.22666 2.03048C1.03818 2.12691 0.884766 2.38552 0.884766 2.59592C0.884766 2.81508 1.03818 3.06493 1.23542 3.16574C1.3976 3.24902 1.48965 3.2534 3.18158 3.2534H4.96117L4.98309 3.34984C5.04007 3.58215 7.32812 13.9047 7.32812 13.9266C7.32812 13.9353 7.24484 13.9879 7.14402 14.0405C7.03883 14.0931 6.84596 14.2466 6.71447 14.3824C6.12711 14.9873 5.99123 15.8201 6.35504 16.596C6.60927 17.1395 7.15717 17.5603 7.76206 17.6742C7.89356 17.6962 8.2749 17.7181 8.61679 17.7225C9.09456 17.7268 9.19099 17.7356 9.04196 17.7663C8.04697 17.9592 7.32812 18.9848 7.49468 19.9798C7.67439 21.0537 8.67816 21.7989 9.72136 21.6279C10.5805 21.4877 11.2292 20.8389 11.3695 19.9798C11.536 18.9848 10.8172 17.9592 9.82218 17.7663C9.70822 17.7444 11.4659 17.7268 14.0783 17.7268C16.6907 17.7268 18.4484 17.7444 18.3344 17.7663C17.3394 17.9592 16.6206 18.9848 16.7871 19.9798C16.9274 20.8389 17.5761 21.4877 18.4352 21.6279C19.4784 21.7989 20.4822 21.0537 20.6619 19.9798C20.8285 18.9848 20.1096 17.9592 19.1146 17.7663C18.9656 17.7356 19.0664 17.7268 19.5486 17.7225C20.0833 17.7181 20.2017 17.7049 20.3463 17.6304C20.5436 17.5296 20.697 17.2798 20.697 17.0606C20.697 16.8414 20.5436 16.5916 20.3463 16.4908C20.1754 16.4031 20.1009 16.4031 14.0783 16.4031C8.05574 16.4031 7.98122 16.4031 7.81028 16.3154C7.61303 16.2146 7.45962 15.9648 7.45962 15.7456C7.45962 15.5484 7.61303 15.2766 7.77959 15.189C7.91109 15.1144 8.29243 15.1101 14.0871 15.0881C20.228 15.0662 20.2543 15.0662 20.3726 14.9742C20.4384 14.926 20.5304 14.8383 20.5743 14.7769C20.6619 14.663 23.3269 5.38804 23.3269 5.20394C23.3269 5.0067 23.1647 4.75247 22.9763 4.65604C22.8053 4.56837 22.7352 4.56837 14.7007 4.56837H6.59612L6.35942 3.48572C6.18848 2.70112 6.09205 2.35923 6.01315 2.24088C5.82029 1.93843 5.83344 1.93843 3.47964 1.93843C1.48527 1.94282 1.38007 1.9472 1.22666 2.03048ZM21.7753 5.95786C21.7621 6.00169 21.258 7.7769 20.6488 9.90277L19.5442 13.7732H14.0958H8.64309L8.62117 13.6724C8.60802 13.6198 8.2223 11.8884 7.76644 9.82825C7.31059 7.76814 6.92486 6.03676 6.91171 5.97978L6.8898 5.88334H14.3413C21.4246 5.88334 21.7972 5.88773 21.7753 5.95786ZM9.7389 19.1207C9.93614 19.2215 10.0896 19.4714 10.0896 19.6905C10.0896 20.0237 9.7652 20.348 9.43207 20.348C9.09895 20.348 8.77459 20.0237 8.77459 19.6905C8.77459 19.4801 8.928 19.2215 9.11648 19.1251C9.32687 19.0111 9.52412 19.0111 9.7389 19.1207ZM19.0314 19.1207C19.2286 19.2215 19.382 19.4714 19.382 19.6905C19.382 20.0237 19.0577 20.348 18.7245 20.348C18.3914 20.348 18.067 20.0237 18.067 19.6905C18.067 19.4801 18.2205 19.2215 18.4089 19.1251C18.6193 19.0111 18.8166 19.0111 19.0314 19.1207Z" fill="black" fill-opacity="0.7"/>
</g>
<defs>
<clipPath id="clip0_141_2561">
<rect width="22.4422" height="22.4422" fill="white" transform="translate(0.884766 0.580078)"/>
</clipPath>
</defs>
</svg>
