<svg width="24" height="23" viewBox="0 0 24 23" fill="none" xmlns="http://www.w3.org/2000/svg">
<g clip-path="url(#clip0_514_2690)">
<path d="M4.632 1.53579C4.56187 1.5577 4.46544 1.60153 4.4216 1.6366C4.37777 1.66728 3.57126 3.05677 2.62448 4.71363L0.90625 7.73368L0.910633 8.08434C0.923783 8.69361 1.15171 9.34232 1.53744 9.85516C1.76098 10.1532 2.23875 10.5652 2.56311 10.7406L2.81296 10.8721V15.7638C2.81296 21.1551 2.79542 20.8395 3.0891 21.0149C3.22498 21.1025 3.37401 21.1025 12.1054 21.1025C20.8368 21.1025 20.9858 21.1025 21.1217 21.0149C21.4154 20.8395 21.3979 21.1551 21.3979 15.7638V10.8721L21.6565 10.7362C22.612 10.2277 23.2827 9.1407 23.3002 8.08434L23.3046 7.73368L21.6214 4.77499C20.6965 3.14882 19.8857 1.75933 19.8199 1.69358C19.7542 1.62345 19.627 1.55332 19.5306 1.5314C19.3027 1.47442 4.80733 1.48319 4.632 1.53579ZM20.4204 4.90649L21.7047 7.16386L16.9051 7.17701C14.2663 7.18139 9.94448 7.18139 7.30577 7.17701L2.50613 7.16386L3.79042 4.89773L5.07032 2.63159L12.1054 2.64036L19.1405 2.64913L20.4204 4.90649ZM6.16175 8.39993C5.83739 9.74996 4.36462 10.425 3.11978 9.7938C2.86556 9.66668 2.5412 9.37739 2.37025 9.13193C2.2519 8.9566 2.02397 8.43061 2.02397 8.32541C2.02397 8.29911 2.77789 8.28158 4.10601 8.28158H6.18805L6.16175 8.39993ZM11.4742 8.46568C11.4304 8.74182 11.1937 9.14946 10.9176 9.42561C10.0847 10.2584 8.71279 10.2277 7.91066 9.35986C7.6652 9.09686 7.44165 8.69799 7.38905 8.42184L7.36275 8.28158H9.43164H11.5049L11.4742 8.46568ZM16.8218 8.42184C16.6859 9.10125 16.0109 9.78065 15.2876 9.97351C14.5074 10.1839 13.5694 9.85078 13.0916 9.20206C12.9119 8.9566 12.7234 8.53581 12.7191 8.37801V8.28158H14.7836H16.8525L16.8218 8.42184ZM22.1605 8.44376C22.0992 8.73305 21.8537 9.14508 21.5951 9.40369C20.8763 10.1269 19.8111 10.2409 18.9608 9.69298C18.5268 9.41246 18.2419 9.02673 18.0841 8.50951L18.0272 8.32541H20.1092H22.1868L22.1605 8.44376ZM7.22687 10.2409C7.56438 10.574 7.97641 10.8239 8.44541 10.9817C8.9451 11.1526 9.65957 11.1789 10.1812 11.0474C10.7992 10.894 11.2288 10.6485 11.7022 10.1795L12.1098 9.77626L12.4911 10.1576C12.9207 10.5872 13.2801 10.8151 13.793 10.986C14.1085 11.0956 14.2094 11.1044 14.7792 11.1044C15.3622 11.1088 15.4411 11.0956 15.7654 10.986C15.9583 10.9159 16.2476 10.7844 16.4097 10.688C16.7034 10.517 17.1856 10.0831 17.3478 9.8464L17.4354 9.72367L17.6502 9.99104C18.1937 10.6661 19.1449 11.1263 20.0084 11.1307H20.3021V15.5577V19.9848H15.7654H11.2288V16.9648C11.2288 15.1238 11.2112 13.8571 11.1849 13.7168C11.0491 12.9979 10.5187 12.4369 9.80421 12.2484C9.44917 12.1564 7.6915 12.1564 7.30577 12.244C6.67459 12.3931 6.16175 12.8708 5.9382 13.5239C5.87245 13.7168 5.86369 14.0674 5.85054 16.8596L5.833 19.9848H4.86869H3.90876V15.5577V11.1307H4.20682C5.06594 11.1263 6.0171 10.6661 6.56062 9.99104L6.7754 9.72367L6.86306 9.8464C6.9069 9.91214 7.07346 10.0919 7.22687 10.2409ZM9.67272 13.3617C9.88311 13.4582 9.97516 13.5546 10.0672 13.7738C10.1242 13.9097 10.133 14.3348 10.133 16.9604V19.9848H8.55499H6.97703V16.9429C6.97703 14.8915 6.99018 13.8571 7.02524 13.7738C7.09099 13.5984 7.23564 13.4538 7.43727 13.3617C7.59068 13.2916 7.73094 13.2785 8.55499 13.2785C9.37466 13.2785 9.5193 13.2916 9.67272 13.3617Z" fill="#FB5607"/>
<path d="M13.3909 12.2304C13.1542 12.2874 12.7685 12.546 12.5931 12.7652C12.5186 12.8616 12.4178 13.0457 12.3696 13.1772C12.2819 13.4095 12.2776 13.4928 12.2907 14.9173L12.3039 16.412L12.4178 16.6575C12.5668 16.9731 12.8386 17.2448 13.1542 17.3938L13.3997 17.5078H15.3064H17.2131L17.4585 17.3938C17.7741 17.2448 18.0459 16.9731 18.1949 16.6575L18.3089 16.412V14.856V13.2999L18.1949 13.0588C18.0503 12.7564 17.7697 12.4759 17.4542 12.3224L17.2131 12.2041L15.394 12.1953C14.3421 12.1909 13.4961 12.2085 13.3909 12.2304ZM17.0158 13.3437C17.086 13.3788 17.1649 13.4489 17.1912 13.4928C17.2175 13.5454 17.235 14.0714 17.235 14.8779V16.1797L17.1079 16.3068L16.9808 16.4339H15.3064H13.632L13.5049 16.3068L13.3777 16.1797V14.8691C13.3777 13.4621 13.3865 13.4139 13.6144 13.3218C13.6627 13.2999 14.421 13.2824 15.2976 13.2824C16.6345 13.278 16.9106 13.2868 17.0158 13.3437Z" fill="#FB5607"/>
</g>
<defs>
<clipPath id="clip0_514_2690">
<rect width="22.4422" height="22.4422" fill="white" transform="translate(0.884766 0.0849609)"/>
</clipPath>
</defs>
</svg>
