<svg width="26" height="26" viewBox="0 0 26 26" fill="none" xmlns="http://www.w3.org/2000/svg">
<g clip-path="url('#clip0_210_3035')">
<path d="M2.5936 0.513943C1.70545 0.708539 0.857208 1.37216 0.453047 2.19046C0.0738341 2.95887 0.0937926 2.35512 0.0987823 11.5161C0.0987823 17.9378 0.113751 19.764 0.163648 19.8937C0.308347 20.2979 0.792342 20.4925 1.1965 20.3078C1.31625 20.253 2.43892 19.3548 3.69631 18.307L5.97159 16.4059H11.9791C18.6902 16.4059 18.3409 16.4209 19.0993 16.0467C19.9276 15.6375 20.5813 14.7943 20.7759 13.8812C20.8856 13.3673 20.8856 3.47779 20.7759 2.96386C20.5264 1.77133 19.5185 0.763425 18.3259 0.513943C17.827 0.409161 3.08259 0.409161 2.5936 0.513943ZM18.311 2.19046C18.6652 2.35512 18.9347 2.62456 19.0993 2.97883L19.2291 3.25825V8.42252V13.5868L19.0993 13.8662C18.9347 14.2205 18.6652 14.4899 18.311 14.6546L18.0316 14.7843L11.7446 14.8093C5.99155 14.8342 5.44269 14.8392 5.30797 14.919C5.22813 14.9639 4.38987 15.6425 3.45182 16.4259C2.50878 17.2093 1.73039 17.8529 1.71543 17.8529C1.70046 17.8529 1.69048 14.6147 1.69048 10.6529C1.69048 2.75429 1.67551 3.20336 1.98986 2.72435C2.16948 2.45491 2.44391 2.25034 2.80317 2.13059C3.04766 2.04077 3.44683 2.04077 10.5471 2.05075L18.0316 2.06073L18.311 2.19046Z" fill="black" fill-opacity="0.7"></path>
<path d="M5.35786 5.29937C5.02355 5.44407 4.83395 5.82828 4.9038 6.2025C4.94871 6.43701 5.19819 6.71144 5.42273 6.77631C5.54747 6.81622 7.18407 6.8262 10.582 6.81622C15.5168 6.80126 15.5567 6.80126 15.6914 6.69647C15.9559 6.50188 16.0357 6.34221 16.0357 6.02786C16.0357 5.71351 15.9559 5.55385 15.6914 5.35925C15.5567 5.25447 15.5168 5.25447 10.5321 5.24449C6.43063 5.23451 5.47761 5.24449 5.35786 5.29937Z" fill="black" fill-opacity="0.7"></path>
<path d="M5.35786 8.49273C5.02355 8.63743 4.83395 9.02164 4.9038 9.39586C4.94871 9.63037 5.19819 9.9048 5.42273 9.96967C5.54747 10.0096 6.70506 10.0196 8.98533 10.0096C12.3034 9.99462 12.3633 9.99462 12.498 9.88983C12.7625 9.69524 12.8423 9.53557 12.8423 9.22122C12.8423 8.90687 12.7625 8.7472 12.498 8.55261C12.3633 8.44783 12.3084 8.44783 8.93543 8.43785C6.16119 8.42787 5.47761 8.43785 5.35786 8.49273Z" fill="black" fill-opacity="0.7"></path>
<path d="M22.1232 6.89593C22.0384 6.93086 21.9087 7.03564 21.8338 7.12047C21.4047 7.62941 21.7839 8.42276 22.4625 8.42276C22.9216 8.42276 23.4904 8.73212 23.7449 9.11133C24.0592 9.59034 24.0442 9.1762 24.0343 16.6756L24.0193 23.5015L22.6422 22.4037C21.8837 21.805 21.2201 21.291 21.1702 21.2661C21.1153 21.2412 18.5457 21.2112 15.1876 21.1962L9.29985 21.1713L9.02043 21.0416C8.66617 20.8719 8.39673 20.6075 8.23706 20.2532C8.1223 20.0037 8.10234 19.889 8.07739 19.2403C8.05244 18.447 8.02251 18.3671 7.70816 18.1326C7.51356 17.9879 7.04454 17.9879 6.84994 18.1326C6.53559 18.3621 6.50565 18.4519 6.49069 19.1904C6.47073 20.0337 6.55056 20.4528 6.83996 21.0416C7.13435 21.6353 7.6383 22.1393 8.23207 22.4337C8.98551 22.8079 8.68613 22.7929 14.9581 22.7929H20.5665L22.4176 24.2749C23.4355 25.0932 24.3686 25.8117 24.4933 25.8765C24.7777 26.0262 25.0671 26.0063 25.3166 25.8167C25.6659 25.5472 25.6409 26.1559 25.6409 17.5089C25.6409 8.78701 25.6609 9.34585 25.2817 8.57744C24.8725 7.74916 24.0293 7.09552 23.1162 6.90092C22.6921 6.81111 22.3228 6.81111 22.1232 6.89593Z" fill="black" fill-opacity="0.7"></path>
</g>
<defs>
<clipPath id="clip0_210_3035">
<rect width="25.547" height="25.547" fill="white" transform="translate(0.0939941 0.439453)"></rect>
</clipPath>
</defs>
</svg>
