<svg width="26" height="27" viewBox="0 0 26 27" fill="none" xmlns="http://www.w3.org/2000/svg">
<g clip-path="url('#clip0_210_3058')">
<path d="M1.89555 0.65826C1.03733 0.827908 0.308846 1.56637 0.144188 2.44455C0.0743331 2.81379 0.0743331 23.9399 0.144188 24.3092C0.313836 25.2073 1.03733 25.9308 1.93547 26.1004C2.3047 26.1703 17.3435 26.1703 17.7127 26.1004C18.6108 25.9308 19.3343 25.2073 19.504 24.3092C19.5339 24.1445 19.5539 22.7474 19.5539 20.6418V17.2488L22.413 14.3748C25.0575 11.7203 25.282 11.4808 25.4117 11.1914C25.7011 10.5278 25.6961 9.89908 25.3968 9.25541C24.9976 8.40717 23.9847 7.86829 23.0716 8.02297C22.373 8.14272 22.2034 8.26746 20.8163 9.64959L19.5539 10.902V7.85332C19.5539 6.02711 19.5339 4.69987 19.504 4.5402C19.3892 3.9165 19.2445 3.72689 17.8375 2.31981C16.4304 0.912732 16.2408 0.768032 15.6171 0.65327C15.2828 0.593395 2.21489 0.593395 1.89555 0.65826ZM13.5663 4.05122C13.5663 5.98221 13.5663 6.00716 13.6761 6.20175C13.8956 6.59094 13.9006 6.59094 16.111 6.59094H18.057V9.4999V12.4039L16.3605 14.1004L14.664 15.7968L14.0902 17.5232C13.7759 18.4713 13.5164 19.3145 13.5164 19.3944C13.5214 19.7386 13.8956 20.1129 14.2399 20.1129C14.4794 20.1129 17.8025 18.9852 17.9422 18.8605L18.057 18.7507V21.4052C18.057 23.9649 18.052 24.0647 17.9572 24.2543C17.8923 24.384 17.7876 24.4888 17.6578 24.5537C17.4632 24.6534 17.3784 24.6534 9.82409 24.6534C2.42445 24.6534 2.17996 24.6485 2.00033 24.5586C1.89056 24.5038 1.77081 24.384 1.70096 24.2643L1.59118 24.0647V13.3719V2.67408L1.71094 2.47948C1.95543 2.07532 1.45646 2.10526 7.86815 2.10027H13.5663V4.05122ZM15.4474 2.15016C15.632 2.22002 17.8973 4.47534 17.9871 4.67991C18.0271 4.76972 18.057 4.89946 18.057 4.96931V5.09405H16.5601H15.0632V3.59716V2.10027H15.183C15.2528 2.10027 15.3676 2.12521 15.4474 2.15016ZM23.7452 9.58473C23.9597 9.6945 24.1444 9.9839 24.1444 10.2134C24.1444 10.4529 23.9597 10.7473 23.5606 11.1415L23.1714 11.5307L22.6325 10.9918L22.0986 10.4579L22.5078 10.0488C22.7373 9.82423 22.9918 9.60469 23.0716 9.56477C23.2762 9.455 23.5107 9.46498 23.7452 9.58473ZM20.3023 14.3997L18.5061 16.196L17.9722 15.6571L17.4333 15.1232L19.2296 13.327L21.0258 11.5307L21.5597 12.0646L22.0986 12.6035L20.3023 14.3997ZM16.9094 16.7449L17.4333 17.2688L17.2337 17.4634C17.0641 17.628 16.9244 17.6929 16.2657 17.9124C15.8416 18.0521 15.4873 18.1569 15.4774 18.1519C15.4724 18.142 15.5771 17.7877 15.7169 17.3636C15.9264 16.7349 16.0063 16.5602 16.151 16.4056C16.2507 16.3058 16.3456 16.221 16.3605 16.221C16.3755 16.221 16.62 16.4555 16.9094 16.7449Z" fill="black" fill-opacity="0.7"></path>
<path d="M3.49181 8.18287C3.28224 8.29264 3.08765 8.60699 3.08765 8.83153C3.08765 9.07103 3.27725 9.38039 3.4968 9.49016C3.67642 9.57997 3.881 9.58496 9.07522 9.58496C14.3792 9.58496 14.469 9.58496 14.6636 9.48517C14.8881 9.37041 15.0628 9.086 15.0628 8.83651C15.0628 8.58703 14.8881 8.30262 14.6636 8.18786C14.469 8.08807 14.3842 8.08807 9.06524 8.08807C3.96083 8.09306 3.65148 8.09805 3.49181 8.18287Z" fill="black" fill-opacity="0.7"></path>
<path d="M3.49181 11.1765C3.28224 11.2863 3.08765 11.6006 3.08765 11.8252C3.08765 12.0647 3.27725 12.374 3.4968 12.4838C3.67642 12.5736 3.85106 12.5786 7.57832 12.5786C11.3854 12.5786 11.4802 12.5786 11.6698 12.4788C11.8944 12.3641 12.069 12.0796 12.069 11.8302C12.069 11.5807 11.8944 11.2963 11.6698 11.1815C11.4802 11.0817 11.3854 11.0817 7.56834 11.0817C3.90096 11.0867 3.65148 11.0917 3.49181 11.1765Z" fill="black" fill-opacity="0.7"></path>
<path d="M3.49181 14.1702C3.28224 14.2799 3.08765 14.5943 3.08765 14.8188C3.08765 15.0583 3.27725 15.3677 3.4968 15.4775C3.67642 15.5673 3.85106 15.5723 7.57832 15.5723C11.3854 15.5723 11.4802 15.5723 11.6698 15.4725C11.8944 15.3577 12.069 15.0733 12.069 14.8238C12.069 14.5743 11.8944 14.2899 11.6698 14.1752C11.4802 14.0754 11.3854 14.0754 7.56834 14.0754C3.90096 14.0804 3.65148 14.0854 3.49181 14.1702Z" fill="black" fill-opacity="0.7"></path>
<path d="M3.49181 17.1638C3.28224 17.2736 3.08765 17.5879 3.08765 17.8125C3.08765 18.052 3.27725 18.3613 3.4968 18.4711C3.67642 18.5609 3.85106 18.5659 7.57832 18.5659C11.3854 18.5659 11.4802 18.5659 11.6698 18.4661C11.8944 18.3514 12.069 18.067 12.069 17.8175C12.069 17.568 11.8944 17.2836 11.6698 17.1688C11.4802 17.069 11.3854 17.069 7.56834 17.069C3.90096 17.074 3.65148 17.079 3.49181 17.1638Z" fill="black" fill-opacity="0.7"></path>
<path d="M9.47936 21.7546C9.26979 21.8644 9.0752 22.1788 9.0752 22.4033C9.0752 22.6428 9.2648 22.9522 9.48435 23.0619C9.65898 23.1517 9.81366 23.1567 12.069 23.1567C14.3742 23.1567 14.474 23.1517 14.6636 23.0569C14.8881 22.9422 15.0628 22.6578 15.0628 22.4083C15.0628 22.1588 14.8881 21.8744 14.6636 21.7596C14.474 21.6648 14.3792 21.6598 12.059 21.6598C9.83362 21.6648 9.63404 21.6698 9.47936 21.7546Z" fill="black" fill-opacity="0.7"></path>
</g>
<defs>
<clipPath id="clip0_210_3058">
<rect width="25.547" height="25.547" fill="white" transform="translate(0.0939941 0.603516)"></rect>
</clipPath>
</defs>
</svg>
