<svg width="26" height="39" viewBox="0 0 26 39" fill="none" xmlns="http://www.w3.org/2000/svg">
<g clip-path="url('#clip0_210_3017')">
<rect width="25.547" height="37.3834" transform="translate(0.0939941 0.72998)" fill="white"></rect>
<path d="M1.67066 0.810264C1.10683 1.0074 0.552978 1.69374 0.278548 2.54071L0.118879 3.0299L0.10391 9.08279C0.0889413 15.6906 0.0889413 15.6249 0.37834 16.3477C0.572936 16.8296 0.927201 17.2969 1.29144 17.5525L1.61577 17.7788H5.95676H10.2977L10.5971 17.5671C10.9813 17.2896 11.4104 16.6617 11.6 16.0995L11.7447 15.6614V9.30914V2.95689L11.5851 2.46769C11.3206 1.64993 10.8466 1.07312 10.2479 0.846771C9.99338 0.744551 9.41458 0.729948 5.90686 0.73725C3.6715 0.744551 1.78043 0.773757 1.67066 0.810264Z" fill="black" fill-opacity="0.7"></path>
<path d="M15.4619 0.846771C14.8881 1.07312 14.4091 1.66453 14.1497 2.46769L13.99 2.95689V9.30914V15.6614L14.1347 16.0995C14.3243 16.6617 14.7534 17.2896 15.1376 17.5671L15.437 17.7788H19.778H24.119L24.4533 17.5452C25.0171 17.1582 25.4113 16.4572 25.566 15.5738C25.6358 15.1868 25.6408 14.3763 25.6308 9.07549L25.6159 3.0226L25.4262 2.46769C25.1368 1.60612 24.6329 1.0074 24.0341 0.802963C23.8994 0.759154 22.2728 0.73725 19.778 0.73725C16.38 0.73725 15.6915 0.759154 15.4619 0.846771Z" fill="black" fill-opacity="0.7"></path>
<path d="M1.56622 21.1302C0.852697 21.4661 0.348743 22.2327 0.169116 23.2695C0.099261 23.6565 0.0942714 24.467 0.104251 29.7605L0.11922 35.8134L0.278888 36.3026C0.498432 36.989 0.822759 37.4708 1.2868 37.8067L1.66102 38.0769L5.79743 38.0988C9.41991 38.1134 9.97376 38.1061 10.2382 38.0039C10.842 37.7775 11.321 37.2007 11.5854 36.3756L11.7451 35.8864V29.5342V23.1819L11.6004 22.7438C11.4108 22.1816 10.9817 21.5537 10.5975 21.2763L10.2981 21.0645L6.03194 21.0499C2.6839 21.0426 1.72089 21.0572 1.56622 21.1302Z" fill="black" fill-opacity="0.7"></path>
<path d="M15.3272 21.1667C14.8083 21.4442 14.3842 22.0137 14.1247 22.7803L13.99 23.1819V29.5342V35.8864L14.1497 36.3756C14.4141 37.2007 14.8931 37.7775 15.4969 38.0039C15.7613 38.1061 16.3152 38.1134 19.9376 38.0988L24.0741 38.0769L24.4483 37.8067C24.9123 37.4708 25.2366 36.989 25.4562 36.3026L25.6159 35.8134L25.6308 29.7605C25.6408 24.467 25.6358 23.6565 25.566 23.2695C25.4113 22.3861 25.0171 21.6851 24.4533 21.2982L24.119 21.0645L19.8528 21.0499C15.7913 21.0353 15.5767 21.0353 15.3272 21.1667Z" fill="black" fill-opacity="0.7"></path>
</g>
<defs>
<clipPath id="clip0_210_3017">
<rect width="25.547" height="37.3834" fill="white" transform="translate(0.0939941 0.72998)"></rect>
</clipPath>
</defs>
</svg>
