<svg width="26" height="26" viewBox="0 0 26 26" fill="none" xmlns="http://www.w3.org/2000/svg">
<g clip-path="url('#clip0_210_3043')">
<path d="M2.73388 4.42988C2.48936 4.59955 2.36959 4.85904 2.39954 5.16843C2.42948 5.47284 2.55423 5.64749 2.83868 5.79221L3.05825 5.90699H9.43577H15.8133V8.84623V11.7805L15.9231 11.9452C15.9879 12.035 16.1027 12.1598 16.1776 12.2146C16.3173 12.3194 16.3622 12.3194 19.5959 12.3344L22.8745 12.3494L23.4583 13.1079L24.0472 13.8664V15.9224V17.9834H23.2787H22.5102L22.4054 17.669C22.1259 16.8356 21.3025 16.0272 20.4293 15.7377C18.7675 15.1838 16.9161 16.0771 16.3672 17.6939L16.2774 17.9584H13.897H11.5167L11.377 17.5991C11.0975 16.8905 10.5636 16.3016 9.87491 15.9423C9.39085 15.6878 8.9567 15.5781 8.42774 15.5781C7.86384 15.5731 7.48957 15.6579 7.00552 15.8875C6.22206 16.2667 5.58331 16.9703 5.34876 17.7189L5.26892 17.9784L4.11618 17.9933C2.84866 18.0083 2.75883 18.0283 2.5193 18.3476C2.3646 18.5572 2.36959 19.0463 2.52928 19.2708C2.75384 19.5852 2.83868 19.6052 4.12117 19.6202L5.27391 19.6401L5.3837 19.9295C5.62323 20.5633 6.26198 21.2919 6.8658 21.6162C7.50954 21.9556 8.45768 22.0753 9.15132 21.9007C10.1643 21.6462 11.0127 20.8977 11.377 19.9445L11.4967 19.6301H13.897H16.2923L16.3822 19.9046C16.4969 20.2739 16.9012 20.8677 17.2505 21.1771C17.5748 21.4665 18.2934 21.8408 18.6976 21.9206C19.1168 22.0055 19.7905 21.9855 20.2296 21.8757C21.1678 21.6362 21.9962 20.9026 22.3655 19.9794L22.4952 19.6551L23.7827 19.6301C25.0153 19.6052 25.0802 19.6002 25.2548 19.4904C25.3596 19.4255 25.4794 19.2908 25.5393 19.161C25.6391 18.9564 25.644 18.8816 25.644 16.2318C25.644 14.605 25.6241 13.4472 25.5941 13.3424C25.5642 13.2426 25.2099 12.7386 24.7658 12.1697L23.9873 11.1717L22.7896 8.77637C22.1309 7.45895 21.5371 6.30621 21.4672 6.21139C21.2377 5.91198 21.1928 5.90699 19.2116 5.90699H17.4201L17.4002 5.36305C17.3852 4.75923 17.3353 4.64446 17.0109 4.4199L16.8463 4.31011H9.8799H2.91353L2.73388 4.42988ZM21.1528 9.10074C21.592 9.97902 21.9513 10.7076 21.9513 10.7226C21.9513 10.7375 20.9283 10.7475 19.6807 10.7475H17.4102V9.12569V7.50386H18.8823H20.3544L21.1528 9.10074ZM8.96169 17.2897C9.34095 17.4344 9.6753 17.7538 9.84996 18.143C9.96972 18.4125 9.98469 18.4874 9.96473 18.8517C9.93479 19.3457 9.78508 19.675 9.44575 19.9695C8.71717 20.6132 7.59437 20.4735 7.0704 19.6701C6.62127 18.9864 6.70611 18.1929 7.28997 17.6241C7.72911 17.1999 8.36786 17.0701 8.96169 17.2897ZM20.0749 17.3296C21.068 17.8137 21.2976 19.1561 20.5141 19.9146C19.7406 20.6681 18.4581 20.4635 17.9741 19.5154C17.5199 18.6121 17.9741 17.5492 18.9571 17.2298C19.2066 17.15 19.8155 17.2049 20.0749 17.3296Z" fill="#4D4D4D"></path>
<path d="M1.86053 7.67357C1.55612 7.80831 1.35651 8.21252 1.43636 8.55684C1.49624 8.82133 1.62599 8.98601 1.86053 9.10078C2.07511 9.20059 2.12501 9.20059 5.72297 9.1906C9.33091 9.17563 9.37083 9.17563 9.51056 9.07084C9.58541 9.01595 9.70019 8.89119 9.76506 8.80137C9.99461 8.46203 9.85488 7.92309 9.47562 7.7085C9.29099 7.60371 9.26604 7.60371 5.65311 7.60371C2.71885 7.6087 1.98528 7.61868 1.86053 7.67357Z" fill="#4D4D4D"></path>
<path d="M0.543205 10.8571C0.238801 11.0118 0.0841033 11.2863 0.109055 11.6107C0.134006 11.8801 0.243791 12.0648 0.493303 12.2295L0.65798 12.3442H4.33578H8.01359L8.17826 12.2295C8.41779 12.0698 8.53756 11.8851 8.56251 11.6406C8.59245 11.3212 8.42279 11.0069 8.12836 10.8571L7.90879 10.7474H4.33578H0.762775L0.543205 10.8571Z" fill="#4D4D4D"></path>
<path d="M1.80579 14.041C1.38162 14.3005 1.29179 14.8943 1.62614 15.2487C1.89561 15.5381 1.90559 15.5381 4.07634 15.5381C6.06246 15.5381 6.06745 15.5381 6.28702 15.4233C6.72616 15.1888 6.85591 14.6049 6.54651 14.2406C6.29201 13.9362 6.33193 13.9412 4.05139 13.9412C2.07027 13.9412 1.9555 13.9462 1.80579 14.041Z" fill="#4D4D4D"></path>
</g>
<defs>
<clipPath id="clip0_210_3043">
<rect width="25.55" height="25.55" fill="white" transform="translate(0.0939941 0.367676)"></rect>
</clipPath>
</defs>
</svg>
