<svg width="73" height="72" viewBox="0 0 73 72" fill="none" xmlns="http://www.w3.org/2000/svg">
<g clip-path="url('#clip0_210_2805')">
<path d="M16.665 18.5859C16.3291 18.7578 16.0557 19.2187 16.0557 19.5937C16.0557 19.9844 16.3291 20.4297 16.6807 20.6094C16.9697 20.7578 17.1338 20.7656 19.5479 20.7656H22.1182L24.9385 30.6562L27.7666 40.5469L27.54 41C27.1494 41.7734 26.9775 42.3828 26.9775 43.0312C26.9775 44.6562 28.0322 46.0156 29.6104 46.4297C29.9463 46.5156 30.5088 46.5469 31.6807 46.5547C33.1182 46.5625 33.2432 46.5703 32.8916 46.6562C32.2432 46.8125 31.751 47.0937 31.2432 47.5937C29.8604 48.9844 29.8604 51.1484 31.2432 52.5234C32.6416 53.9141 34.7979 53.9141 36.1729 52.5312C37.2432 51.4531 37.5088 49.8906 36.8604 48.5156C36.4541 47.6484 35.3916 46.8125 34.4697 46.625C34.2822 46.5937 36.5166 46.5625 39.6104 46.5625C44.0869 46.5625 45.0088 46.5781 44.6885 46.6562C44.04 46.8125 43.5479 47.0937 43.04 47.5937C41.6572 48.9844 41.6572 51.1484 43.04 52.5234C44.4385 53.9141 46.5947 53.9141 47.9697 52.5312C49.3604 51.1328 49.3604 48.9844 47.9697 47.5937C47.4775 47.0937 46.9775 46.8125 46.3291 46.6562C45.9932 46.5703 46.2432 46.5625 48.1885 46.5547C50.2822 46.5469 50.4619 46.5391 50.7432 46.3906C51.0947 46.2109 51.3682 45.7656 51.3682 45.375C51.3682 44.9844 51.0947 44.5391 50.7432 44.3594C50.4385 44.2031 50.3057 44.2031 40.3369 44.2031C30.876 44.2031 30.2197 44.1953 29.9619 44.0625C29.3291 43.75 29.1729 43.0625 29.5479 42.2891L29.7588 41.8594H40.0947C50.3447 41.8594 50.4385 41.8594 50.751 41.7031C50.9697 41.5859 51.1104 41.4453 51.2119 41.2109C51.4072 40.7891 56.0557 24.5078 56.0557 24.2422C56.0557 23.8906 55.7666 23.4375 55.4307 23.2656C55.126 23.1094 55.001 23.1094 40.1729 23.1094H25.2197L24.6963 21.25C24.0713 19.0469 23.9697 18.8203 23.5635 18.5937C23.2666 18.4219 23.2041 18.4219 20.1104 18.4219C17.126 18.4297 16.9385 18.4375 16.665 18.5859Z" fill="#FB5607"></path>
</g>
<rect x="0.555664" y="0.5" width="71" height="71" rx="35.5" stroke="black" stroke-opacity="0.7"></rect>
<defs>
<clipPath id="clip0_210_2805">
<rect width="40" height="40" fill="white" transform="translate(16.0557 16)"></rect>
</clipPath>
</defs>
</svg>
