<svg width="73" height="72" viewBox="0 0 73 72" fill="none" xmlns="http://www.w3.org/2000/svg">
<g clip-path="url('#clip0_210_2834')">
<path d="M35.2903 19.1328C34.595 19.25 33.6809 19.5781 32.9934 19.9609C32.1106 20.4531 30.9153 21.6406 30.4387 22.4844C28.8684 25.2734 29.3137 28.6406 31.5559 30.875C32.884 32.2109 34.5403 32.8906 36.4309 32.8906C38.3215 32.8906 39.9778 32.2109 41.3059 30.875C43.5481 28.6406 43.9934 25.2734 42.4231 22.4844C41.9465 21.6406 40.7512 20.4531 39.8684 19.9609C38.4778 19.1875 36.7981 18.8828 35.2903 19.1328Z" fill="#FB5607"></path>
<path d="M22.9307 25.6874C21.3916 26.0937 20.0635 27.2577 19.4541 28.7343C19.165 29.4374 19.0791 29.9062 19.0791 30.7343C19.0791 31.5702 19.2275 32.2343 19.5947 32.9921C20.2354 34.3202 21.5322 35.3671 22.9932 35.7343C23.6572 35.9062 24.8291 35.8984 25.4932 35.7265C26.6494 35.4296 27.8682 34.5702 28.5322 33.5859C29.5869 32.0234 29.6885 29.9531 28.7979 28.2421C28.3994 27.4765 27.4541 26.5312 26.6885 26.1327C25.5479 25.539 24.1416 25.3749 22.9307 25.6874Z" fill="#FB5607"></path>
<path d="M47.3057 25.6874C45.9853 26.039 44.6807 27.0624 44.0635 28.2421C43.3525 29.6093 43.2588 31.2109 43.8213 32.6249C44.415 34.1015 45.8057 35.3202 47.3682 35.7265C48.0322 35.8984 49.2041 35.9062 49.8682 35.7343C51.7119 35.2656 53.1807 33.7968 53.6572 31.9452C53.8057 31.3749 53.8291 30.2109 53.7041 29.6327C53.29 27.7343 51.7744 26.164 49.8994 25.6874C49.1182 25.4843 48.0791 25.4843 47.3057 25.6874Z" fill="#FB5607"></path>
<path d="M31.7039 34.4766C30.5164 34.7422 29.7351 35.1797 28.8445 36.0703C28.1023 36.8125 27.7039 37.4453 27.3757 38.4062L27.1726 39.0078L27.1492 45.5703C27.1336 52.0234 27.1336 52.1406 27.2898 52.3906C27.3757 52.5312 27.5554 52.7109 27.6961 52.7969C27.9461 52.9531 28.1101 52.9531 36.4304 52.9531C44.7507 52.9531 44.9148 52.9531 45.1648 52.7969C45.3054 52.7109 45.4851 52.5312 45.5711 52.3906C45.7273 52.1406 45.7273 52.0234 45.7117 45.5703L45.6882 39.0078L45.4851 38.4062C45.157 37.4453 44.7586 36.8125 44.0164 36.0703C43.2742 35.3281 42.6414 34.9297 41.6804 34.6016L41.0789 34.3984L36.6257 34.3828C33.1023 34.375 32.0711 34.3906 31.7039 34.4766Z" fill="#FB5607"></path>
<path d="M21.4463 37.4141C19.2041 37.7031 17.3604 39.2969 16.6494 41.5469C16.4697 42.1328 16.4697 42.1484 16.4697 46.1953V50.2578L16.6494 50.7031C17.0166 51.6172 17.7744 52.3672 18.6807 52.7344C19.1104 52.9062 19.2041 52.9141 22.0713 52.9375L25.0166 52.9609L24.9229 52.7031C24.8057 52.3594 24.7432 40.4219 24.8604 39.3594C24.9072 38.9531 25.001 38.4062 25.0713 38.1484C25.1416 37.8906 25.2197 37.6016 25.2354 37.5L25.2744 37.3281L23.6104 37.3359C22.6885 37.3437 21.7119 37.375 21.4463 37.4141Z" fill="#FB5607"></path>
<path d="M47.626 37.5C47.6416 37.6016 47.7197 37.8906 47.79 38.1484C47.8604 38.4062 47.9541 38.9531 48.001 39.3594C48.1182 40.4219 48.0557 52.3594 47.9385 52.7031L47.8447 52.9609L50.79 52.9375C53.6572 52.9141 53.751 52.9062 54.1807 52.7344C55.0869 52.3672 55.8447 51.6172 56.2119 50.7031L56.3916 50.2578V46.1953C56.3916 42.1406 56.3916 42.1328 56.2041 41.5469C55.6182 39.6719 54.2979 38.2812 52.5244 37.6797C51.7354 37.4141 50.9385 37.3281 49.1416 37.3281H47.5869L47.626 37.5Z" fill="#FB5607"></path>
</g>
<rect x="0.930664" y="0.5" width="71" height="71" rx="35.5" stroke="#707070"></rect>
<defs>
<clipPath id="clip0_210_2834">
<rect width="40" height="40" fill="white" transform="translate(16.4307 16)"></rect>
</clipPath>
</defs>
</svg>
