<svg width="73" height="72" viewBox="0 0 73 72" fill="none" xmlns="http://www.w3.org/2000/svg">
<g clip-path="url('#clip0_210_2812')">
<path d="M29.4021 22.7422C25.3786 24.7187 22.113 26.375 22.1443 26.4062C22.238 26.5 36.7224 34.1406 36.8161 34.1484C36.8943 34.1484 51.4411 26.2031 51.5505 26.0937C51.613 26.0312 37.0271 19.125 36.8474 19.125C36.7849 19.1328 33.4333 20.7578 29.4021 22.7422Z" fill="#FB5607"></path>
<path d="M46.238 31.6953C42.1052 33.9609 38.699 35.8359 38.6755 35.8594C38.6521 35.8828 39.4802 36.9609 40.5115 38.2578L42.3865 40.6016L48.738 36.9688C52.2302 34.9688 55.4802 33.1016 55.9646 32.8281L56.8396 32.3203L56.5115 31.7969C55.1365 29.5938 53.8318 27.5625 53.8005 27.5625C53.7771 27.5703 50.3787 29.4219 46.238 31.6953Z" fill="#FB5607"></path>
<path d="M18.3396 30.0938L16.8552 32.3203L17.1052 32.4688C17.2458 32.5547 20.3787 34.3516 24.074 36.4688C27.7693 38.5859 30.9021 40.375 31.0349 40.4609L31.2771 40.6094L33.0974 38.3281C34.0974 37.0781 34.9177 36 34.9255 35.9453C34.9333 35.8594 28.3787 32.3438 21.0896 28.5312L19.824 27.8672L18.3396 30.0938Z" fill="#FB5607"></path>
<path d="M20.5974 41.1093V44.9686L28.1052 48.9296C32.2302 51.1093 35.6208 52.8749 35.6443 52.8593C35.6599 52.8358 35.6677 49.6874 35.6599 45.8593L35.6365 38.8983L34.0349 40.9061C33.1521 42.0077 32.3162 42.9921 32.1677 43.0858C31.8396 43.3046 31.4021 43.3202 31.0037 43.1171C30.8396 43.0311 28.4646 41.6796 25.7224 40.1093C22.9724 38.539 20.699 37.2499 20.6677 37.2499C20.6287 37.2499 20.5974 38.9843 20.5974 41.1093Z" fill="#FB5607"></path>
<path d="M47.6677 40.2656C42.0427 43.4922 42.1755 43.4297 41.5818 43.1484C41.4099 43.0625 40.8005 42.3672 39.6912 40.9844L38.0583 38.9375L38.0349 42.4297C38.0271 44.3516 38.0271 47.4844 38.0349 49.3906L38.0583 52.8594L45.5427 48.75L53.0193 44.6484V40.9453C53.0193 38.9141 52.9958 37.25 52.9646 37.2578C52.9255 37.2578 50.5505 38.6094 47.6677 40.2656Z" fill="#FB5607"></path>
</g>
<rect x="1.34741" y="0.5" width="71" height="71" rx="35.5" stroke="#707070"></rect>
<defs>
<clipPath id="clip0_210_2812">
<rect width="40" height="40" fill="white" transform="translate(16.8474 16)"></rect>
</clipPath>
</defs>
</svg>
