<svg width="73" height="72" viewBox="0 0 73 72" fill="none" xmlns="http://www.w3.org/2000/svg">
<path d="M36.2875 16.0705C35.9828 16.2033 35.7875 16.5236 35.1078 18.0158C34.7328 18.8517 34.389 19.547 34.3422 19.5627C34.2953 19.5783 33.5922 19.6564 32.7718 19.7502C30.9906 19.9455 30.7718 19.9923 30.514 20.3048C30.2953 20.5548 30.2406 21.0314 30.389 21.3048C30.4281 21.383 31.0375 21.9767 31.7406 22.6252L33.0218 23.8048L32.6703 25.5705C32.3265 27.2814 32.3187 27.3439 32.4437 27.6095C32.6156 27.9689 33.0062 28.2033 33.3578 28.1642C33.514 28.1408 34.264 27.7736 35.1 27.297C35.9125 26.8439 36.6078 26.4689 36.6468 26.4689C36.6859 26.4689 37.3812 26.8439 38.1781 27.297C39.0297 27.7814 39.7562 28.1408 39.9203 28.1642C40.2718 28.2033 40.6625 27.9689 40.8343 27.6095C40.9593 27.3439 40.9515 27.2814 40.6078 25.5705L40.2562 23.8048L41.4984 22.6642C42.1781 22.0392 42.7875 21.4533 42.85 21.3673C43.1234 20.9767 42.9281 20.2892 42.475 20.047C42.3812 20.0002 41.5297 19.8673 40.5843 19.758L38.8656 19.5548L38.1625 18.0158C37.7797 17.1642 37.3656 16.383 37.2562 16.2658C37.0375 16.047 36.5609 15.9533 36.2875 16.0705Z" fill="#FB5607"></path>
<path d="M23.8345 20.5078C23.686 20.6484 23.4048 21.1719 23.061 21.9375L22.5142 23.1484L21.3579 23.2891C19.6704 23.4844 19.686 23.4844 19.397 23.7734C19.1782 23.9922 19.1392 24.0859 19.1392 24.4062C19.1392 24.8125 19.2017 24.8906 20.6704 26.2344L21.311 26.8203L21.0298 28.2266C20.7642 29.5938 20.7563 29.6406 20.8813 29.9062C20.9595 30.0625 21.1157 30.25 21.2407 30.3203C21.6548 30.5625 21.9048 30.5 23.1704 29.7891C23.8267 29.4219 24.397 29.125 24.436 29.125C24.4751 29.125 25.0376 29.4219 25.6782 29.7891C26.4751 30.2422 26.936 30.4531 27.1001 30.4531C27.6235 30.4531 28.0454 30.0469 28.0454 29.5391C28.0454 29.4219 27.936 28.7656 27.7954 28.0781L27.5532 26.8359L28.6157 25.8125C29.7876 24.6875 29.8813 24.5156 29.647 24.0156C29.436 23.5703 29.2485 23.5 27.7329 23.3203L26.3423 23.1562L25.7798 21.9219C25.1313 20.5078 24.9517 20.2969 24.4048 20.2969C24.1392 20.2969 24.0142 20.3438 23.8345 20.5078Z" fill="#FB5607"></path>
<path d="M48.2952 20.4922C48.139 20.625 47.8812 21.0938 47.4905 21.9375C47.1155 22.7656 46.8812 23.1875 46.7952 23.1875C46.7327 23.1875 46.1077 23.2578 45.4124 23.3359C44.0374 23.5 43.8421 23.5781 43.6312 24.0156C43.3968 24.5156 43.4905 24.6875 44.6624 25.8125L45.7249 26.8359L45.4827 28.0781C45.3421 28.7578 45.2327 29.4219 45.2327 29.5391C45.2327 30.0469 45.6546 30.4531 46.178 30.4531C46.3421 30.4531 46.803 30.2422 47.5999 29.7891C48.2405 29.4219 48.803 29.125 48.8421 29.125C48.8812 29.125 49.4515 29.4219 50.1077 29.7891C51.3733 30.5 51.6233 30.5625 52.0374 30.3203C52.1624 30.25 52.3187 30.0625 52.3968 29.9062C52.5218 29.6406 52.514 29.5938 52.2483 28.2266L51.9671 26.8203L52.5687 26.2734C52.8968 25.9766 53.3812 25.5156 53.6546 25.2578C54.1077 24.8047 54.139 24.7578 54.139 24.4141C54.139 23.9922 53.8812 23.6328 53.4905 23.5078C53.3499 23.4688 52.6937 23.375 52.0296 23.3047C51.3655 23.2344 50.7952 23.1484 50.7718 23.125C50.7405 23.0938 50.4827 22.5391 50.2015 21.8984C49.5921 20.5312 49.3968 20.2969 48.8733 20.2969C48.6155 20.2969 48.4671 20.3516 48.2952 20.4922Z" fill="#FB5607"></path>
<path d="M36.1782 28.633C35.8501 28.7971 35.5142 29.2502 35.4048 29.6877C35.3579 29.8752 35.2485 30.4455 35.1548 30.9534C34.7251 33.383 33.4126 36.1174 31.8267 37.8987L31.561 38.1877V46.9768V55.758L31.9751 55.883C32.3423 55.9924 33.3032 56.0002 39.8892 55.9846L47.3813 55.9612L47.9048 55.7034C48.5063 55.4065 48.9204 54.9846 49.2095 54.3674C49.4829 53.7815 49.4985 52.7971 49.2407 52.2346L49.0767 51.8752L49.3501 51.6096C49.7095 51.2659 50.061 50.5159 50.1235 49.9846C50.1782 49.5237 50.0142 48.6877 49.811 48.383C49.7173 48.2424 49.7329 48.1955 49.936 47.9534C50.061 47.8049 50.2642 47.5002 50.3735 47.2893C50.561 46.9377 50.5845 46.8127 50.5845 46.1174C50.5845 45.3909 50.5688 45.3049 50.3423 44.8987L50.1079 44.469L50.3657 44.094C51.3267 42.6955 50.7798 40.7502 49.2329 40.0393C48.8735 39.8674 48.811 39.8674 44.1157 39.844C39.6548 39.8284 39.3657 39.8127 39.4126 39.6877C39.7876 38.7112 40.311 36.5002 40.4751 35.1877C40.5923 34.2424 40.5298 32.633 40.3423 31.9377C39.9438 30.3987 39.0298 29.2502 37.772 28.6877C37.2485 28.4612 36.5767 28.4377 36.1782 28.633Z" fill="#FB5607"></path>
<path d="M21.022 39.2269C20.647 39.3675 20.1782 39.7894 19.9751 40.1644L19.8032 40.4925V47.5628V54.6331L19.9751 54.9534C20.2017 55.3831 20.7017 55.805 21.1157 55.9144C21.3501 55.9847 22.4751 56.0003 25.0376 55.9847L28.6313 55.9613L28.9985 55.7425C29.2017 55.6253 29.436 55.43 29.522 55.305C29.686 55.0784 29.686 55.0316 29.686 47.5628C29.686 40.0941 29.686 40.0472 29.522 39.8206C29.436 39.6956 29.2017 39.5003 28.9985 39.3831L28.6313 39.1644L24.9595 39.1488C22.2017 39.1409 21.2251 39.1566 21.022 39.2269ZM24.1704 41.7347C24.5298 41.8831 24.686 42.1409 24.686 42.5628C24.686 43.2191 24.311 43.5003 23.436 43.5003C22.7954 43.5003 22.4751 43.3675 22.3032 43.0316C22.0532 42.555 22.2173 41.9769 22.6704 41.7581C22.9907 41.5941 23.8188 41.5863 24.1704 41.7347Z" fill="#FB5607"></path>
<rect x="1.13916" y="0.5" width="71" height="71" rx="35.5" stroke="#707070"></rect>
</svg>
