<svg width="1003" height="215" viewBox="0 0 1003 215" fill="none" xmlns="http://www.w3.org/2000/svg">
<path d="M0.567383 128.811H81.028V214.703H0.567383V128.811Z" fill="#FB5607"></path>
<path d="M102.94 203.026H183.401V214.703H102.94V203.026Z" fill="#FB5607"></path>
<path d="M205.314 208.735H285.775V214.703H205.314V208.735Z" fill="#FB5607"></path>
<path d="M307.687 0.103027H388.148V214.703H307.687V0.103027Z" fill="#FB5607"></path>
<path d="M410.061 83.3999H490.522V214.703H410.061V83.3999Z" fill="#FB5607"></path>
<path d="M512.434 181.229H592.895V214.703H512.434V181.229Z" fill="#FB5607"></path>
<path d="M614.807 190.83H695.268V214.703H614.807V190.83Z" fill="#FB5607"></path>
<path d="M717.181 167.216H797.642V214.703H717.181V167.216Z" fill="#FB5607"></path>
<path d="M819.554 148.014H900.014V214.703H819.554V148.014Z" fill="#FB5607"></path>
<path d="M921.927 86.2544H1002.39V214.703H921.927V86.2544Z" fill="#FB5607"></path>
</svg>
