<svg width="26" height="27" viewBox="0 0 26 27" fill="none" xmlns="http://www.w3.org/2000/svg">
<path d="M15.7371 1.83617C15.5325 1.92598 15.323 2.18045 15.288 2.38004C15.2681 2.46985 15.2631 2.96882 15.2731 3.49772C15.288 4.54554 15.298 4.58546 15.6323 4.82995C15.8269 4.97465 16.2959 4.97465 16.4905 4.82995C16.8298 4.57548 16.8348 4.5655 16.8348 3.363C16.8348 2.34012 16.8298 2.26528 16.73 2.13555C16.6751 2.0607 16.5704 1.95093 16.5005 1.90103C16.3358 1.77629 15.9367 1.74136 15.7371 1.83617Z" fill="black" fill-opacity="0.7"></path>
<path d="M11.3461 3.23311C11.2663 3.26804 11.1465 3.35286 11.0866 3.41773C11.0268 3.48259 9.85419 5.66806 8.47206 8.27764L5.96726 13.0178L4.41049 14.5895C2.97847 16.0415 2.83876 16.1912 2.64915 16.5654C2.53439 16.79 2.40965 17.1143 2.36474 17.2889C2.27992 17.6532 2.26994 18.4016 2.34478 18.7259C2.3847 18.8956 2.37971 18.9605 2.32482 19.0253C2.17513 19.19 1.94561 19.669 1.83584 20.0282C1.68615 20.5072 1.67617 21.3006 1.81089 21.7447C1.98054 22.3135 2.22503 22.7226 2.65913 23.1468C3.30279 23.7854 3.98138 24.0699 4.85956 24.0699C5.54813 24.0699 6.17683 23.8753 6.69575 23.511C6.82049 23.4212 6.8654 23.4162 7.14981 23.4661C7.80345 23.5809 8.51198 23.4811 9.06084 23.2017L9.31032 23.0769L10.3033 24.0798C10.8471 24.6287 11.4259 25.1776 11.5906 25.2973C12.6035 26.0557 14.0156 25.7164 14.5744 24.5788C14.7291 24.2694 14.739 24.2146 14.739 23.7206C14.739 22.9023 14.6991 22.8374 13.337 21.4752L12.2193 20.3476L12.4787 20.0931C12.7083 19.8636 13.332 19.5193 17.4983 17.3139C20.1179 15.9317 22.3033 14.7542 22.3582 14.7043C22.5977 14.4848 22.6826 13.9908 22.5179 13.7413C22.3483 13.4868 12.1893 3.35286 12.0097 3.25806C11.7952 3.14829 11.5606 3.13831 11.3461 3.23311ZM16.186 9.59989C18.9952 12.4091 20.4572 13.906 20.4272 13.9359C20.3973 13.9658 18.5811 14.9388 16.3856 16.1014L12.3939 18.222L9.97893 15.812L7.56395 13.402L9.7045 9.3554C10.8821 7.13002 11.855 5.3088 11.87 5.3088C11.885 5.3088 13.8259 7.23979 16.186 9.59989ZM9.85918 20.4174C8.502 21.7796 8.37227 21.8744 7.80345 21.9143C7.52902 21.9293 7.38931 21.9093 7.1548 21.8245C6.87538 21.7197 6.76061 21.6149 5.45333 20.3077C4.16101 19.0153 4.04126 18.8856 3.95644 18.6311C3.82172 18.232 3.84167 17.7679 4.00633 17.4087C4.1161 17.1692 4.34563 16.9097 5.34356 15.9018L6.55105 14.6843L8.81136 16.9446L11.0717 19.205L9.85918 20.4174ZM5.23378 22.4432C5.23378 22.4682 5.04917 22.4732 4.82463 22.4632C4.33066 22.4382 4.00633 22.2935 3.71693 21.9742C3.3976 21.6199 3.23294 21.101 3.31277 20.6919L3.3477 20.5122L4.29074 21.4553C4.80966 21.9742 5.23378 22.4183 5.23378 22.4432ZM13.1673 23.7306C13.1673 23.8703 13.1374 23.9401 13.0376 24.015C12.7681 24.2245 12.7282 24.1996 11.6006 23.0719L10.5478 22.0291L10.8222 21.7497L11.0966 21.4752L12.1295 22.5081C13.1024 23.4811 13.1673 23.5559 13.1673 23.7306Z" fill="black" fill-opacity="0.7"></path>
<path d="M20.5274 4.231C20.4475 4.27092 19.9586 4.72497 19.4446 5.23891C18.4417 6.2518 18.4018 6.32166 18.4816 6.74079C18.5265 6.98528 18.8259 7.28466 19.0704 7.32957C19.4945 7.4094 19.5544 7.37447 20.6122 6.31667C21.4455 5.4834 21.6002 5.30377 21.6251 5.1441C21.7498 4.48547 21.1211 3.96655 20.5274 4.231Z" fill="black" fill-opacity="0.7"></path>
<path d="M21.3257 9.02108C20.8417 9.23564 20.707 9.87431 21.0563 10.2735C21.2808 10.528 21.4454 10.5579 22.5581 10.5379C23.6309 10.523 23.6708 10.513 23.9153 10.1787C24.06 9.98408 24.06 9.51506 23.9153 9.32046C23.6658 8.98616 23.6409 8.97618 22.5082 8.9662C21.7249 8.95622 21.4405 8.9662 21.3257 9.02108Z" fill="black" fill-opacity="0.7"></path>
</svg>
