<svg width="26" height="27" viewBox="0 0 26 27" fill="none" xmlns="http://www.w3.org/2000/svg">
<path d="M12.7181 1.60715C12.6482 1.6271 10.0536 2.91443 6.95003 4.46621C1.62609 7.13068 1.30176 7.30033 1.22192 7.45999C1.14708 7.61966 1.14209 8.14856 1.14209 13.2829C1.14209 18.4172 1.14708 18.9461 1.22192 19.1058C1.30176 19.2655 1.62609 19.4401 6.99993 22.1245C11.2711 24.2601 12.738 24.9736 12.8677 24.9736C12.9975 24.9736 14.4644 24.2601 18.7356 22.1245C24.1094 19.4401 24.4337 19.2655 24.5136 19.1058C24.5884 18.9461 24.5934 18.4172 24.5934 13.2829C24.5934 8.14856 24.5884 7.61966 24.5136 7.45999C24.4337 7.30033 24.1094 7.13068 18.7605 4.45623C15.642 2.89946 13.0374 1.61213 12.9675 1.59717C12.8977 1.5822 12.7879 1.58719 12.7181 1.60715ZM17.8324 5.18472C20.5618 6.55188 22.7971 7.67954 22.7971 7.69451C22.7971 7.70948 22.3331 7.95397 21.7593 8.23838L20.7264 8.75231L15.7368 6.25749L10.7471 3.76766L11.795 3.23876C12.3738 2.94936 12.8478 2.70986 12.8528 2.70986C12.8628 2.70487 15.1031 3.82255 17.8324 5.18472ZM17.9921 10.1195L16.4603 10.8879L11.4956 8.40803C8.76626 7.04086 6.5309 5.91321 6.5309 5.89824C6.5309 5.88327 7.20949 5.53399 8.04276 5.11985L9.54964 4.36642L14.5393 6.85625L19.5289 9.35107L17.9921 10.1195ZM10.2482 8.97684C12.9775 10.344 15.2129 11.4717 15.2129 11.4866C15.2129 11.5016 14.684 11.776 14.0403 12.1004L12.8677 12.6841L7.90305 10.2043C5.17372 8.83713 2.93836 7.70948 2.93836 7.69451C2.93836 7.67455 5.20366 6.51695 5.26852 6.50198C5.2785 6.49699 7.51885 7.61467 10.2482 8.97684ZM7.3043 11.0974L12.3189 13.6072V18.5819C12.3189 21.3212 12.3089 23.5616 12.2939 23.5616C12.279 23.5616 10.0137 22.4339 7.2544 21.0568L2.23981 18.547V13.5723C2.23981 10.833 2.24979 8.59264 2.26476 8.59264C2.27973 8.59264 4.54503 9.7203 7.3043 11.0974ZM23.4957 13.5723V18.547L18.4811 21.0568C15.7218 22.4339 13.4565 23.5616 13.4416 23.5616C13.4266 23.5616 13.4166 21.3212 13.4166 18.5819V13.6072L14.5892 13.0185C15.2328 12.6991 15.7717 12.4347 15.7867 12.4347C15.8017 12.4347 15.8116 13.6022 15.8116 15.0343V17.6339L15.9563 17.7786C16.1809 18.0031 16.5751 17.9682 16.7647 17.7087C16.8096 17.6488 17.2886 16.9603 17.8275 16.1769C18.3713 15.3935 18.8304 14.7499 18.8553 14.7399C18.8753 14.7299 19.2096 14.9494 19.5938 15.2239C19.978 15.5033 20.3522 15.7478 20.4271 15.7777C20.6067 15.8476 20.8661 15.7628 21.0009 15.5931C21.1007 15.4684 21.1007 15.3985 21.1007 12.6143V9.76521L22.2632 9.18142C22.8969 8.86208 23.4358 8.59763 23.4608 8.59763C23.4807 8.59264 23.4957 10.833 23.4957 13.5723ZM20.0528 12.265V14.2409L19.7185 14.0014C19.02 13.5024 18.9002 13.4326 18.7206 13.4326C18.6258 13.4326 18.506 13.4575 18.4561 13.4825C18.4062 13.5124 18.0869 13.9316 17.7526 14.4205C17.4133 14.9045 17.074 15.3935 16.9992 15.4983L16.8595 15.6929V13.7918V11.8858L18.4462 11.0925C19.3144 10.6534 20.0329 10.2941 20.0429 10.2941C20.0478 10.2891 20.0528 11.1773 20.0528 12.265Z" fill="black" fill-opacity="0.7"></path>
</svg>
