<svg width="26" height="26" viewBox="0 0 26 26" fill="none" xmlns="http://www.w3.org/2000/svg">
<g clip-path="url('#clip0_210_3076')">
<path opacity="0.974" fill-rule="evenodd" clip-rule="evenodd" d="M10.2981 0.306641C11.9946 0.306641 13.6911 0.306641 15.3876 0.306641C16.1851 0.530437 16.6924 1.04604 16.9094 1.85343C17.0044 2.45688 17.1209 3.05564 17.2587 3.6497C17.6098 4.32842 18.1669 4.61948 18.9302 4.52289C19.4829 4.33312 20.0318 4.13354 20.5768 3.92413C21.6122 3.70357 22.4022 4.04453 22.9469 4.94701C23.6328 6.16932 24.3313 7.38345 25.0425 8.58944C25.3552 9.31214 25.3053 10.0107 24.8928 10.6851C24.3902 11.188 23.8579 11.6537 23.2961 12.0822C22.7653 12.823 22.807 13.5298 23.4209 14.2028C23.9423 14.5911 24.4329 15.0152 24.8928 15.4751C25.3053 16.1495 25.3552 16.8481 25.0425 17.5708C24.3313 18.7768 23.6328 19.9909 22.9469 21.2132C22.4022 22.1157 21.6122 22.4567 20.5768 22.2361C20.0318 22.0267 19.4829 21.8271 18.9302 21.6374C18.1669 21.5408 17.6098 21.8318 17.2587 22.5105C17.1209 23.1046 17.0044 23.7034 16.9094 24.3068C16.6924 25.1142 16.1851 25.6298 15.3876 25.8536C13.6911 25.8536 11.9946 25.8536 10.2981 25.8536C9.50059 25.6298 8.99329 25.1142 8.77629 24.3068C8.68129 23.7034 8.56483 23.1046 8.42701 22.5105C8.07594 21.8318 7.51875 21.5408 6.75549 21.6374C6.20278 21.8271 5.65392 22.0267 5.1089 22.2361C4.07352 22.4567 3.28349 22.1157 2.73882 21.2132C2.05288 19.9909 1.35433 18.7768 0.643175 17.5708C0.321183 16.847 0.371079 16.1485 0.792864 15.4751C1.29427 14.9737 1.8265 14.508 2.38955 14.078C2.92034 13.3373 2.87875 12.6305 2.26481 11.9575C1.74345 11.5692 1.2528 11.145 0.792864 10.6851C0.371079 10.0118 0.321183 9.31324 0.643175 8.58944C1.35433 7.38345 2.05288 6.16932 2.73882 4.94701C3.28349 4.04453 4.07352 3.70357 5.1089 3.92413C5.65392 4.13354 6.20278 4.33312 6.75549 4.52289C7.51875 4.61948 8.07594 4.32842 8.42701 3.6497C8.56483 3.05564 8.68129 2.45688 8.77629 1.85343C8.99329 1.04604 9.50059 0.530437 10.2981 0.306641ZM10.7472 2.3025C12.1443 2.3025 13.5414 2.3025 14.9385 2.3025C15.0048 3.03285 15.1462 3.74804 15.3626 4.44804C16.2431 6.19796 17.6485 6.87156 19.5789 6.46885C20.0947 6.29695 20.602 6.10565 21.1007 5.89504C21.8009 7.08612 22.4911 8.28363 23.1714 9.48758C22.8307 9.78656 22.4814 10.0776 22.1236 10.3608C21.0153 11.3742 20.6411 12.6132 21.0009 14.078C21.215 14.7575 21.5892 15.3313 22.1236 15.7995C22.4645 16.0739 22.8055 16.3483 23.1465 16.6228C22.5064 17.8521 21.8246 19.0662 21.1007 20.2652C20.3137 19.8698 19.4821 19.6369 18.6059 19.5667C16.7883 19.671 15.6407 20.6025 15.163 22.3609C15.0719 22.8579 14.997 23.3569 14.9385 23.8577C13.5414 23.8577 12.1443 23.8577 10.7472 23.8577C10.6809 23.1274 10.5395 22.4122 10.3231 21.7122C9.44261 19.9623 8.03717 19.2887 6.10683 19.6914C5.59095 19.8633 5.08368 20.0546 4.58499 20.2652C3.88479 19.0741 3.19456 17.8766 2.51429 16.6727C2.85504 16.3737 3.20431 16.0826 3.56212 15.7995C4.67043 14.7861 5.04466 13.547 4.68478 12.0822C4.47068 11.4027 4.09646 10.8289 3.56212 10.3608C3.22116 10.0863 2.8802 9.81191 2.53924 9.53748C3.17924 8.30818 3.86115 7.094 4.58499 5.89504C5.37201 6.29047 6.20363 6.52333 7.07981 6.59359C8.89604 6.49085 10.0437 5.55943 10.5227 3.79939C10.6138 3.30232 10.6887 2.80336 10.7472 2.3025Z" fill="black" fill-opacity="0.7"></path>
<path opacity="0.971" fill-rule="evenodd" clip-rule="evenodd" d="M12.2439 8.14022C14.388 8.00221 16.0262 8.83378 17.1587 10.635C17.8917 12.0607 17.9748 13.5243 17.4082 15.0259C16.5976 16.7249 15.2588 17.7145 13.3915 17.9948C11.2659 18.142 9.64428 17.3187 8.5266 15.5249C7.79358 14.0993 7.71045 12.6356 8.27712 11.134C9.08619 9.45325 10.4084 8.45532 12.2439 8.14022ZM12.3936 10.186C10.6847 10.642 9.87805 11.7564 9.9736 13.529C10.4171 15.2436 11.5232 16.0503 13.2917 15.949C14.9907 15.5197 15.7974 14.4303 15.7117 12.6808C15.2956 10.9379 14.1895 10.1062 12.3936 10.186Z" fill="black" fill-opacity="0.7"></path>
</g>
<defs>
<clipPath id="clip0_210_3076">
<rect width="25.547" height="25.547" fill="white" transform="translate(0.0939941 0.331543)"></rect>
</clipPath>
</defs>
</svg>
