<svg width="26" height="26" viewBox="0 0 26 26" fill="none" xmlns="http://www.w3.org/2000/svg">
<g clip-path="url('#clip0_210_3051')">
<path d="M4.36034 1.95183C4.2805 1.97678 4.17073 2.02667 4.12083 2.06659C4.07094 2.10152 3.15284 3.68323 2.07508 5.56932L0.119141 9.00718L0.12413 9.40635C0.139099 10.0999 0.398561 10.8384 0.837649 11.4222C1.09212 11.7615 1.63599 12.2305 2.00523 12.4301L2.28963 12.5798V18.1482C2.28963 24.2855 2.26968 23.9262 2.60398 24.1258C2.75866 24.2256 2.92831 24.2256 12.8677 24.2256C22.807 24.2256 22.9767 24.2256 23.1314 24.1258C23.4657 23.9262 23.4457 24.2855 23.4457 18.1482V12.5798L23.7401 12.4251C24.8278 11.8463 25.5913 10.6089 25.6112 9.40635L25.6162 9.00718L23.7002 5.63917C22.6474 3.78802 21.7243 2.2063 21.6494 2.13146C21.5746 2.05162 21.4299 1.97179 21.3201 1.94684C21.0607 1.88197 4.55992 1.89195 4.36034 1.95183ZM22.333 5.78886L23.795 8.35853L18.3313 8.3735C15.3276 8.37849 10.4078 8.37849 7.40402 8.3735L1.94036 8.35853L3.40232 5.77888L4.8593 3.19924L12.8677 3.20922L20.876 3.2192L22.333 5.78886ZM6.10172 9.76561C5.73249 11.3024 4.05597 12.0708 2.63891 11.3523C2.34951 11.2076 1.98028 10.8783 1.78568 10.5989C1.65096 10.3993 1.3915 9.80053 1.3915 9.68078C1.3915 9.65085 2.24972 9.63089 3.76158 9.63089H6.13166L6.10172 9.76561ZM12.1492 9.84045C12.0993 10.1548 11.8298 10.6188 11.5155 10.9332C10.5674 11.8812 9.00569 11.8463 8.09259 10.8583C7.81317 10.559 7.5587 10.1049 7.49882 9.79056L7.46888 9.63089H9.82399H12.1841L12.1492 9.84045ZM18.2365 9.79056C18.0818 10.5639 17.3134 11.3373 16.4902 11.5569C15.602 11.7964 14.5342 11.4172 13.9903 10.6787C13.7858 10.3993 13.5712 9.92029 13.5662 9.74066V9.63089H15.9163H18.2715L18.2365 9.79056ZM24.3139 9.8155C24.2441 10.1448 23.9646 10.6138 23.6702 10.9082C22.8519 11.7315 21.6395 11.8613 20.6715 11.2376C20.1775 10.9182 19.8532 10.4791 19.6735 9.89035L19.6087 9.68078H21.9788H24.3438L24.3139 9.8155ZM7.3142 11.8613C7.69841 12.2405 8.16743 12.5249 8.70132 12.7045C9.27014 12.8991 10.0835 12.929 10.6772 12.7793C11.3808 12.6047 11.8697 12.3253 12.4086 11.7914L12.8727 11.3324L13.3068 11.7665C13.7957 12.2554 14.2049 12.5149 14.7887 12.7095C15.1479 12.8342 15.2627 12.8442 15.9114 12.8442C16.575 12.8492 16.6648 12.8342 17.034 12.7095C17.2536 12.6297 17.5829 12.48 17.7675 12.3702C18.1018 12.1756 18.6507 11.6816 18.8353 11.4122L18.9351 11.2725L19.1796 11.5768C19.7983 12.3453 20.881 12.8692 21.864 12.8742H22.1983V17.9137V22.9532H17.034H11.8697V19.5154C11.8697 17.4197 11.8498 15.9777 11.8198 15.818C11.6652 14.9997 11.0614 14.3611 10.2481 14.1465C9.84395 14.0417 7.84311 14.0417 7.40402 14.1415C6.68551 14.3112 6.10172 14.855 5.84725 15.5985C5.7724 15.818 5.76242 16.2172 5.74746 19.3956L5.7275 22.9532H4.62978H3.53704V17.9137V12.8742H3.87634C4.85431 12.8692 5.93706 12.3453 6.55578 11.5768L6.80027 11.2725L6.90006 11.4122C6.94996 11.487 7.13957 11.6916 7.3142 11.8613ZM10.0984 15.4139C10.3379 15.5237 10.4427 15.6334 10.5475 15.8829C10.6124 16.0376 10.6223 16.5216 10.6223 19.5104V22.9532H8.82606H7.02979V19.4904C7.02979 17.1553 7.04476 15.9777 7.08468 15.8829C7.15952 15.6833 7.32418 15.5187 7.55371 15.4139C7.72834 15.334 7.88801 15.3191 8.82606 15.3191C9.75913 15.3191 9.92379 15.334 10.0984 15.4139Z" fill="black" fill-opacity="0.7"></path>
<path d="M14.3298 14.1267C14.0603 14.1916 13.6212 14.486 13.4216 14.7355C13.3368 14.8453 13.2221 15.0548 13.1672 15.2045C13.0674 15.469 13.0624 15.5638 13.0774 17.1854L13.0923 18.8869L13.2221 19.1663C13.3917 19.5255 13.7011 19.8349 14.0603 20.0045L14.3397 20.1343H16.5102H18.6807L18.9601 20.0045C19.3194 19.8349 19.6288 19.5255 19.7984 19.1663L19.9281 18.8869V17.1155V15.3442L19.7984 15.0698C19.6338 14.7255 19.3144 14.4062 18.9552 14.2315L18.6807 14.0968L16.61 14.0868C15.4125 14.0818 14.4495 14.1018 14.3298 14.1267ZM18.4562 15.3941C18.536 15.434 18.6258 15.5139 18.6558 15.5638C18.6857 15.6236 18.7057 16.2224 18.7057 17.1405V18.6224L18.561 18.7671L18.4163 18.9118H16.5102H14.6042L14.4595 18.7671L14.3148 18.6224V17.1305C14.3148 15.5288 14.3248 15.474 14.5842 15.3692C14.6391 15.3442 15.5023 15.3243 16.5003 15.3243C18.0221 15.3193 18.3364 15.3293 18.4562 15.3941Z" fill="black" fill-opacity="0.7"></path>
</g>
<defs>
<clipPath id="clip0_210_3051">
<rect width="25.547" height="25.547" fill="white" transform="translate(0.0939941 0.300293)"></rect>
</clipPath>
</defs>
</svg>
