<svg width="26" height="27" viewBox="0 0 26 27" fill="none" xmlns="http://www.w3.org/2000/svg">
<g clip-path="url('#clip0_210_3025')">
<path d="M0.48343 2.23041C0.268876 2.34018 0.0942383 2.63457 0.0942383 2.87407C0.0942383 3.12355 0.268876 3.40796 0.49341 3.52272C0.678026 3.61753 0.782809 3.62252 2.70881 3.62252H4.7346L4.75955 3.73229C4.82442 3.99674 7.42901 15.7473 7.42901 15.7723C7.42901 15.7823 7.33421 15.8421 7.21945 15.902C7.09969 15.9619 6.88015 16.1365 6.73046 16.2912C6.06185 16.9798 5.90717 17.9278 6.32131 18.811C6.61071 19.4297 7.23441 19.9087 7.92298 20.0384C8.07267 20.0634 8.50677 20.0883 8.89596 20.0933C9.43984 20.0983 9.54961 20.1083 9.37996 20.1432C8.24731 20.3628 7.42901 21.5303 7.61862 22.663C7.82319 23.8854 8.96582 24.7337 10.1534 24.5391C11.1313 24.3794 11.8698 23.641 12.0295 22.663C12.2191 21.5303 11.4008 20.3628 10.2681 20.1432C10.1384 20.1183 12.1392 20.0983 15.1131 20.0983C18.0869 20.0983 20.0877 20.1183 19.958 20.1432C18.8253 20.3628 18.007 21.5303 18.1967 22.663C18.3563 23.641 19.0948 24.3794 20.0728 24.5391C21.2603 24.7337 22.4029 23.8854 22.6075 22.663C22.7971 21.5303 21.9788 20.3628 20.8462 20.1432C20.6765 20.1083 20.7913 20.0983 21.3401 20.0933C21.9489 20.0883 22.0836 20.0734 22.2482 19.9885C22.4728 19.8738 22.6474 19.5894 22.6474 19.3399C22.6474 19.0904 22.4728 18.806 22.2482 18.6912C22.0536 18.5914 21.9688 18.5914 15.1131 18.5914C8.25729 18.5914 8.17247 18.5914 7.97787 18.4916C7.75334 18.3769 7.5787 18.0925 7.5787 17.843C7.5787 17.6185 7.75334 17.3091 7.94294 17.2093C8.09263 17.1245 8.52673 17.1195 15.123 17.0945C22.1135 17.0696 22.1435 17.0696 22.2782 16.9648C22.353 16.9099 22.4578 16.8101 22.5077 16.7403C22.6075 16.6106 25.6412 6.05247 25.6412 5.84291C25.6412 5.61837 25.4566 5.32897 25.242 5.2192C25.0474 5.11941 24.9676 5.11941 15.8216 5.11941H6.59574L6.3263 3.88697C6.1317 2.99382 6.02193 2.60463 5.93212 2.46991C5.71257 2.12562 5.72754 2.12562 3.04811 2.12562C0.777819 2.13061 0.658068 2.1356 0.48343 2.23041ZM23.8749 6.70113C23.8599 6.75102 23.2861 8.77183 22.5925 11.1918L21.3351 15.5977H15.133H8.9259L8.90095 15.4829C8.88599 15.423 8.4469 13.4521 7.92797 11.107C7.40905 8.76185 6.96996 6.79094 6.95499 6.72607L6.93005 6.6163H15.4124C23.4757 6.6163 23.8998 6.62129 23.8749 6.70113ZM10.1733 21.685C10.3978 21.7998 10.5725 22.0842 10.5725 22.3337C10.5725 22.7129 10.2033 23.0821 9.82404 23.0821C9.44483 23.0821 9.07559 22.7129 9.07559 22.3337C9.07559 22.0942 9.25023 21.7998 9.46478 21.69C9.70429 21.5603 9.92882 21.5603 10.1733 21.685ZM20.7514 21.685C20.9759 21.7998 21.1505 22.0842 21.1505 22.3337C21.1505 22.7129 20.7813 23.0821 20.4021 23.0821C20.0229 23.0821 19.6536 22.7129 19.6536 22.3337C19.6536 22.0942 19.8283 21.7998 20.0428 21.69C20.2823 21.5603 20.5069 21.5603 20.7514 21.685Z" fill="black" fill-opacity="0.7"></path>
</g>
<defs>
<clipPath id="clip0_210_3025">
<rect width="25.547" height="25.547" fill="white" transform="translate(0.0939941 0.578613)"></rect>
</clipPath>
</defs>
</svg>
